<?xml version="1.0" encoding="UTF-8" standalone="no"?>
<!-- Created with Inkscape (http://www.inkscape.org/) -->

<svg
   width="100mm"
   height="100mm"
   viewBox="0 0 100 100"
   version="1.1"
   id="svg5"
   xml:space="preserve"
   inkscape:version="1.2.2 (b0a8486541, 2022-12-01)"
   sodipodi:docname="fablabtest.svg"
   xmlns:inkscape="http://www.inkscape.org/namespaces/inkscape"
   xmlns:sodipodi="http://sodipodi.sourceforge.net/DTD/sodipodi-0.dtd"
   xmlns="http://www.w3.org/2000/svg"
   xmlns:svg="http://www.w3.org/2000/svg"><sodipodi:namedview
     id="namedview7"
     pagecolor="#ffffff"
     bordercolor="#000000"
     borderopacity="0.25"
     inkscape:showpageshadow="2"
     inkscape:pageopacity="0.0"
     inkscape:pagecheckerboard="0"
     inkscape:deskcolor="#d1d1d1"
     inkscape:document-units="mm"
     showgrid="false"
     inkscape:zoom="0.70199214"
     inkscape:cx="-79.060714"
     inkscape:cy="138.17818"
     inkscape:window-width="1920"
     inkscape:window-height="986"
     inkscape:window-x="-11"
     inkscape:window-y="-11"
     inkscape:window-maximized="1"
     inkscape:current-layer="layer1" /><defs
     id="defs2" /><g
     inkscape:label="Calque 1"
     inkscape:groupmode="layer"
     id="layer1"
     transform="translate(-81.782468,-81.405568)"><path
       style="fill:#000000;stroke-width:0.261159"
       d="m 125.18934,177.7399 c -18.19474,-2.12727 -34.448081,-15.66734 -39.470241,-33.33894 -2.12209,-6.6567 -1.99072,-13.83286 -1.15533,-20.69005 3.14141,-17.34044 16.806831,-32.141758 33.863741,-36.600368 18.7333,-5.47609 40.40833,1.75724 51.8516,17.626548 6.34092,8.52584 9.55883,19.27505 8.69683,29.89255 -0.7837,21.4104 -18.94514,40.09922 -39.9527,42.91936 -4.57715,0.62516 -9.24391,0.76581 -13.8339,0.1909 z m 10.31875,-0.664 c 18.05453,-1.31223 34.83696,-14.01029 40.43753,-31.31685 6.02609,-16.87957 0.0695,-36.8943 -13.6983,-48.219068 -14.09574,-12.40268 -35.8688,-14.93746 -52.41806,-6.03627 -7.20996,3.53379 -13.234971,9.328498 -17.767981,15.888348 -8.29947,12.58695 -9.65603,29.42429 -3.05886,43.03133 7.86569,17.54604 27.464841,28.51585 46.505671,26.65251 z m -11.90625,-17.68687 c -5.68758,-7.91142 -11.55989,-15.69303 -17.13764,-23.68145 8.42552,4.65664 16.72438,9.5408 25.08073,14.32102 8.35365,-4.77832 16.64901,-9.66207 25.07279,-14.31503 -8.23268,11.55792 -16.60125,23.03004 -25.07838,34.41113 -2.72441,-3.51785 -5.30384,-7.14915 -7.9375,-10.73567 z m 7.39631,-0.14343 c -0.004,-2.85704 -0.008,-5.71408 -0.012,-8.57112 -7.11265,-4.0484 -14.1681,-8.2003 -21.34974,-12.12518 6.99857,9.82655 14.09916,19.58438 21.29499,29.26742 0.0948,-2.85519 0.0555,-5.71468 0.0667,-8.57112 z m 12.02873,-6.22038 c 3.48354,-4.81556 7.01979,-9.59504 10.41623,-14.47231 -7.18151,3.92505 -14.23832,8.07445 -21.35166,12.12157 0.06,5.66559 -0.19636,11.35086 0.21028,17.00046 3.60743,-4.85928 7.15512,-9.76292 10.72515,-14.64972 z m -23.39379,-13.20855 c -4.0482,-2.34472 -8.09673,-4.6889 -12.14436,-7.03462 3.97366,-7.88079 9.09331,-15.21312 13.61493,-22.81762 3.46559,-5.55523 6.87341,-11.148318 10.43251,-16.644008 8.24686,13.009438 16.35077,26.116048 24.30233,39.308038 -8.10173,4.72199 -16.23035,9.39929 -24.3853,14.02874 -3.9421,-2.27661 -7.88036,-4.55986 -11.82011,-6.84053 z m 11.28462,-17.02936 c -7.4511,3.01428 -14.70228,6.5026 -22.13767,9.55541 6.82111,4.38259 14.08453,8.18453 21.08534,12.33945 1.85689,1.59394 0.70137,-2.06861 1.03541,-3.13195 0.0196,-6.25406 0.13536,-12.50993 0.0169,-18.76291 z m 22.78048,10.15584 c -0.23711,-2.13238 -6.86586,-3.21184 -9.53885,-4.98291 -3.9938,-1.7569 -7.97592,-3.5411 -11.98855,-5.25469 -0.17392,7.54378 -0.0768,15.09163 -0.10228,22.63731 7.20639,-4.13917 14.37654,-8.34303 21.62968,-12.39971 z m -33.00676,-6.7286 c 3.39548,-1.50611 6.79096,-3.01222 10.18645,-4.51833 0.007,-8.58115 0.19762,-17.16565 -0.0127,-25.744238 -7.11416,11.552928 -14.52401,22.942118 -21.24672,34.725658 2.78154,-0.16443 7.54787,-3.19707 11.07298,-4.46309 z m 33.39813,4.93323 c -7.34342,-11.57163 -14.37069,-23.40758 -21.76658,-34.904728 -0.46521,8.454288 -0.065,16.972768 -0.12221,25.454818 7.35199,3.25597 14.68945,6.54508 22.05896,9.76123 l -0.1702,-0.31132 z"
       id="path302" /><rect
       style="fill:none;fill-opacity:0;stroke:#fb0101;stroke-width:0.759192;stroke-dasharray:none"
       id="rect403"
       width="99.240807"
       height="99.240807"
       x="82.162064"
       y="81.785164" /></g></svg>
