<?xml version="1.0" encoding="UTF-8" standalone="no"?>
<!-- Created with Inkscape (http://www.inkscape.org/) -->

<svg
   width="99.999954mm"
   height="100mm"
   viewBox="0 0 99.999954 100"
   version="1.1"
   id="svg1"
   xml:space="preserve"
   inkscape:version="1.3.2 (091e20e, 2023-11-25, custom)"
   sodipodi:docname="dessin.svg"
   xmlns:inkscape="http://www.inkscape.org/namespaces/inkscape"
   xmlns:sodipodi="http://sodipodi.sourceforge.net/DTD/sodipodi-0.dtd"
   xmlns="http://www.w3.org/2000/svg"
   xmlns:svg="http://www.w3.org/2000/svg"><sodipodi:namedview
     id="namedview1"
     pagecolor="#ffffff"
     bordercolor="#000000"
     borderopacity="0.25"
     inkscape:showpageshadow="2"
     inkscape:pageopacity="0.0"
     inkscape:pagecheckerboard="0"
     inkscape:deskcolor="#d1d1d1"
     inkscape:document-units="mm"
     inkscape:zoom="0.68111408"
     inkscape:cx="129.20009"
     inkscape:cy="138.74328"
     inkscape:window-width="1366"
     inkscape:window-height="705"
     inkscape:window-x="-8"
     inkscape:window-y="-8"
     inkscape:window-maximized="1"
     inkscape:current-layer="layer1" /><defs
     id="defs1"><clipPath
       clipPathUnits="userSpaceOnUse"
       id="clipPath1"><rect
         style="fill:#000000;stroke-width:0.264583"
         id="rect2"
         width="100.3615"
         height="99.194504"
         x="55.432217"
         y="105.61296" /></clipPath></defs><g
     inkscape:label="Calque 1"
     inkscape:groupmode="layer"
     id="layer1"
     transform="translate(-48.858625,-123.59986)"><path
       style="fill:#000000;stroke-width:1.09207"
       d="m 113.51237,223.53141 c -1.61803,-2.21916 -4.43133,-0.0885 -6.6546,-0.32189 -3.00802,0.54952 -5.39913,0.18274 -1.13305,-0.36779 -3.32764,-0.50672 -9.43293,-3.39328 -12.641095,-6.79587 -0.526916,2.16805 5.776505,7.3677 5.712865,7.51047 -3.30851,0.52905 -3.791507,-3.88579 -6.418278,-6.65504 -1.080078,-5.51066 -3.227666,2.24664 -5.312805,3.41778 -1.943916,3.14948 -1.09473,-2.03015 1.389144,-2.87532 4.63445,-5.26359 -3.674898,0.17776 -6.11887,-0.83455 -3.293914,1.46147 -7.942708,-2.07272 -10.217053,-0.60249 -1.747571,1.49233 -0.616892,-3.76559 -3.505928,-4.10264 -2.105473,-1.67559 -8.280857,-8.00025 -7.227283,-7.7991 2.223992,2.16555 0.705425,-6.14169 2.376799,-8.37298 -1.224905,-1.77269 -5.770001,-1.54917 -7.904832,-3.1559 -5.150044,-3.28513 4.07186,0.88866 6.25633,1.55702 2.584993,0.005 -4.032122,-3.2675 -5.102947,-4.70063 -3.153917,-2.3588 -4.972201,-8.68028 -8.152142,-6.4498 2.364436,-4.39111 2.231727,-9.44325 5.104,-13.73648 0.331038,-2.55688 6.607823,-7.18267 4.639751,-7.1671 -4.078243,1.7291 -8.032147,4.85372 -7.798003,9.65232 -0.193154,-6.44975 2.046018,-12.77211 4.511372,-18.65646 1.974517,-4.44141 4.937054,-8.327 7.71221,-12.28941 -4.13387,-3.38341 3.506581,-1.44651 5.248272,-4.03036 4.279658,-1.55004 9.080702,-1.31563 13.38238,-0.29701 -0.725582,-1.8664 -8.681069,-3.80547 -5.832022,-4.35703 3.051885,0.24981 8.212385,7.48741 7.740855,1.18523 -0.256658,-2.44472 2.236906,-7.9465 1.051729,-2.45422 0.217249,0.99078 -1.185714,6.60423 0.09275,5.15377 3.507144,-4.45929 7.979665,-8.32909 13.281371,-10.50036 -1.19542,-5.01563 3.54697,1.68308 6.36262,0.60977 5.61052,2.29831 10.54473,6.6185 13.46632,11.94026 0.22932,-2.82919 -2.15092,-7.48793 -1.14794,-8.79132 2.06037,3.13414 1.2089,8.8862 2.73242,10.95437 2.15694,-1.69652 7.1798,-5.64289 8.82295,-4.19175 -1.93333,0.45 -9.45307,3.80959 -7.01979,4.59305 5.8016,0.0426 11.5095,1.61877 16.59615,4.3694 -1.26408,-1.68514 -6.21816,-7.2728 -2.10104,-3.11412 2.19586,2.34758 3.67715,6.44489 5.96637,2.17939 1.40118,1.00814 -2.34644,4.19544 0.0156,6.01946 1.89096,6.71672 1.39007,14.29091 -1.56752,20.48152 2.22359,-2.20948 6.64373,-4.55163 6.54507,-7.93608 -0.85418,-4.00263 -2.86462,-7.61337 -4.25503,-11.42235 5.61897,8.8884 7.11621,19.94426 6.19799,30.27831 0.61457,3.85465 -4.05337,9.19747 -1.94982,11.88891 4.92985,2.06208 -4.25385,0.976 -3.64741,4.89492 -3.04512,6.76392 -8.82997,11.80419 -14.50434,16.37369 -4.24518,3.29895 -9.25976,5.57229 -14.40979,7.08871 z m -0.17287,-1.42643 c -0.43713,-0.61051 -0.43713,0.61052 0,0 z m -2.64775,-1.10618 c -3.97223,-3.85492 -6.11419,-6.99839 -7.57128,-11.87187 -1.70474,-4.05522 -6.87685,-5.53653 -8.370601,-9.82619 -2.206223,3.6024 -0.57665,8.06349 -0.03953,11.56921 -3.967471,-1.01321 -6.366767,-5.05108 -7.275433,-8.82551 -0.625127,3.24727 -2.358595,6.25521 -6.065763,6.19366 -2.464514,0.72459 -9.467249,4.53343 -6.787381,6.68525 4.406,1.24119 8.982557,1.20183 13.348841,-0.32715 1.660321,-0.18366 3.804656,-2.31001 4.833095,-0.10805 2.602232,2.47234 5.722622,5.01549 10.252942,6.85875 2.8364,0.80148 5.83808,0.47254 8.75716,0.58786 l -1.08206,-0.93601 z m -15.488243,-5.36069 c 0.437133,-0.61052 0.437133,0.61051 0,0 z m -9.04784,-1.35062 c 3.280708,-1.62157 -1.653236,1.58319 0,0 z m 11.443163,0.1371 c -3.472597,-0.53184 9.71361,-0.2004 2.4442,0.0944 -0.81556,0.004 -1.6317,-0.0224 -2.4442,-0.0944 z m -4.533995,-0.24483 c -1.8174,-1.37542 4.825595,0.35414 0,0 z m 10.123075,0.0402 c 1.04929,-0.40119 0.1111,0.7668 0,0 z m -15.512542,-1.55263 c -2.681259,-1.8496 6.78162,1.88671 0.943642,0.37711 z m -2.224226,-0.94335 c 0.09034,-1.24822 1.027113,1.14661 0,0 z M 84.59567,211.5538 c 0.437137,-0.61052 0.437137,0.61051 0,0 z m -0.684377,-0.34036 c 0.437136,-0.61052 0.437136,0.61051 0,0 z m -0.9125,-0.3971 c 1.049288,-0.40119 0.111067,0.7668 0,0 z m -1.140632,-0.62399 c 0.437136,-0.61052 0.437136,0.61052 0,0 z m 3.764075,-3.74398 c 0.437137,-0.61051 0.437137,0.61052 0,0 z m 27.375074,15.01871 c -0.91288,-2.86555 -1.72481,-6.14782 -1.22213,-9.1136 0.84334,-2.41357 2.82197,-4.65199 1.96273,-7.32826 -0.70546,-4.84563 -6.06339,-8.84082 -8.35429,-11.8845 -4.90776,1.5381 -10.556969,1.56737 -14.970742,-1.31894 6.751572,2.5976 15.252732,2.19218 20.686792,-3.04917 3.78953,-3.34696 6.13454,-8.26757 5.78387,-13.31044 8e-4,-2.64432 -1.28825,-6.30806 -2.22602,-9.43428 2.98145,2.16826 1.17304,10.34927 6.49851,6.71818 5.42778,-1.56177 3.03657,-10.29228 8.58804,-12.27116 4.93956,-0.61916 9.35785,-8.5083 8.56895,-11.30949 -3.57685,3.73186 -8.66624,5.0544 -13.5428,3.3604 -6.44162,-1.12584 -7.93873,6.49667 -11.23771,10.21795 1.59123,3.83214 -3.92893,-3.22047 -6.0211,-3.87365 -8.1128,-4.51918 -19.644712,-1.96455 -24.517205,6.10485 -3.608727,5.00299 -3.422051,11.68178 -1.718433,17.26296 1.484365,1.15611 2.215467,4.71267 0.239456,1.43408 -5.120851,4.26746 -3.240018,11.33874 -4.560921,17.01846 -2.849025,3.35475 -5.515643,6.92131 -4.863853,11.65034 -0.70446,4.30198 2.022176,-1.93755 3.771663,-2.43872 3.425238,-2.92828 9.709672,-2.99101 10.596177,-8.29 0.428069,-2.52383 0.796932,-11.02312 2.997649,-9.87217 -1.831109,4.25245 -2.034407,9.92967 0.600708,13.91229 0.918938,1.53427 4.032209,4.78901 2.557392,0.75683 -0.21173,-3.08495 0.992917,-10.76327 1.805529,-11.34061 0.20332,6.50681 6.703558,8.92141 9.879978,13.55804 0.97301,3.65578 3.69709,8.80886 6.01311,10.44779 -0.82428,0.92247 2.30901,0.85823 1.45452,1.78099 -0.13244,-0.44568 1.02275,1.29808 1.23013,0.61183 z M 87.675368,190.28116 c 0.832225,-1.34246 1.381994,1.3838 0,0 z m -1.896108,-1.3841 c -0.546757,-1.86072 1.194561,1.35277 0,0 z m -1.012495,-0.99844 c 0.09034,-1.24822 1.027113,1.14661 0,0 z m -0.855472,-1.02108 c 0.364636,-0.9387 0.31235,0.9102 0,0 z m 32.165717,-13.44429 c 0.43714,-0.61052 0.43714,0.61051 0,0 z m 0,-1.02109 c 0.43714,-0.61051 0.43714,0.61052 0,0 z m -0.34219,-0.8509 c 0.36466,-0.93872 0.31235,0.91021 0,0 z m -1.71094,-6.2967 c 0.43714,-0.61051 0.43714,0.61052 0,0 z m 1.88816,54.75075 c 4.03891,-2.8676 7.07573,-7.468 7.68012,-12.43602 0.46116,-1.53172 -3.6151,1.36574 -0.0622,-1.20897 2.84133,-2.00539 6.21833,-6.59965 8.11536,-7.72144 -1.82931,2.49812 -6.39509,6.73935 -0.33813,4.49522 3.77689,-1.1953 7.74491,-2.92342 10.57775,-5.83639 2.4517,-1.72325 1.18431,-2.04708 -1.19885,-1.95106 -5.2941,0.18914 -9.57091,-3.28783 -14.55538,-4.21107 -2.79587,0.65959 -9.71943,2.06452 -9.97734,3.32722 0.39701,3.37378 7.98572,4.32573 6.25838,6.69848 -3.36696,1.96474 -11.0074,-2.45485 -7.81662,3.87062 1.07304,2.55847 -3.26344,7.55037 0.0519,6.68546 -3.83151,0.38627 -2.11702,4.65556 -1.48083,7.10028 0.14686,2.04672 1.21536,2.50954 2.7458,1.18767 z m -0.5194,-8.76132 c 1.4316,-1.07751 6.90078,-3.35839 2.44571,-0.92035 -0.70721,0.13131 -1.74757,1.29139 -2.44571,0.92035 z m 4.96173,-2.5933 c 1.03038,-1.28169 -0.22773,1.2835 0,0 z m 0.85547,-0.51054 c 0.43714,-0.61052 0.43714,0.61052 0,0 z m 10.95004,-5.78615 c 0.43714,-0.61052 0.43714,0.61051 0,0 z m 0.79844,-0.3971 c 1.04929,-0.40119 0.1111,0.7668 0,0 z m 0.22813,-5.72941 c 0.43713,-0.61052 0.43713,0.61051 0,0 z m -10.41213,21.4587 c 4.91207,-1.30466 6.25106,-5.66768 4.31301,-10.05067 -1.16287,-5.40628 -2.50216,3.62825 -3.91967,5.0754 0.0668,2.38774 -6.11539,6.88047 -4.59764,6.90109 1.47163,-0.46725 2.83332,-1.22924 4.2043,-1.92582 z m -50.839631,-3.07917 c -0.437136,-0.61051 -0.437136,0.61052 0,0 z m 62.211591,-5.3615 c 0.68317,-1.04867 4.39373,-3.24325 1.36659,-2.88751 -2.72729,0.62628 -9.58809,-2.67286 -7.83265,1.01117 1.38646,1.75353 -0.18939,8.59443 3.08696,4.97466 1.17202,-0.98193 2.28863,-2.02803 3.3791,-3.09832 z m -62.895968,0.94956 c -1.015671,-6.20325 7.052405,-8.7504 5.475019,-15.0668 -0.284088,-2.95571 2.256616,-9.78588 -2.85001,-5.89133 -2.640941,0.77249 -4.823755,9.80381 -5.278181,3.06548 -0.72071,-2.75833 2.95985,-8.21776 -1.863653,-6.18258 -2.423495,-0.1357 -7.662289,-4.67842 -5.001753,0.62239 0.935914,1.84117 2.841114,7.54154 0.617295,2.73271 -1.066573,-4.0588 -3.264669,-9.63372 -7.977309,-7.91511 -4.744042,-0.57387 1.489202,6.26318 3.533238,7.64735 4.075312,2.98147 9.148971,5.13327 7.427384,11.19644 0.661941,3.90941 3.076249,11.2845 5.829691,11.58533 l 0.06461,-0.80763 0.02376,-0.98621 z m -1.572524,-9.08494 c -0.157199,-0.91772 1.214491,1.29462 0,0 z m -1.164985,-1.47904 c 0.437136,-0.61051 0.437136,0.61052 0,0 z m -4.448453,-6.80723 c 0.437136,-0.61052 0.437136,0.61051 0,0 z m 2.765552,15.96493 c -1.975124,-3.77098 -2.423714,-8.03952 -2.604422,-12.22095 -0.789772,3.36743 -1.169472,7.10137 -0.306415,10.38777 0.872499,0.74399 4.713794,5.26302 2.910837,1.83318 z m 17.950933,-1.86256 c 0.371568,-1.54715 -1.587875,1.29152 0,0 z m 40.193085,-0.52808 c -0.88228,-1.21882 -0.71236,2.20296 0,0 z m 14.48264,-3.19326 c 1.78398,-1.94616 4.52065,-7.06433 0.31954,-3.22229 -2.55152,2.61906 -10.31872,3.922 -10.91001,5.11476 2.9376,0.5893 5.95076,0.32046 8.92622,0.31986 0.55475,-0.73744 1.1095,-1.47488 1.66425,-2.21233 z m -21.49102,-2.73334 c 5.92703,0.87329 -1.75198,-2.45209 -2.51854,-4.89666 -1.15361,-1.43206 -6.25929,-7.90792 -1.54178,-4.46481 4.90644,4.03256 10.73808,-4.16888 15.88649,-0.0963 4.13375,2.78322 9.33155,3.5463 14.20834,3.19859 -2.0022,-2.45021 -5.97687,-3.95014 -7.56811,-7.34602 -2.88059,-3.42664 -6.35204,-7.98602 -11.43417,-7.06572 -1.3355,1.47849 -5.43752,-0.39338 -7.76275,0.70741 -1.07356,3.74995 -2.91391,7.49226 -6.5704,9.33851 -2.95026,1.51402 -5.0136,3.21124 -1.76308,5.98396 2.03133,2.69174 5.90796,5.02126 9.064,4.64105 z m -3.2994,-6.92299 c -1.79305,-2.84068 0.99316,3.25973 0,0 z m -41.503809,-4.96338 c 3.150665,-1.00418 7.015273,-3.17648 7.806807,-6.27813 -1.141771,-5.40191 -7.291422,0.70525 -9.5839,2.66477 -1.867353,1.0043 -2.315549,8.13438 -1.398495,7.10984 0.817541,-1.3575 1.837526,-2.61279 3.175588,-3.49648 z m 71.557579,1.26051 c 0.0652,-4.43688 -2.34864,-8.11515 -3.18022,-11.75959 -2.52673,-4.06843 -3.38024,-8.37074 -4.21152,-13.07727 -0.96134,-2.8417 -1.71489,-8.94226 -5.08235,-4.31867 -5.47991,1.00935 -5.87698,6.84986 -7.55566,11.09398 0.65099,2.95281 6.92098,-0.42543 8.75062,-1.75679 1.23484,4.03668 -8.9974,7.96234 -2.83612,9.35219 5.49705,3.47297 7.79467,10.43641 13.75483,13.31394 0.75922,-0.61392 0.2349,-2.03247 0.36042,-2.84779 z m -5.71626,-12.84865 c 0.36466,-0.93872 0.31235,0.9102 0,0 z m -0.34218,-0.85091 c 0.43713,-0.61052 0.43713,0.61052 0,0 z m 0.34218,-0.87099 c 0.69567,-0.74699 0.77476,1.13893 0,0 z m 7.32189,13.82296 c 1.6644,-4.36931 1.8991,-9.08948 2.35001,-13.69852 -2.39712,-0.87346 -10.70947,-5.39483 -7.49031,-0.43347 2.44779,4.70102 4.11673,9.86685 4.58904,15.10893 l 0.26435,-0.17769 z m -74.35615,-6.18733 c 1.472068,-2.80618 8.438537,-2.21888 7.429776,-5.63689 -1.409369,-6.81755 2.763362,-13.11785 7.24276,-17.82689 0.59359,-1.70004 3.597197,-2.96802 1.247308,-0.5426 4.796039,-1.14515 10.242876,-4.81831 4.761722,-9.46258 -0.353566,-3.66307 -7.053938,-7.9418 -8.391331,-6.51367 4.625383,2.8237 3.367224,9.07785 5.582022,13.33794 -1.129989,-0.14875 -2.997168,-6.99385 -7.261375,-4.8368 -6.055075,1.19 -8.093753,-5.24739 -11.761939,-8.42111 -1.988056,-2.45144 -8.99671,-4.86954 -5.162505,0.0439 2.896997,4.37817 2.580815,9.86912 5.149606,14.33089 1.987125,2.80971 9.653531,2.77088 9.356511,5.72154 -2.345399,-0.87225 -4.355706,-2.91537 -7.029595,-2.29443 -2.667605,-0.0678 -7.623176,1.32414 -8.613409,2.82193 5.546336,0.21546 10.071702,3.37158 15.41347,3.50277 -3.66673,0.0634 -10.359229,1.1222 -11.767042,5.88916 -1.064815,2.52959 -5.463644,1.4014 -9.092525,1.4713 -2.746566,0.0484 -8.784314,4.93885 -6.728457,6.40811 5.709685,-2.35996 9.89251,3.60102 15.145813,4.26658 1.721368,-0.1624 3.095576,-1.35149 4.47919,-2.25911 z m -16.063537,-4.55229 c 0.256688,-1.88183 0.256459,1.88165 0,0 z m -4.844668,2.63954 c -1.055973,-0.34904 -1.273195,1.96474 -0.150778,0.36485 z m 72.087735,-0.82428 c -1.04929,-0.40119 -0.11111,0.7668 0,0 z m -2.09802,-1.1301 c 3.69076,0.25026 10.46874,-3.83166 10.04417,-6.26164 -3.06523,1.15455 -8.80681,3.64635 -5.12377,0.97722 -3.86419,-0.18989 -10.02617,0.1808 -8.27525,5.61444 1.11979,-0.0945 2.23713,-0.21454 3.35485,-0.33002 z m -64.465761,-4.38293 c 4.391516,-1.65463 2.743114,-9.42658 3.79824,-11.99515 -4.983221,3.64405 -8.065333,9.66983 -8.855112,15.70512 1.655409,-1.23909 3.054115,-2.91613 5.056872,-3.70997 z m 91.653511,-3.31504 c -0.60182,-1.34654 -0.12108,-8.99277 -1.99677,-5.69053 -0.39341,2.22297 -7.621,5.20269 -5.08816,6.17447 2.54166,-0.003 6.09141,1.7862 7.31794,2.70896 10e-4,-1.06903 -0.12735,-2.13114 -0.23301,-3.1929 z m -82.252864,1.82229 c 1.139833,-2.37275 7.085692,-4.58379 6.284215,-6.3141 -2.619424,-1.98297 -6.609618,-2.44047 -9.902099,-1.51346 -0.424577,-3.36636 7.277857,-4.58225 8.924436,-6.09913 -2.895715,-1.23989 -2.977972,-7.92536 -4.692518,-7.39183 -4.515355,6.32561 -6.549767,14.04322 -7.06807,21.70077 2.135167,0.0413 4.576991,0.9385 6.454036,-0.38225 z m 73.639694,-4.59753 c 3.11033,-5.99396 2.64398,-12.9393 1.1153,-19.29544 -1.35398,3.17189 -4.45345,6.49572 -5.21779,9.45869 2.08792,1.96169 2.24719,11.1514 4.10249,9.83675 z m -82.51291,-6.45696 c 2.324242,-1.44229 5.928429,-1.39732 2.497995,-4.02306 -2.066469,-2.68114 -3.165233,-8.88832 -4.789901,-2.77806 -0.902655,2.7863 -3.626189,9.30544 -2.742463,10.56278 1.513365,-1.45563 3.131043,-2.83205 5.034369,-3.76166 z m 56.28921,-1.28362 c 3.71871,-3.89429 4.72783,-10.28862 2.33071,-15.1461 -0.49749,5.26905 -6.8181,8.15056 -5.88799,13.61447 1.17617,0.2571 2.69231,3.72033 3.55728,1.53163 z m -47.288514,-9.18977 c 2.209542,-2.3753 -0.721038,-8.01034 -2.776064,-8.51193 -2.378245,4.4654 -3.098643,10.24888 -1.472823,15.18161 1.089837,-0.001 2.336573,-4.43395 3.673572,-5.79417 z m 42.777784,4.06809 c 0.0795,-5.02053 -6.1253,-8.80709 -4.18227,-14.33813 0.10885,-4.46074 0.0989,-10.49343 -4.05422,-13.12733 -1.86349,-1.36152 -1.75616,8.25413 -4.07175,8.76182 -3.08707,1.17396 -6.736498,7.78646 -3.491608,11.6366 3.561388,1.32004 1.096154,7.40371 4.069398,7.25348 3.9248,-0.89196 9.53909,2.64457 11.70533,1.86085 l 0.0184,-0.91965 0.007,-1.12764 z m -4.79064,0.0162 c 0.43714,-0.61051 0.43714,0.61052 0,0 z m -43.603994,-2.2975 c -0.669755,-2.46945 1.489194,-8.66132 0.414804,-8.81405 -1.516736,2.42376 -4.918257,4.96487 -3.186471,8.0729 0.52316,2.30592 3.620156,8.43563 2.761961,2.62386 l 0.0047,-0.90856 0.005,-0.97415 z m 60.268704,-1.4076 c 4.92616,-1.74489 9.51184,1.75208 12.93626,-0.92366 3.10404,-1.50971 7.34578,-4.82015 1.61863,-6.27846 -4.97671,-4.07725 -11.80235,-1.23699 -17.20085,-3.90437 -2.01197,-2.37114 -3.16464,-6.27458 -4.29366,-7.02367 -2.3958,-2.96245 -6.35849,-5.96669 -10.4182,-7.12918 -4.68735,-0.60531 2.5534,5.06528 1.87475,7.71019 0.80214,3.38117 -0.1717,6.92812 0.0154,10.28784 1.56488,2.60732 3.58361,8.05182 5.66397,8.10727 3.14919,-2.25912 3.0153,-7.46455 4.5565,-9.65719 2.55076,3.10913 2.36721,7.17423 2.44143,10.94192 0.85059,-0.81289 1.74748,-1.59622 2.80572,-2.13069 z m 9.34163,-1.05993 c 0.43714,-0.61052 0.43714,0.61051 0,0 z m -0.54596,-1.24386 c -0.1572,-0.91771 1.21451,1.29462 0,0 z m -20.32755,-0.11759 c 0.43714,-0.61052 0.43714,0.61052 0,0 z m 17.50336,-2.58766 c -2.27604,-1.94621 -2.10535,-2.70483 0.0666,-0.43498 1.85966,1.7136 3.48856,3.89537 -0.0666,0.43498 z m -3.64472,-3.22695 c -3.31586,-2.89145 3.54072,2.37198 0,0 z m -35.981271,5.40329 c 0.647772,-3.35127 -9.303119,-7.38149 -2.288875,-7.41204 2.361583,-0.49438 4.502217,2.31128 6.275466,2.16442 -0.161381,-3.64667 2.831122,-6.22638 5.30392,-8.49775 -8.479266,0.19106 -16.492734,3.83809 -23.079017,8.9954 2.356766,2.15893 4.529855,7.44044 8.259055,5.42283 2.049913,-1.6713 7.570724,4.37888 5.529451,-0.67286 z m -2.058684,-7.8141 c 1.049288,-0.40119 0.111067,0.7668 0,0 z m -2.338292,9.07633 c 1.16885,-1.37161 -3.157685,1.01803 0,0 z m 2.452348,-5.67271 c -0.697583,0.10271 0.301794,0.92862 0,0 z m -8.548399,-3.22469 c 0.87182,-1.47525 7.414829,-3.04973 4.938971,-4.09663 -5.145007,-1.90859 -11.115175,-1.24859 -15.846347,1.47278 3.037913,0.86201 5.255909,3.87086 7.998773,4.60371 0.966439,-0.66443 1.938156,-1.32125 2.908603,-1.97986 z m 47.420028,0.14876 c -3.22208,-0.28673 -1.0512,0.49055 0,0 z m -36.191147,-5.54893 c 3.909875,-1.59121 11.090457,0.60021 10.371687,-5.9227 1.65473,-7.25845 -5.465819,-1.22559 -8.00142,0.77574 -1.310862,1.30335 -9.24285,8.23708 -2.370267,5.14696 z m 27.546177,-0.84853 c -0.43714,-0.61052 -0.43714,0.61051 0,0 z m -14.62856,88.08925 c 2.7612,-0.24198 0.34585,0.51816 0,0 z m -6.330492,-0.33115 c 2.129382,-0.33762 0.0265,0.58891 0,0 z m -4.02071,-0.45241 c -5.542022,-1.22947 0.777934,-0.77527 1.882037,0.28595 l -0.976305,-0.0848 z m -7.357057,-2.16107 c -2.050274,-0.60843 -6.724385,-3.25241 -2.00793,-1.30329 1.093186,0.35721 5.715898,2.41816 2.00793,1.30329 z M 59.95809,202.70434 c 0.437137,-0.61052 0.437137,0.61051 0,0 z m -0.545958,-0.9035 c -0.157197,-0.91771 1.214489,1.29463 0,0 z m -0.822797,-1.13867 c 0.437137,-0.61052 0.437137,0.61051 0,0 z m -0.684377,-1.19127 c -0.839045,-2.41582 1.626947,2.4425 0,0 z m -1.026566,-1.53163 c 0.437136,-0.61051 0.437136,0.61052 0,0 z m -0.342189,-0.68072 c 0.437137,-0.61052 0.437137,0.61052 0,0 z m -0.684377,-1.36145 c 0.437136,-0.61051 0.437136,0.61052 0,0 z m -1.026566,-2.38253 c 0.437136,-0.61052 0.437136,0.61052 0,0 z m -1.368755,-3.40362 c 0.437137,-0.61051 0.437137,0.61052 0,0 z M 131.6305,138.15166 c -3.17752,-2.81804 1.60658,0.40513 1.31256,1.296 -0.47461,-0.39387 -0.88203,-0.85736 -1.31256,-1.296 z m -2.20813,-1.81787 c 0.43714,-0.61052 0.43714,0.61052 0,0 z m -2.39532,-1.70181 c 0.43714,-0.61051 0.43714,0.61052 0,0 z m -1.23033,-0.9035 c -0.13168,-0.89918 1.14297,1.26324 0,0 z m -2.53374,-1.47903 c 0.43713,-0.61052 0.43713,0.61052 0,0 z"
       id="path2"
       sodipodi:nodetypes="ccccccccccccccccccccccccccccccccccccccccccccccccccccccccccccccccccccccccccccccccccccccccccccccccccccccccccccccccccccccccccccccccccccccsccccccccccccssccccccccccccccccccccccccccccccccccccccccccccccccccccccccccscccccccccssccccccccccccccccccccccccccccsccccccccccccccccccssccccccccccccccccccccccccccccccccccccccccccccccccccccccccccscccccssccccccccccssccccccccccccccccccccccccccccccccccccccccccccccccccccccccccccccccccccccccccccc" /><rect
       style="fill:none;stroke-width:0.264583"
       id="rect3"
       width="100"
       height="10"
       x="40.399494"
       y="118.09084" /><rect
       style="fill:none;stroke:#ff0000;stroke-width:1.665;stroke-dasharray:none;stroke-opacity:1"
       id="rect4"
       width="100"
       height="100"
       x="48.945545"
       y="123.52923" /></g></svg>
