<?xml version="1.0" encoding="UTF-8" standalone="no"?>
<!-- Created with Inkscape (http://www.inkscape.org/) -->

<svg
   width="100.00001mm"
   height="100.00001mm"
   viewBox="0 0 100.00001 100"
   version="1.1"
   id="svg1"
   xml:space="preserve"
   inkscape:version="1.3.2 (091e20e, 2023-11-25, custom)"
   sodipodi:docname="dessin tp diy.svg"
   xmlns:inkscape="http://www.inkscape.org/namespaces/inkscape"
   xmlns:sodipodi="http://sodipodi.sourceforge.net/DTD/sodipodi-0.dtd"
   xmlns:xlink="http://www.w3.org/1999/xlink"
   xmlns="http://www.w3.org/2000/svg"
   xmlns:svg="http://www.w3.org/2000/svg"><sodipodi:namedview
     id="namedview1"
     pagecolor="#ffffff"
     bordercolor="#000000"
     borderopacity="0.25"
     inkscape:showpageshadow="2"
     inkscape:pageopacity="0.0"
     inkscape:pagecheckerboard="0"
     inkscape:deskcolor="#d1d1d1"
     inkscape:document-units="mm"
     inkscape:zoom="0.97890839"
     inkscape:cx="136.3764"
     inkscape:cy="211.97081"
     inkscape:window-width="1920"
     inkscape:window-height="991"
     inkscape:window-x="-9"
     inkscape:window-y="-9"
     inkscape:window-maximized="1"
     inkscape:current-layer="layer1" /><defs
     id="defs1"><linearGradient
       id="swatch9"><stop
         style="stop-color:#e50d0d;stop-opacity:1;"
         offset="0"
         id="stop10" /></linearGradient><clipPath
       clipPathUnits="userSpaceOnUse"
       id="clipPath2"><rect
         style="fill:#000000;stroke-width:0.264583"
         id="rect2"
         width="100.14672"
         height="99.764473"
         x="54.851353"
         y="104.35135" /></clipPath><linearGradient
       inkscape:collect="always"
       xlink:href="#swatch9"
       id="linearGradient10"
       x1="29.598953"
       y1="104.46479"
       x2="151.49136"
       y2="104.46479"
       gradientUnits="userSpaceOnUse"
       gradientTransform="matrix(0.79723392,0,0,0.96181022,16.894723,1.5787206)" /><clipPath
       clipPathUnits="userSpaceOnUse"
       id="clipPath10"><rect
         style="opacity:1;fill:#008000;stroke-width:3.46501;stroke-dasharray:none"
         id="rect11"
         width="81.896065"
         height="97.572548"
         x="55.567719"
         y="53.408394" /></clipPath></defs><g
     inkscape:label="Calque 1"
     inkscape:groupmode="layer"
     id="layer1"
     style="display:inline"
     transform="translate(-39.080391,-52.054024)"><path
       style="fill:#000000"
       d="m 88.447229,150.20782 8e-6,2.9e-4 z m -2.240379,-9.85528 c 0.990899,-0.73307 0.599928,-0.15517 2.362906,-0.79285 1.333921,0.17408 3.360822,-2.32946 4.898082,-1.98521 -0.44344,0.60635 -2.420525,0.80845 -3.364044,1.71963 -1.150082,0.70249 -2.573273,0.84339 -3.896944,1.05843 z m 5.241643,-1.98663 c -0.102105,-0.3103 -0.208577,0.30239 0,0 z m 1.690845,-0.62611 c 0.0291,-0.3215 -0.5317,0.007 0,0 z m -11.451056,2.41555 c -1.60249,-0.24025 -4.781805,-1.78356 -6.593335,-2.37449 -2.657724,-1.34626 -4.498217,-4.46235 -6.229728,-6.18364 -0.0175,-1.458 -0.933073,-0.96453 -1.952161,-3.00153 -0.478363,-1.56312 -2.669163,-3.33992 -2.044859,-4.702 1.012284,2.40716 3.020738,5.46678 4.310322,6.85113 0.06472,2.08024 2.99827,3.21284 4.156791,4.71485 1.443698,0.71986 3.838818,3.35653 1.051616,-0.2911 0.480413,1.43867 4.514914,3.37886 4.042077,3.48607 -1.406621,-0.0561 3.750986,1.41557 5.157102,1.13617 1.913026,0.2556 1.216169,0.31075 -0.373406,0.29746 -0.855705,-0.007 -0.404039,-0.18537 -1.524419,0.0671 z m 0.375979,-0.0447 c -0.196923,-0.29139 -0.243778,0.16156 0,0 z m -0.591798,-0.1119 c -0.722854,-0.65861 -0.281467,0.18715 0,0 z m -4.227132,-1.34085 c -0.09777,-0.29837 -0.225841,0.27766 0,0 z m -0.678036,-1.10031 c -0.482513,-0.32476 0.28552,0.42251 0,0 z m -1.557366,-0.17038 c -0.940651,-0.38236 0.542443,0.41927 0,0 z m -0.765861,-0.71761 c -0.981476,-1.27883 0.336969,0.74516 0,0 z m -0.08454,-0.42539 c -0.102105,-0.3103 -0.208577,0.30239 0,0 z m -0.634069,-0.16973 c -0.275719,-0.61946 -0.492287,0.0983 0,0 z m -0.390456,-0.30144 c -0.262206,-0.98382 -0.233788,0.57923 0,0 z m -0.708598,-0.83012 c -0.293903,-0.4118 -0.08509,0.42158 0,0 z m -0.280419,-0.41195 c -0.162837,0.0371 0.121319,0.37195 0,0 z m -0.480465,-0.10638 c -0.196923,-0.29139 -0.243778,0.16156 0,0 z m -3.973504,-5.52634 c -0.09777,-0.29837 -0.225841,0.27766 0,0 z m -1.928413,-3.00905 c -0.428064,-0.60559 0.260663,0.8971 0,0 z m -0.634656,-0.77842 c -0.162837,0.0371 0.121319,0.37195 0,0 z m 20.232479,14.87396 c 0.323009,-0.39507 0.351095,0.14306 0,0 z m -6.042174,-0.93569 c -0.613242,-0.1082 0.353397,-0.57386 0,0 z m 14.280625,-1.77921 c 0.47075,-1.01299 0.0127,-0.15854 0,0 z m 0.55399,-0.50641 c 0.13851,-0.39583 0.29396,0.146 0,0 z m 3.84669,-3.15019 c 0.10215,-0.31028 0.20852,0.30238 0,0 z m 0.25131,-0.3432 c 0.29939,-0.27675 0.46826,0.14699 0,0 z m 0.26977,-0.3725 c 0.27774,-0.39883 0.28838,0.41815 0,0 z m 0.57794,-0.47247 c 0.10215,-0.31028 0.20852,0.30238 0,0 z m 0.30801,-0.16041 c -0.0888,-0.89235 0.39415,-0.0428 0,0 z m 0.32608,-0.55513 c 0.11795,-0.54536 0.20004,0.45263 0,0 z m 0.704512,-0.33641 c 0.11139,-0.30135 0.33727,0.30321 0,0 z m -0.40814,-0.13591 c 0.59714,-0.5214 -0.403582,0.57193 0,0 z m 0.39888,-0.18417 c 0.10681,-1.0822 0.34841,0.37556 0,0 z m 0.32593,-0.11942 c 0.1225,-0.22604 0.0366,0.36612 0,0 z m 0.24084,-0.21656 c -0.45658,-0.53299 0.89222,-0.58231 0,0 z m -18.720075,-0.20901 c -5.427605,-1.32694 -9.025881,-5.69908 -11.081664,-10.68542 -1.803058,-5.44483 -1.310761,-11.57887 0.985034,-16.76113 2.276846,-2.67595 5.18725,-6.841802 9.262024,-8.175902 3.874978,-1.83241 9.094433,-1.71984 12.626669,0.17759 2.04466,0.49079 6.672032,2.39984 4.02839,4.92221 -1.86385,4.159172 -3.12415,4.205442 -0.4224,-0.22218 2.525222,-1.82385 -0.77409,-3.29163 -2.06102,-3.84322 -4.624256,-2.1841 -8.314736,-2.17093 -12.31778,-1.25664 -7.00445,2.23905 -12.091137,9.011862 -12.646686,16.118102 -0.864159,3.59122 0.781075,10.07342 2.201344,11.31996 2.006613,6.02534 8.341666,7.68822 14.026513,7.26845 5.571249,-0.53911 -1.946298,-0.22867 2.880901,-0.80681 4.917138,-0.89385 9.526468,-6.13047 3.970018,-9.62942 -2.020439,1.91548 -4.730658,3.25595 -7.58588,3.69814 8.4508,-1.49889 -3.064074,1.62173 -3.327174,-0.52393 4.60343,3.83697 9.899384,-6.94719 12.288714,-1.75231 1.5473,2.51605 3.11147,2.08051 1.43328,4.09204 -2.37321,3.44409 -7.637481,5.51629 -11.999297,5.53347 -7.016313,-1.20952 -0.952417,0.55342 0.614271,0.62925 -0.935205,-0.0823 -1.976527,0.33471 -2.875257,-0.10225 z m 3.050449,-0.79843 c -1.017056,-0.59454 -6.073282,-0.21832 -0.401568,0.0301 l 0.401577,-0.0301 z m 0.584884,-0.0849 c -0.102105,-0.3103 -0.208577,0.30239 0,0 z m 6.12379,0.81684 c 0.76421,-0.50957 -0.209147,0.53085 0,0 z m 9.739462,-0.70037 c 0.98533,-1.02145 0.24397,0.12732 0,0 z m 0.66612,-0.73202 c 0.21106,-0.3116 0.0662,0.61362 0,0 z m -15.794496,0.0455 c -0.436695,-0.65353 1.701634,0.29772 0,0 z m 16.266516,-0.24566 c 0.56582,-2.08255 0.24965,0.0466 0,0 z m 0.73846,-1.11109 c 0.44884,-0.18255 0.0342,0.35127 0,0 z m 0.22989,-0.37366 c 0.61554,-0.81663 -0.12878,0.66723 0,0 z m -23.591827,-0.45843 c 0.323929,-0.45659 0.323929,0.45659 0,0 z m 24.179187,-0.0424 c 0.1929,-0.59098 0.0598,0.5907 0,0 z m 0.21135,0 c 0.20852,-0.30238 0.10215,0.31028 0,0 z m -0.079,-0.39792 c 0.48596,-1.44895 0.32235,0.34496 0,0 z m 0.60737,0.007 c 0.27733,-0.95825 0.42031,0.0199 0,0 z m -0.10474,-0.3733 c 0.11206,-0.94713 0.90897,-1.58616 0,0 z m 0.63313,-0.003 c -0.0719,-0.52392 0.4692,0.0934 0,0 z m 0.22488,-0.54415 c 0.68443,-0.81085 0.50526,0.09 0,0 z m -0.17891,-0.8531 c 0.36208,-1.07328 0.11147,1.05021 0,0 z m 0.54712,0.16641 c 0.18488,-0.99638 0.1942,0.56007 0,0 z m 0.42142,-0.38379 c 2.24956,-4.07735 4.56673,-9.15353 5.57986,-13.66643 0.30813,1.55896 -1.16604,4.58577 -1.56786,6.28806 -1.08355,2.33339 -1.7385,3.49684 -2.81784,5.62725 -0.65161,0.34151 -0.46321,1.65384 -1.19416,1.75112 z m 0.33817,-0.35061 c -0.57729,-0.0724 0.002,0.34091 0,0 z m -42.757357,-0.20534 c -2.653906,-5.54196 -3.550439,-11.46516 -4.318895,-17.50917 -0.907124,-0.70574 -0.55746,-5.00911 -0.343611,-7.941772 1.140051,-4.91225 2.108155,-9.30702 2.556629,-14.53283 0.397139,-3.56961 1.646742,-5.31962 2.079437,-8.62935 0.279391,-3.31357 1.752164,-7.78623 0.482035,-1.69634 -0.338201,2.55951 -0.370524,3.82601 -1.131962,6.1166 -0.966176,4.1824 -0.248796,8.80898 -2.230244,12.62805 -0.934844,4.28038 -1.978059,9.317312 -0.916896,13.942782 0.680439,4.47417 1.119018,9.59339 2.556446,13.21788 0.03057,1.40768 1.876735,3.7923 1.267061,4.40415 z m -4.511969,-18.98002 c 0.01119,-0.92203 -0.223099,0.93268 0,0 z m 37.178184,18.73606 c 0.0729,-0.44818 0.20078,0.44525 0,0 z m -13.32716,-0.45559 c -4.755627,1.04559 -6.462943,-10.92732 -5.988525,-6.41314 0.327272,4.03462 -1.334198,-6.18577 0.910404,-7.70221 0.918927,-3.44608 4.859629,-5.29887 3.681925,-5.24464 3.533006,-2.46123 8.081098,-2.13729 11.794926,-1.31866 3.93316,1.65125 -6.268322,-1.09232 -5.977566,-0.34395 -3.938144,0.51565 -8.769875,3.84182 -9.583771,8.92667 -1.344177,5.02503 0.715516,10.17009 4.782167,11.70504 1.213718,-0.56889 0.652467,0.78804 0.38044,0.39089 z m -5.714821,-11.10065 c 0.47732,-1.42898 -0.64039,1.09966 0,0 z m 1.275735,-4.10067 c -0.127418,-0.18145 -0.217225,0.32985 0,0 z m 0.443014,-0.73085 c -0.91281,0.63995 0.09367,0.3281 0,0 z m 5.348754,-4.39026 c 0.820266,-0.59507 -2.039089,0.72334 0,0 z m -0.929969,13.73963 c 0.16039,-0.42718 0.262473,0.30761 0,0 z m -5.326185,-2.08924 c 0.243778,-0.16156 0.196923,0.29139 0,0 z m -15.479394,-1.32021 c 0.171021,-0.43953 0.402881,0.48853 0,0 z m 49.342188,-2.91247 c 0.0396,-1.47764 0.55456,-0.9078 0,0 z m 0.20788,-1.34435 c 0.15583,-0.76555 0.12327,0.51293 0,0 z m 0.17576,-0.99851 c 1.0368,-3.37881 0.68083,-10.928762 1.24567,-11.147142 0.009,3.721442 -0.30734,7.227112 -1.24567,11.147142 z m -29.173877,-1.14231 c 0.208577,-0.30239 0.102105,0.3103 0,0 z m 4.311705,-4.32319 c 0.16039,-0.42718 0.262473,0.30761 0,0 z m 25.245012,-0.39385 c -0.24822,-3.733232 0.46142,-1.86334 -4e-4,0 z m 0.23888,-2.205362 c -0.87064,-3.48016 0.77305,-11.19272 -0.46374,-10.89148 -0.23004,-5.6161 -0.86532,-10.26118 -0.83791,-15.94802 -0.48841,-3.30249 -0.77262,-8.54047 0.0416,-2.22151 0.48051,8.49554 1.83341,17.20726 1.40367,25.55081 -0.44557,0.45075 0.11999,4.247042 -0.14366,3.5102 z m 0.20073,-3.90033 c -0.29817,0.0125 0.0876,0.35386 0,0 z m -0.20553,-7.91156 c -0.25652,-2.02679 -0.001,1.78958 0,0 z m -0.52298,-6.68324 c -0.17142,-1.0437 -0.0538,1.04229 0,0 z m -0.36545,-2.84608 c -0.2022,-1.68002 -0.1514,1.92254 0,0 z m -0.10186,-1.2063 c -0.14785,0.0849 0.1372,0.46738 0,0 z m -48.799361,21.14559 c -0.0467,-0.52594 0.302384,0.33179 0,0 z m 0.154612,-0.5018 c 0.23632,-0.67039 0.195657,0.62265 0,0 z m 23.939613,-0.89578 c -0.43272,-0.3411 0.69555,0.36382 0,0 z m 26.172206,-0.93593 c 0.16946,-1.54803 0.11442,1.07856 0,0 z m -0.0592,-0.83125 c -0.0856,-0.77909 0.0212,0.48423 0,0 z m -4.84671,-3.00944 c -1.76943,-2.09259 -9.255192,-9.199 -3.04237,-3.71694 0.71941,0.58017 4.11078,4.57338 3.04237,3.71694 z m -3.56381,-3.98117 c -2.6468,-2.98045 -0.84839,-0.26524 0,0 z m 4.04003,3.0351 c 1.11157,-3.62879 1.37918,-9.28685 0.39884,-2.31488 0.14128,-1.57977 0.79284,-8.08741 0.42094,-8.72947 0.18886,-5.60596 0.84378,7.57107 -0.10667,9.51558 -0.0333,0.20532 -0.93124,2.65809 -0.71311,1.52877 z m 3.67421,-0.47496 c 0.1225,-0.22604 0.0366,0.36612 0,0 z m -3.64201,-1.31337 c 0.2437,-0.16155 0.19679,0.29137 0,0 z m -34.155234,-0.55163 c 0.262803,-0.30788 0.160052,0.4273 0,0 z m -10.035438,-0.0941 c 3.948613,-2.77711 8.83565,-3.72532 4.793789,-8.97811 -1.046789,-3.02621 -3.863092,-8.37553 -3.618666,-2.16367 -0.753047,3.69059 -0.261496,7.38186 -2.017141,9.90412 1.761174,-3.22238 0.458808,-14.17283 3.184107,-13.45741 1.042761,3.36522 7.69854,10.74333 2.789908,11.90525 4.244639,-1.4952 -3.759079,2.16922 -4.962628,2.91651 l -0.169337,-0.12661 z m 3.187485,-1.8104 c 0.209608,-0.33407 -0.619436,0.3556 0,0 z m 0.845426,-0.41019 c -0.331645,-0.25977 -0.331645,0.25977 0,0 z m 0.631745,-0.32261 c 0.601512,-0.54638 -1.663847,0.78421 0,0 z m -4.236954,-4.48649 c -0.02639,-1.51199 -0.326197,2.27504 0,0 z m 0.113006,-1.038 c -0.140225,0.10876 0.125199,0.55932 0,0 z m -0.936391,7.89383 c 2.281803,-2.42014 5.71607,-3.5013 0.923572,-0.61731 l -0.521033,0.3863 z m 8.296554,-1.77988 c 0.512105,-0.95799 0.703583,0.0588 0,0 z m -4.565437,-1.18816 c -0.54884,-0.51686 0.639794,0.18915 0,0 z m 34.041408,-0.47338 c 1.06054,-4.34137 3.69349,-8.30431 6.80178,-11.3049 -1.95058,2.86082 -4.56453,5.55844 -5.74784,8.85431 1.24346,-2.74048 4.90499,-7.28539 1.50277,-2.04584 -0.73846,1.05131 -2.40995,4.84261 -2.55671,4.49643 z m 0.92743,-2.05212 c 0.27999,-0.85114 -0.50131,0.71568 0,0 z m -39.428461,2.15967 c 0.21594,-0.30451 0.21594,0.30451 0,0 z m 33.495499,-0.72613 c -4.23632,-1.25415 -4.05533,-0.9451 -4.58201,-1.43599 -5.952311,-2.31424 -12.940154,-1.21429 -18.759293,0.27946 -2.765842,-5.91113 -5.205525,-12.05244 -7.404149,-18.23281 1.996316,1.84573 1.682282,4.12714 3.90759,7.68598 1.196245,2.78884 1.10438,3.99874 2.540884,7.27969 0.258486,4.35112 3.558331,1.20236 6.288844,1.06923 7.322601,-1.29006 -4.315121,1.51199 1.843774,0.51002 2.571191,-0.27839 3.84725,-0.93938 6.053897,-0.41491 2.732742,-0.26951 7.937333,1.47413 9.519613,2.37825 -0.0222,1.99537 3.564192,-3.43284 4.759122,-5.71555 1.14282,-1.55637 3.79596,-5.46015 4.32097,-5.59712 -2.42986,3.54509 -5.75472,8.03034 -8.011962,12.30559 l -0.47745,-0.11085 z m -1.984,-1.19221 c -0.33499,-0.17823 -0.0785,0.19077 0,0 z m -1.07615,-0.45792 c -0.20852,-0.30238 -0.10215,0.31028 0,0 z m -2.11357,-0.0707 c -0.31368,-0.25551 -0.21168,0.2633 0,0 z m 1.35542,-0.17884 c -2.555634,-1.22873 -4.207942,-0.36464 0,0 z m -3.299899,-0.42937 c -0.146893,-0.34504 -0.293688,0.22776 0,0 z m 0.549527,-0.2546 c -0.233579,-0.33687 -0.172327,0.16313 0,0 z m -2.832178,-0.33946 c -0.58831,-0.22534 -0.03807,0.27784 0,0 z m -1.464015,-0.18565 c -0.162837,0.0371 0.121319,0.37195 0,0 z m -7.525684,-0.0228 c -0.07922,-0.28403 -0.178753,0.22889 0,0 z M 71.8346,75.089458 c -0.338922,-0.15078 -0.329962,0.27669 0,0 z m -2.302792,-5.12618 c -0.459602,-0.29703 0.317597,0.49519 0,0 z m -0.402572,-0.80039 c -0.196923,-0.29139 -0.243778,0.16156 0,0 z m 10.96056,15.18456 c 0.507548,-0.29522 0.564372,0.23773 0,0 z m 30.072734,-0.96381 c 0.22984,-1.68407 0.11679,0.80167 0,0 z m -24.716567,-0.17376 c -0.541424,-0.29975 2.254789,0.0614 0,0 z m 6.053064,-0.15387 c 0.0075,-0.42071 0.736151,-0.22757 0,0 z m 18.717923,-0.56907 c 0.14988,-0.57603 0.26136,0.45879 0,0 z m -20.390622,-0.19028 c 0.371123,-0.12094 0.03564,0.16393 0,0 z m 14.168702,-0.86354 c 0.69948,-0.46681 -0.4496,0.48062 0,0 z m -16.181873,-0.18175 c -0.171582,-0.23987 0.36853,0.11616 0,0 z m -2.241232,-0.0862 c -2.013332,-0.55384 0.514717,-0.20032 0,0 z m 1.945333,0.001 c 0.102105,-0.3103 0.208577,0.30239 0,0 z m -4.353946,-0.1742 c 1.537649,-0.64341 2.276823,0.5528 0,0 z m 26.943728,-0.61839 c -0.22102,-3.83725 0.14585,-7.48361 0.43667,-3.51433 -0.38038,-1.67249 -0.0478,3.77725 -0.43667,3.51433 z m -46.726703,-1.75339 c -0.166588,-0.96602 0.343813,0.2376 0,0 z m 43.711283,-0.89109 c 0.76099,-0.97898 0.40453,-0.0664 0,0 z m -34.785692,-1.24152 c -0.145717,-0.57966 0.495465,0.50848 0,0 z m -7.694832,-0.16938 c 0.854459,-2.78281 1.298876,-9.95672 2.112638,-9.19747 -0.732746,2.72771 -1.243047,7.28313 -2.112638,9.19747 z m 7.477132,-0.24901 c 0.243778,-0.16156 0.196923,0.29139 0,0 z m -14.541332,-0.12229 c 0.209531,-0.44708 0.209531,0.44708 0,0 z m 49.138214,-3.65445 c 1.08251,-1.34818 1.87371,-2.71367 2.26373,-2.78698 -0.79357,1.62428 -1.54161,1.92476 -2.26373,2.78698 z m 2.34953,-2.90073 c 2.1721,-3.36523 1.37611,-0.98154 0,0 z m -43.249391,-0.28393 c -0.02671,-0.57013 0.281375,0.3343 0,0 z M 139.04597,178.89528 c 0.15076,-0.72617 0.25258,0.6078 0,0 z M 116.05039,17.808601 c 0.26274,-0.307749 0.1599,0.427255 0,0 z"
       id="path6"
       sodipodi:nodetypes="ccccccccccccccsccccccccccsscccccccccccccccccccccccccccccccccccccccccccccccccccccccccccccccccccccccccccccccccscsscccccccccccccccccccccccccccccccccccccccccccccccccccccccccccccccccccccccccccccccccccccccccccccccccccccccccccccccccccccccccccccccccccccccccccccccccccccccccccccccccccccccccccccccccccccccccccccccccccccccccccccccccccccccccccccccccccccccccccccccccccccccccccccccccccc"
       clip-path="url(#clipPath10)" /><rect
       style="opacity:1;fill:none;stroke:url(#linearGradient10);stroke-width:3.03418;stroke-dasharray:none"
       id="rect6"
       width="96.965828"
       height="96.965828"
       x="40.597481"
       y="53.571114" /></g></svg>
