<?xml version="1.0" encoding="UTF-8" standalone="no"?>
<!-- Created with Inkscape (http://www.inkscape.org/) -->

<svg
   width="101.3mm"
   height="101.3mm"
   viewBox="0 0 101.29999 101.3"
   version="1.1"
   id="svg1"
   xml:space="preserve"
   sodipodi:docname="TP.svg"
   inkscape:version="1.3.2 (091e20e, 2023-11-25)"
   xmlns:inkscape="http://www.inkscape.org/namespaces/inkscape"
   xmlns:sodipodi="http://sodipodi.sourceforge.net/DTD/sodipodi-0.dtd"
   xmlns="http://www.w3.org/2000/svg"
   xmlns:svg="http://www.w3.org/2000/svg"><sodipodi:namedview
     id="namedview1"
     pagecolor="#ffffff"
     bordercolor="#000000"
     borderopacity="0.25"
     inkscape:showpageshadow="2"
     inkscape:pageopacity="0.0"
     inkscape:pagecheckerboard="0"
     inkscape:deskcolor="#d1d1d1"
     inkscape:document-units="mm"
     inkscape:zoom="0.2218035"
     inkscape:cx="191.61105"
     inkscape:cy="-47.3392"
     inkscape:window-width="1440"
     inkscape:window-height="900"
     inkscape:window-x="0"
     inkscape:window-y="0"
     inkscape:window-maximized="0"
     inkscape:current-layer="g1"><inkscape:page
       x="0"
       y="0"
       width="101.29999"
       height="101.3"
       id="page1"
       margin="0"
       bleed="0" /><inkscape:page
       x="171.5974"
       y="-175.03799"
       width="215.89999"
       height="279.40002"
       id="page2"
       margin="0"
       bleed="0" /></sodipodi:namedview><defs
     id="defs1"><clipPath
       clipPathUnits="userSpaceOnUse"
       id="clipPath2"><rect
         style="fill:#000000"
         id="rect3"
         width="365.60852"
         height="362.85266"
         x="-647.77325"
         y="482.27252" /></clipPath></defs><g
     inkscape:label="Calque 1"
     inkscape:groupmode="layer"
     id="layer1"
     transform="translate(-48.402594,-175.03799)" /><g
     id="g1"
     inkscape:groupmode="layer"
     inkscape:label="1"
     transform="matrix(0.26458333,0,0,0.26458334,171.59741,-175.03799)"><path
       style="fill:#000000"
       d="m -376.55212,1009.1462 c -14.99073,-3.6038 -30.31082,-4.7313 -45.74542,-4.2988 -4.04809,-2.6745 -21.72389,-2.5761 -17.0485,-4.3777 9.26005,-2.01421 16.2505,5.0686 25.86443,2.9783 15.89042,-2.3131 31.14694,6.247 46.77137,3.1094 14.61971,-9.57671 -13.35505,-23.19502 -17.61678,-35.73087 -7.03351,-16.2832 9.97292,11.66524 14.25195,16.36496 12.17677,6.4165 14.61455,22.46481 -1.73665,21.80481 l -1.75575,0.262 -2.98465,-0.1123 z m -166.82282,-2.5959 c 0.54718,-11.49991 17.32937,-18.26971 22.20526,-29.377 11.61492,-6.75791 3.66723,-21.81603 5.67792,-33.57785 0.91139,-13.37341 -3.34609,-26.25618 0.41062,-39.03528 -14.41431,0.31451 -31.3344,-2.31315 -43.95752,-6.12276 5.07076,-9.51736 -0.40421,-34.37951 -9.88106,-14.76479 -5.30772,14.47389 -5.34251,11.78079 -16.14467,6.31154 -7.10461,-5.9616 -30.07014,-11.98596 -21.07238,4.1114 6.40299,6.86634 31.02724,4.9986 12.55054,13.82313 -18.69595,13.63638 7.10289,31.93531 17.24632,12.71634 9.7067,-15.99494 33.77979,-6.11865 50.09663,-7.41792 19.54666,7.11841 -18.7788,-3.39752 -25.47455,0.87745 -15.42743,-4.75597 -22.12144,6.53661 -32.5525,15.24359 -16.92567,6.79245 -23.8704,-16.55999 -8.58528,-24.66401 7.35156,-5.82924 -30.53198,-8.44695 -13.80144,-22.0931 14.59786,-3.92605 34.17418,22.17505 39.04298,-2.92109 11.30919,-16.11073 12.01558,13.57152 11.61656,17.89505 5.3776,2.95691 24.10505,4.74162 35.64915,6.10282 11.50415,1.94196 4.36567,-22.87003 6.75053,-25.94478 -3.14715,-2.60441 -24.46169,-2.59516 -33.98064,-6.94922 -11.35561,-6.13689 20.29902,6.3569 26.46029,4.10445 8.24379,0.52025 38.49125,3.29454 35.2627,4.06879 -11.94256,0.88557 -32.44969,-10.06441 -27.26223,11.16731 -1.11633,15.31612 -3.04277,28.76948 -1.16787,43.96485 2.64446,13.53347 -8.70165,45.72112 16.50093,36.18966 14.00115,1.2527 28.22858,3.81438 41.69151,7.72154 6.65031,7.06902 14.61191,0.86578 13.70011,5.88536 12.71368,-4.01285 23.74886,-11.73246 36.46301,-15.91459 5.96946,-1.22557 26.12545,-10.3065 9.77184,-1.7169 -15.78104,3.5823 -29.11595,12.99307 -44.03663,18.72166 11.67136,2.54324 -14.3281,-1.93118 -5.33448,10.67004 3.38744,12.06481 -20.09731,7.63971 -28.33914,8.01581 -18.06243,-0.6628 -36.14838,3.9052 -54.29116,1.5268 -5.11399,-0.996 -10.48234,2.9795 -15.21535,1.3817 z m 3.362,-1.3676 c 19.09874,-2.7923 38.66945,0.5229 57.91457,-2.8231 11.39231,-0.2099 27.59353,3.367 36.12764,-3.05941 2.05186,-13.91041 -6.32153,-21.82199 -20.53468,-23.18291 -14.92781,-2.28541 -29.50843,-6.26506 -44.74998,-4.13812 1.30541,3.71284 -9.44817,-0.64811 -12.13673,10.34983 -2.04603,6.2917 -23.28451,19.97071 -16.62082,22.85371 z m 209.79352,-14.26901 c -10.89515,-11.92837 -22.39485,-24.69509 -26.72691,-40.51928 2.91355,-13.03557 -19.07323,-22.1929 -26.70923,-25.51457 -1.88813,9.84481 -0.71847,33.99451 -3.89942,36.94756 0.0307,-17.02616 2.53536,-33.99484 3.21582,-50.92569 -5.28318,-11.97254 3.51973,-41.16198 -15.79877,-38.29736 -24.78735,0.78836 -49.32276,7.42699 -74.38806,4.84475 -18.14589,-0.32766 2.80776,-0.99534 11.13299,-0.66401 24.61224,1.22469 48.45184,-6.89406 73.0048,-5.84741 14.86576,0.3979 30.45182,-3.56765 44.82714,-8.40592 7.78681,-4.79381 16.10826,-8.82338 18.96235,-17.20891 3.24987,-5.95323 -3.43353,16.81377 -5.11124,8.94451 -14.98725,14.9285 -38.03811,14.53736 -57.07413,20.13623 5.16141,15.86752 3.18764,36.62706 8.4642,49.86268 10.39379,10.06593 31.88819,12.13612 25.70432,29.62753 6.03056,13.90362 15.51282,24.68592 25.01078,35.37489 12.9952,-1.8083 -8.9699,-28.78475 6.74696,-12.71077 21.59035,16.98907 14.0595,-18.34031 1.62339,-24.18453 -14.95507,-3.28964 12.91371,-0.39143 5.57805,-7.94852 -4.66501,-7.15855 -17.69454,-8.70875 -20.75482,-8.38213 8.4793,-8.02567 35.01409,13.40292 16.51124,15.01699 6.64813,5.159 21.34078,30.38863 6.49629,30.94316 -9.38466,-5.36461 -12.03878,-6.05907 -10.95488,5.605 -0.2763,2.2162 -3.77359,5.0424 -5.86087,3.3058 z m -56.41251,-117.98883 c 10.64838,-1.28064 -9.65911,-0.43139 0,0 z m 6.97784,-1.54201 c -0.55016,-0.79342 -0.67138,0.44018 0,0 z M -474.933,972.65711 c 0.67136,-0.44021 0.55018,0.79344 0,0 z m 134.60144,-36.94398 c -13.22516,-11.92968 -25.46348,-25.58597 -41.01196,-34.30685 17.30794,7.24381 30.06902,22.68402 42.70919,35.62159 z m -106.27527,-3.10069 c -7.13829,-4.39916 -20.01845,-8.19357 -11.83255,-21.14746 -2.60357,8.27095 -17.58756,24.74385 -16.47998,3.74523 1.10067,-8.39228 -4.41246,-21.24268 -5.01435,-6.01904 5.55261,8.35998 -0.85096,27.85784 -7.07797,12.92696 3.09544,-10.77452 -0.37923,-29.01722 13.25277,-32.68814 6.20432,0.0612 1.5862,1.62393 6.2548,5.35318 4.09886,2.69855 11.68177,8.67768 15.79216,-0.28099 12.60696,-2.49426 5.85316,17.21636 18.0978,3.47838 7.25054,6.16731 22.96102,-11.62606 23.23444,3.391 -14.23618,-1.49427 -11.44079,9.5453 -1.25677,13.17042 -3.52738,-13.52089 13.25742,-22.4481 14.04872,-4.7729 0.38068,14.09317 -10.84808,20.60619 -17.95184,14.15476 -10.20858,-1.34518 -25.67497,3.11424 -30.2981,7.02767 -0.98157,0.93139 1.34979,1.4655 -0.76913,1.66093 z m -2.45865,-4.69511 c 0.0954,-4.4479 -8.45226,2.23195 0,0 z m 12.65281,-1.38515 c 6.6865,-0.70721 14.31277,-16.59107 3.80393,-12.21745 11.43849,10.63339 -16.20304,10.26963 -7.44325,-1.74823 1.28559,-6.51517 23.16821,-10.63135 7.47139,-13.7111 -11.43837,4.04826 -14.40945,18.36727 -11.86091,28.51461 2.6685,0.79496 5.51699,0.13859 8.02884,-0.83783 z m -43.78037,-0.81423 c -1.28149,-6.19223 -4.3668,-31.88442 5.76847,-23.90727 0.96179,9.14756 0.6105,32.71614 11.74345,14.04357 10.19767,-7.78997 -3.41917,-26.96231 -4.30625,-10.2068 -2.74861,21.14423 -5.0485,-2.10388 -2.55264,-10.23541 -4.45608,-7.58615 -10.59154,8.53432 -7.28171,-2.89762 -7.87882,6.70369 -4.83596,22.11351 -7.7925,27.27708 -2.00765,2.63437 1.21866,9.17675 4.42118,5.92645 z m 27.72927,-0.25081 c 6.7871,-5.46768 -12.63491,-31.12648 4.91275,-21.86788 -2.48085,-1.03837 -10.55614,0.86381 -3.38137,9.53803 5.79329,11.60468 -5.14732,-10.21006 4.32609,-4.78689 11.53484,-13.16287 -16.17613,-16.07346 -9.96313,2.4372 1.15939,4.89919 -7.47526,17.08827 4.10566,14.67954 z m 45.65402,-0.80564 c 13.70214,-5.40371 2.24164,-36.42087 -2.22927,-14.11878 0.84046,1.83703 -3.69076,19.39836 2.22927,14.11878 z m -63.20714,0.43136 c 0.79812,-1.84449 -2.36443,-0.16345 0,0 z m 47.75651,-1.74755 c 0.52493,-7.88305 -7.54646,0.15111 0,0 z m 5.88516,-1.04265 c 11.55831,-10.04536 -21.44357,-14.90291 0.0313,-22.57726 10.9251,-9.981 -23.42432,7.60357 -6.46788,12.78948 16.84183,1.43643 -8.12416,10.34634 6.43661,9.78778 z m -17.27493,-1.47902 c 5.86311,-5.25863 -11.75103,-6.49727 3.13773,-9.46589 5.97612,-8.06321 -14.75069,0.0231 -7.63932,7.93739 1.07443,1.25294 2.89458,2.19886 4.50159,1.5285 z m -4.99727,-3.01015 c 0.5766,-0.82156 0.28445,0.84376 0,0 z m 19.02067,-0.41002 c -0.98374,-8.10387 -10.09993,3.13365 0,0 z m -27.82497,-4.71163 c 2.80211,-3.58418 -2.06754,-1.01134 0,0 z m 5.5269,-8.952 c -0.50233,-0.97565 -0.94676,1.35681 0,0 z m -33.59343,-11.62273 c 9.61795,-1.34147 -2.30749,-0.28079 0,0 z m -22.94185,38.14851 c -12.09068,-7.20983 -3.22616,-28.39654 -4.20182,-39.49858 11.43421,-10.18494 28.16177,8.46044 10.68816,10.67542 -13.5253,1.45911 13.7547,6.95034 -1.67728,11.16168 -10.07842,4.82694 14.13728,1.47249 4.69066,13.9522 -1.55888,3.25654 -6.24504,4.17253 -9.49972,3.70928 z m 5.28428,-1.99959 c 7.78662,-6.55963 1.59431,-12.93377 -5.42035,-12.46935 -0.0693,-5.41367 15.84226,-7.0272 2.33649,-9.32687 -7.88768,-9.85771 19.12146,-4.72168 7.8504,-16.13225 -16.2632,-8.28581 -12.47469,14.75849 -13.39291,10.99566 1.14892,8.01044 -7.48387,32.184 8.62637,26.93281 z m 85.49762,-30.66516 c -10.59709,-8.14352 17.76983,-19.65438 9.2516,-3.08332 -2.56642,2.00549 -5.87627,3.75389 -9.2516,3.08332 z m 5.88809,-2.90236 c 11.37906,-11.28285 -14.26554,-5.48511 -2.61634,0.70566 l 2.61637,-0.70562 z m -41.42227,2.14016 c 0.59866,-0.82754 0.59866,0.82754 0,0 z m -25.97516,-4.13294 c 0.10446,-1.16549 0.94198,0.8166 0,0 z m 0.69231,-0.24642 c 0.293,-0.91108 0.8379,0.87941 0,0 z m -13.71372,-13.62069 c 2.59509,-0.26669 -1.42783,0.6789 0,0 z m -70.21132,-13.02564 c -9.33195,-7.94962 -4.25749,-30.15662 -19.66351,-26.2872 -11.78838,-10.71183 -8.53277,-29.54796 -10.71468,-44.08089 -0.55921,-14.99116 7.78176,-28.45049 8.67447,-43.2979 10.97921,4.4701 11.08645,30.32329 15.30674,33.94003 3.8857,-9.39701 5.96539,-26.77284 19.53665,-25.67571 18.39298,-0.91592 37.51759,-1.59038 55.91998,-3.63164 10.76647,-0.9733 25.81307,3.88227 24.58061,-12.32329 7.24892,-12.68943 -0.75523,-17.59054 -10.3759,-22.93168 -2.82268,-15.31679 16.02369,-28.00091 29.68919,-24.07372 21.17365,1.11738 12.23828,29.83567 -1.44038,32.78047 -5.87307,14.57106 1.77895,33.74628 19.38949,25.8122 23.59694,-1.10608 47.40414,-2.44461 70.97898,-1.04589 12.54104,1.88562 17.42249,4.52503 25.04965,14.14803 3.67975,9.16469 3.77523,22.12856 7.40251,5.94075 5.54836,-7.68507 8.67325,-32.05629 10.529,-10.89634 5.01722,20.01723 5.52921,41.65425 2.01193,61.7728 -8.4833,9.96974 -12.91139,-15.45264 -6.42593,-0.20561 12.91535,-4.96961 4.40202,-33.16882 5.63933,-46.92797 -2.81192,-8.43509 -2.01752,-25.71938 -6.48874,-11.76586 -5.09422,10.56454 -10.83679,21.51167 -4.92324,32.35385 1.50219,15.27721 -3.2903,30.54578 -6.31787,45.33548 0.36327,-17.61522 10.56923,-36.53075 2.21474,-54.28711 0.17059,-16.91773 -9.85482,-32.71454 -27.66496,-34.48818 -28.74294,-1.51445 -57.73309,-0.22914 -86.44299,2.19666 -11.57096,-4.18986 -8.00828,-20.57019 -6.04282,-30.2401 -17.66201,-5.66074 16.54041,2.97835 12.83533,-11.6499 7.28527,-24.42919 -32.43272,-22.10627 -37.65653,-3.72415 -9.26824,16.10602 17.90696,12.64639 12.01897,15.87233 2.13003,9.03671 -6.34109,23.53566 -3.41038,28.5523 -11.89415,0.34494 -23.63589,0.86713 -39.81715,1.77631 -17.10872,2.92563 -39.05258,-2.29179 -52.29805,10.48846 -6.51863,13.89575 -8.09358,19.45506 -7.95634,29.39954 -2.67879,13.54619 -2.18984,25.7138 -3.43998,38.34135 2.09901,0.2113 8.46576,-6.68241 0.9916,1.97718 -2.43668,8.23269 8.38744,20.80819 8.31028,26.8454 z m -12.91262,-26.98131 c 5.33088,-13.53837 4.54208,-35.48417 4.76549,-52.05318 -3.91719,-11.2459 -4.5117,-24.40007 -12.66845,-33.64294 -3.10118,20.14632 -12.36488,39.70166 -6.66608,60.50901 1.71629,8.65693 1.08577,27.34288 14.56904,25.18711 z m 6.51772,-41.83948 c -0.44965,0.0969 0.33297,1.01152 0,0 z m 11.69804,-32.33183 c 2.98273,-3.55449 -4.53641,3.31661 0,0 z m 2.00538,-1.93897 c 7.32509,-4.24477 -4.5438,1.05094 0,0 z m 3.79256,-0.23007 c 12.95241,-2.29212 -1.01179,-1.16604 0,0 z m 81.83087,-11.90015 c -1.15365,1.24811 -0.64712,4.41166 0,0 z m 0.70826,-2.23578 c -0.8908,-0.97569 -0.0144,1.51965 0,0 z m 7.7311,111.13839 c -12.92468,-4.03668 -18.00386,-2.78361 -26.69324,-4.4276 -14.16278,-3.72172 -30.81155,1.28328 -43.65975,-6.80914 12.89561,4.4158 31.06718,3.66618 45.96835,5.50829 11.26042,0.22719 22.21084,-10.23841 34.72333,-5.21484 7.34573,5.35696 -26.15275,-2.31672 -22.61561,4.22259 -2.42171,1.34559 18.35394,10.16433 26.90379,0.27092 19.33581,-2.2948 38.75743,-5.38266 57.47031,-10.73635 -17.72634,7.24912 -37.84273,8.99477 -56.9222,11.2889 -4.58699,3.66813 -8.71754,7.39642 -15.17498,5.89723 z m 125.55288,-17.17653 c -0.12108,-1.56142 0.98158,1.1737 0,0 z m 0.54683,-1.9394 c 1.41285,-6.98545 0.57992,2.94471 4e-5,-10e-6 z M -520.5826,813.16526 c -20.56461,-2.25774 -19.29331,-31.43997 -1.37534,-36.69807 6.62056,-5.98614 33.31013,3.36385 13.11798,-0.95992 -18.47963,-3.67459 -36.48688,22.3955 -17.54626,33.91582 18.75542,10.14661 43.81722,-17.71655 29.59699,-34.89188 -4.75902,-8.14776 -25.80396,0.333 -7.73072,-5.42468 13.03402,0.5627 17.45383,19.09047 9.742,29.04083 -4.16638,8.98579 -15.91925,15.91176 -25.80465,15.0179 z m 58.29103,-3.4659 c -15.19351,-3.48679 -7.47106,-27.98985 4.31283,-31.91383 6.88089,-5.85508 34.51351,-4.84673 11.44217,-7.42776 -31.16847,9.93911 6.74148,-9.9171 18.03517,7.60438 11.78533,13.39533 -6.27344,29.45396 -20.21239,30.57179 -4.4865,0.67358 -9.01335,1.70381 -13.57778,1.16542 z m 8.89582,-2.03122 c 11.72297,-1.15379 30.42781,-9.46796 25.97592,-23.82843 -6.53185,-18.9534 -35.92036,-7.20755 -40.34102,7.62402 -3.39541,10.23724 1.18425,20.33286 14.3651,16.20441 z m -1.37055,-3.18777 c -10.46939,-3.31599 -2.88471,-23.90845 7.40479,-24.49099 8.29512,-3.45355 13.96605,11.20952 3.13274,0.8261 -4.13522,-0.3267 9.00916,12.02743 0.19248,18.87062 -2.34409,3.32881 -6.54735,5.93501 -10.73001,4.79427 z m 4.09847,-1.83747 c 18.69842,-9.23412 -2.60159,-31.50363 -6.93866,-9.02439 -2.13298,5.13452 0.47424,11.98553 6.93866,9.02439 z m 67.72956,5.93812 c -4.78386,-0.69502 -13.06789,-4.83848 -13.22125,-11.23142 -5.0591,-7.91969 6.37032,-17.08266 15.17436,-19.53183 3.85939,-1.77369 14.06333,-4.60188 20.31011,-1.75736 16.98662,7.26852 -26.12226,-3.51042 -7.27397,3.22688 13.99806,0.3249 14.1232,21.54007 1.32269,25.81516 -5.12012,2.24732 -10.64415,4.05563 -16.31194,3.47857 z m 5.08152,-1.87568 c 11.77466,0.87673 26.27549,-15.19411 14.58932,-24.16693 -11.06375,-6.71698 -28.10215,-3.37209 -31.99396,9.96493 -0.963,9.13285 8.57966,16.50409 17.40464,14.202 z m -5.45282,-4.35611 c -17.94537,-8.77841 13.0746,-27.25586 11.58699,-7.99761 -5.56234,-22.51719 -27.74526,13.75383 -3.90803,6.02593 11.33762,-2.73687 4.7338,-16.62537 0.44228,-16.37913 16.21925,2.86504 3.92087,22.7915 -8.12124,18.35081 z m -138.09258,0.77922 c -10.72093,-3.45521 -5.34852,-21.88321 5.07921,-22.39457 8.32793,-3.37884 16.96486,9.87636 3.46566,0.69203 -11.81235,-2.07529 -19.109,21.33999 -4.99248,20.64707 16.84898,-4.33532 0.27716,-20.24962 -1.00701,-17.66716 16.40569,-3.40347 11.42492,23.43071 -2.54538,18.72263 z m -36.27538,-11.37844 c 0.0898,-1.13595 0.7429,0.7671 0,0 z m 39.90414,-2.98512 c 0.39586,-1.08 0.80526,0.39945 0,0 z"
       id="path3"
       sodipodi:nodetypes="ccccccccccccccccccccccccccccccccccccccccccccccccccccccccccccccccccccccccccccccccccccccccccccccccccccccccccccccccccccccccccccccccccsccsscccccccccccccccccccccccccccccsccscccccccccccccccccccccccccccccccccccccccccccccccccccccccccccccccccccccccccssscccccccccccccccccccccccccccccccccccccccccccccccccccc" /><rect
       style="fill:#ff0000;fill-opacity:0;stroke:#f00000;stroke-width:4.91339;stroke-dasharray:none;stroke-opacity:1"
       id="rect1"
       width="377.95276"
       height="377.95276"
       x="-646.10046"
       y="664.01758" /><rect
       style="fill:#ff0000;fill-opacity:0;stroke:#ffffff;stroke-width:4.91339;stroke-dasharray:none;stroke-opacity:1"
       id="rect2"
       width="69.395927"
       height="26.690742"
       x="-623.30835"
       y="682.39331" /></g></svg>
