<?xml version="1.0" encoding="UTF-8" standalone="no"?>
<!-- Created with Inkscape (http://www.inkscape.org/) -->

<svg
   width="99.999992mm"
   height="99.999992mm"
   viewBox="0 0 99.999992 99.999992"
   version="1.1"
   id="svg1"
   xml:space="preserve"
   inkscape:version="1.3.2 (091e20e, 2023-11-25, custom)"
   sodipodi:docname="dessin.svg"
   xmlns:inkscape="http://www.inkscape.org/namespaces/inkscape"
   xmlns:sodipodi="http://sodipodi.sourceforge.net/DTD/sodipodi-0.dtd"
   xmlns="http://www.w3.org/2000/svg"
   xmlns:svg="http://www.w3.org/2000/svg"><sodipodi:namedview
     id="namedview1"
     pagecolor="#ffffff"
     bordercolor="#000000"
     borderopacity="0.25"
     inkscape:showpageshadow="2"
     inkscape:pageopacity="0.0"
     inkscape:pagecheckerboard="0"
     inkscape:deskcolor="#d1d1d1"
     inkscape:document-units="mm"
     inkscape:zoom="1.3843855"
     inkscape:cx="115.21357"
     inkscape:cy="199.00526"
     inkscape:window-width="1920"
     inkscape:window-height="991"
     inkscape:window-x="-9"
     inkscape:window-y="-9"
     inkscape:window-maximized="1"
     inkscape:current-layer="layer1" /><defs
     id="defs1" /><g
     inkscape:label="Calque 1"
     inkscape:groupmode="layer"
     id="layer1"
     transform="translate(-54.363475,-26.268884)"><path
       style="fill:#000000"
       d="m 128.86745,104.86521 c -1.55787,-4.28677 0.81197,-9.042798 -0.29628,-13.460598 -0.7375,-3.19099 -0.10172,-8.92519 -4.56016,-9.41751 -2.29396,0.0155 2.7586,-1.09731 3.14998,1.08278 1.64605,2.9821 1.53846,6.54351 2.16106,9.84008 0.46781,3.71839 -1.38966,8.007838 0.0655,11.766038 0.34943,-0.42843 -0.17261,0.61052 -0.52012,0.18921 z m -4.29374,-22.988408 c -0.0823,-0.24831 -0.16787,0.24191 0,0 z M 74.672088,102.96832 c -2.973246,-2.51542 -1.349283,-6.570538 -1.676061,-9.973048 l 0.02012,-0.46441 c 0.219264,-3.32198 0.739437,-8.62956 -3.062695,-10.06606 -1.912198,-1.07904 -3.236082,2.12157 -3.024625,3.56509 3.979113,0.0991 -0.559213,1.97258 -0.889673,-0.009 -1.154944,0.75922 -1.786032,-5.92133 -1.257191,-3.09144 0.272747,3.30481 2.668873,2.62495 3.012,-0.20198 2.024097,-2.21123 5.024493,0.48284 5.356111,2.82341 1.451579,5.32222 -1.169247,11.06599 1.114851,16.197118 0.145642,0.37112 1.993993,1.65275 0.407168,1.22049 z m 52.149602,-8.081408 c -0.79197,-0.50045 2.3427,0.0327 0.28189,-0.0685 l -0.0579,0.0936 -0.22402,-0.0251 z m -2.16448,-0.0846 c -0.81508,-0.33559 1.90676,0.028 0,0 z m 1.00241,-0.0924 c 0.53673,-0.27915 0.87587,0.18246 0,0 z m -1.68347,-0.0346 c -7.44134,-0.38421 -14.9281,-0.5667 -22.39291,-0.96435 0.95834,1.19205 -4.2922,-1.05771 -5.63232,-2.16159 -3.374645,-2.25264 -6.343796,-4.69319 -9.84791,-6.75243 -2.53395,-2.10715 -4.890311,-4.57884 -7.557687,-6.47449 -1.385301,-0.80612 -0.921615,-1.22047 1.22124,0.43812 1.737149,1.71521 2.448071,1.24694 3.933401,3.52095 2.130034,1.64312 4.219733,3.46288 6.728683,4.68061 1.193062,0.99648 2.537604,2.10189 4.172303,3.0282 2.02196,1.29347 4.24582,2.6774 6.52952,3.46987 5.63518,0.26821 11.19317,0.69591 16.83651,0.7212 1.75284,0.0658 5.40562,0.23012 6.00917,0.49391 z m -28.04683,-3.83112 c -0.49933,-0.2849 0.16915,0.26776 0,0 z m -0.3406,-0.20381 c -0.16787,-0.24191 -0.0823,0.24831 0,0 z m -10.797033,-7.40487 c -0.244307,-0.25862 -0.08473,0.26783 0,0 z m -21.408365,4.07526 c -0.07433,-0.4905 0.661667,0.2136 2e-6,-3e-5 z m 56.788788,-0.25387 c -0.0678,-2.29808 4.35492,-7.03602 1.11504,-3.05365 -0.49718,0.86749 -0.52621,2.44068 -1.11504,3.05365 z m -1.24627,-1.7663 c -2.16252,-1.81309 1.69457,-8.90109 -0.30863,-3.14199 -0.51183,0.89755 0.21543,2.62102 0.30863,3.14199 z m 27.27592,-2.13628 c -1.66586,-0.41581 0.99202,0.0957 0,0 z m -0.96644,-0.30479 c 0.29893,-0.0973 0.029,0.12981 0,0 z m -0.60119,-0.226 c -0.49675,-0.51529 0.72346,0.37688 0,0 z m -0.33972,-0.27508 c 0.19597,-0.12962 0.15913,0.23332 0,0 z m -79.632151,-0.86216 c 0.134522,-2.0723 1.537555,-4.81963 0.367313,-0.90063 -0.104035,0.0255 -0.213101,1.74344 -0.367313,0.90063 z m 78.065401,-0.15287 c 0.17402,-0.24363 0.17402,0.24363 0,0 z m -0.44278,-0.40761 c -1.03745,-0.4569 0.58243,0.0765 0,0 z m -0.67147,-0.37364 c -1.14258,-0.54352 -0.084,-0.39196 0,0 z m -1.18571,-0.50638 c -1.07906,-1.27163 0.59752,0.20517 0,0 z m 0.28555,-0.071 c 0.10801,-0.26037 0.1079,0.26032 0,0 z m -1.37557,-0.59622 c -2.88587,-1.58146 -0.62244,-1.00649 0,0 z m -19.46176,-0.69451 c 0.51535,-0.87748 -0.0892,0.4306 0,0 z m 17.64761,-0.3283 c -0.71103,-0.47241 -0.0972,-0.87588 0,0 z m -71.907592,-0.27479 c 1.699026,-2.49866 4.260557,-2.9613 0.730476,-0.74067 -0.441961,-0.76039 -0.356114,1.13746 -0.730476,0.74067 z m 55.415532,-0.57829 c 4.9119,-4.14686 -0.92215,1.05505 0,0 z m 15.906,0.29422 c 0.19597,-0.12962 0.15913,0.23332 0,0 z m -60.072254,-0.44654 c -0.896818,-1.87878 1.390594,0.96655 0,0 z m 59.341844,0.0939 c -2.71602,-2.39404 -6.58658,-3.29495 -10.12896,-2.62315 2.73166,-0.95142 5.66612,-0.31012 7.79397,0.80133 0.81616,0.48107 2.30083,1.15037 2.33499,1.82182 z m 0.29464,0.006 c 0.25299,-0.20462 0.17044,0.21088 0,0 z m -60.502352,-0.58828 c -1.312756,-1.84606 -10.683182,-1.06232 -4.27838,-1.73645 1.159802,0.0999 6.049385,1.65483 4.27838,1.73645 z m -1.868424,-0.895 c -0.08246,-0.24832 -0.167957,0.24191 0,0 z m 49.144726,-0.1977 c 2.95484,-1.54491 1.24617,-0.45119 0,0 z m 10.93703,-0.006 c 0.17402,-0.24363 0.17402,0.24363 0,0 z m -65.395107,-0.10592 c 0.211468,-0.24631 0.129473,0.3421 0,0 z m -0.943461,-0.65839 c -3.140348,-1.32756 -0.805305,-4.99021 0.943505,-6.84117 2.057261,-2.44789 2.29576,-6.44586 3.604244,-9.58322 1.114318,-1.59438 4.950238,-2.83855 7.027725,-4.45137 3.456905,-2.14872 8.644553,-1.92693 10.236411,-6.58696 2.057881,-1.94952 5.156313,-4.80404 8.150573,-3.63437 2.84511,0.61587 -2.41199,5.59821 0.1258,5.31103 2.5221,0.38999 5.44982,-0.15056 7.60592,1.28931 1.09074,0.15126 0.89127,0.23664 2.613,0.64961 1.09128,0.49422 1.08366,0.3812 2.55909,0.7708 4.11529,1.47365 7.71944,4.17522 11.21066,6.85997 3.09341,2.49534 5.38881,6.98806 10.01362,6.16735 3.48488,-0.081 7.63779,6.13502 1.60082,3.84605 -3.68576,-1.4 2.47433,6.31712 -2.60887,4.76659 -3.28006,-0.99768 -5.67909,-3.1798 -8.49848,-5.03037 -3.95394,-2.54965 -8.85189,-2.18244 -13.36529,-2.50861 -2.67943,-0.29468 -5.5799,0.22001 -7.5903,0.57283 -1.90956,0.76698 -9.080799,-0.75332 -3.82196,1.89879 2.22524,0.26585 1.89797,1.83685 0.0524,2.23863 -0.54037,0.34534 -1.92689,0.83526 -2.99633,1.17704 -0.28573,-0.36397 -2.060279,0.52065 -3.257492,-0.25119 -1.748174,-0.42642 -3.501704,-1.2473 -4.894681,-2.31019 -0.71042,-1.11196 -3.369559,0.49111 -4.537693,0.16157 -3.56065,0.36783 -6.751665,2.14588 -9.306399,4.54706 -1.437761,0.98854 -3.207757,0.87523 -4.866253,0.94082 z m 0.934471,-0.65539 c -1.013797,-0.85719 2.377089,-2.47244 2.666023,-4.28547 0.398282,-1.59592 4.971845,-5.11901 4.146466,-2.96108 -1.998313,1.11157 -3.179998,2.89377 -4.354448,4.72608 -1.213815,1.28142 -2.858373,3.32197 0.576606,1.83428 2.421368,-1.57799 4.545403,-3.90761 7.566985,-4.41447 3.04123,-1.16869 7.303125,0.18305 4.82035,-3.70074 1.991669,2.37448 4.792556,5.17871 8.299859,4.79839 1.015008,0.94849 6.788846,0.0485 4.682686,-1.04776 -2.28018,-0.92831 -3.36187,-3.09472 -4.721518,-4.95959 -2.826483,-0.0242 1.441728,-1.96295 1.802918,1.35662 2.41417,1.62509 6.74786,-0.0523 9.84242,-0.34859 3.87015,-0.46579 7.59337,-0.0309 11.32585,0.2227 4.19696,0.64513 8.11826,2.73389 11.52929,5.36448 2.06312,2.12216 7.71001,3.0422 4.87346,-1.31271 -2.38578,-4.34399 7.26267,1.76453 3.86501,-2.37617 -2.48922,-2.24547 -5.94067,-1.5985 -8.73944,-2.95786 -2.84181,-2.13707 -5.03793,-5.39101 -8.34098,-7.05575 -3.96849,-2.89622 -8.25128,-5.23564 -13.08385,-6.25809 -1.62349,-0.57065 -3.88894,-0.88124 -5.89574,-1.09594 -0.66264,-0.38119 -2.634,1.0541 -2.99459,-0.47103 0.44119,-2.4917 2.98593,-6.44961 -1.65024,-4.81519 -4.419955,1.06913 -5.314633,6.12543 -9.177825,7.84665 -3.081787,1.04575 -6.119687,1.98382 -8.753406,4.00038 -1.367961,1.43984 -4.357504,1.40693 -4.524443,3.63856 -0.722008,4.07344 -2.321422,7.89384 -4.903772,11.01588 -1.312061,1.25848 -0.538583,3.19328 1.142329,3.25642 z m 14.927246,-9.30929 c 1.728066,-0.34272 2.352531,0.12577 0,0 z m 1.907357,-0.14667 c 2.25476,-0.21299 2.255085,0.24289 0,0 z m 1.932035,0.0267 c 0.536071,-0.19536 0.107233,0.17217 0,0 z m 0.384041,-0.0241 c 1.508116,-0.22071 4.767298,-1.04428 1.218432,-0.0278 l -0.731985,0.0975 z m -10.640565,-1.5595 c -3.820614,-5.0633 6.139363,-1.12558 0.122559,0.0948 l 0.01123,0.10111 -0.133792,-0.19591 z m 0.771646,-0.98786 c 2.173326,-1.34617 -3.156988,-0.7906 0,6e-4 z m 15.250391,8.59698 c -0.580773,-0.1736 -0.723031,0.0977 0,0 z m -0.919619,-0.0679 c -0.521891,-0.17389 -0.736735,0.0959 0,0 z m 1.136467,-0.0827 c -0.265864,-0.10992 0.229505,0.31261 0,0 z m -6.688238,-1.44187 c -0.159198,-0.23333 -0.196015,0.12962 0,0 z m 38.181196,5.66855 c 0.0823,-0.24831 0.16787,0.24191 0,0 z m 0.30654,-0.0679 c 0.35716,-0.25021 0.35716,0.25021 0,0 z m 0.46407,-0.11434 c 0.29893,-0.0973 0.029,0.12981 0,0 z m 6.81859,-0.97786 c 0.5229,-0.19515 0.0208,-0.0603 0,0 z m -65.115368,-4.76314 c 0.06842,-0.58687 0.259156,0.13442 0,0 z m 34.299838,-2.42856 c 0.0757,-0.19174 0.41561,0.18892 0,0 z m 1.05331,-0.20792 c 0.17457,-0.25155 0.262,0.24347 0,0 z m 0.30654,0 c 0.16787,-0.24191 0.0823,0.24831 0,0 z m 0.30654,0 c 0.17457,-0.25155 0.262,0.24347 0,0 z m 0.7842,10e-4 c -0.0294,-0.41322 0.34785,0.0246 0,0 z"
       id="path1"
       sodipodi:nodetypes="scccccssccccccccccccccscccsccccccccccccccccccccccssscccccccccccccccccccccccccccccccccccccccccccccccccccccccccccscccccccccccccccccccccccsscccccccccccccccccccccccccccccccccccccscccsccccccccccccccccccccccccccccccc" /><rect
       style="fill:none;stroke:#ff0000;stroke-width:1.3398;stroke-dasharray:none"
       id="rect1"
       width="98.660194"
       height="98.660194"
       x="55.033375"
       y="26.938784" /><text
       xml:space="preserve"
       style="font-size:3.175px;fill:#000000;stroke:#ff0000;stroke-width:1.358;stroke-dasharray:none;opacity:0"
       x="69.653053"
       y="38.691666"
       id="text1"><tspan
         sodipodi:role="line"
         id="tspan1"
         x="69.653053"
         y="38.691666"
         style="fill:#000000;stroke:#000000;stroke-width:1.358">MATHEO SCHELL</tspan></text></g></svg>
