<?xml version="1.0" encoding="UTF-8" standalone="no"?>
<!-- Created with Inkscape (http://www.inkscape.org/) -->

<svg
   width="102.291mm"
   height="102.291mm"
   viewBox="0 0 102.291 102.291"
   version="1.1"
   id="svg1"
   xml:space="preserve"
   inkscape:version="1.3.2 (091e20e, 2023-11-25, custom)"
   sodipodi:docname="Loki.svg"
   xmlns:inkscape="http://www.inkscape.org/namespaces/inkscape"
   xmlns:sodipodi="http://sodipodi.sourceforge.net/DTD/sodipodi-0.dtd"
   xmlns="http://www.w3.org/2000/svg"
   xmlns:svg="http://www.w3.org/2000/svg"><sodipodi:namedview
     id="namedview1"
     pagecolor="#ffffff"
     bordercolor="#000000"
     borderopacity="0.25"
     inkscape:showpageshadow="2"
     inkscape:pageopacity="0.0"
     inkscape:pagecheckerboard="0"
     inkscape:deskcolor="#d1d1d1"
     inkscape:document-units="mm"
     inkscape:zoom="1.3166807"
     inkscape:cx="181.13731"
     inkscape:cy="187.97268"
     inkscape:window-width="1920"
     inkscape:window-height="974"
     inkscape:window-x="-11"
     inkscape:window-y="-11"
     inkscape:window-maximized="1"
     inkscape:current-layer="layer1" /><defs
     id="defs1"><clipPath
       clipPathUnits="userSpaceOnUse"
       id="clipPath2"><rect
         style="fill:#000000;stroke-width:0.221639"
         id="rect2"
         width="99.669823"
         height="88.617729"
         x="43.806496"
         y="96.856567" /></clipPath></defs><g
     inkscape:label="Calque 1"
     inkscape:groupmode="layer"
     id="layer1"
     transform="translate(-41.145863,-91.593697)"><rect
       style="fill:none;stroke:#f50531;stroke-width:2.291;stroke-dasharray:none;stroke-opacity:1"
       id="rect3"
       width="100"
       height="100"
       x="42.291363"
       y="92.739197" /><path
       style="fill:#000000"
       d="m 90.56231,116.85284 c 0.106008,-2.74833 6.196744,0.96431 5.880022,-3.68048 0.677481,-1.9974 2.355472,-4.56414 2.795713,-0.67153 0.782685,1.25671 4.490585,2.92006 0.916835,2.00559 -1.606037,-2.06776 -2.367594,-4.11555 -2.826796,-0.74879 -1.023657,3.13702 -3.724414,3.78725 -6.765774,3.09521 z m 12.09263,-0.82099 c -2.40037,-0.67189 6.64245,-0.78186 3.98693,-2.18079 -4.81118,-0.01 -2.86772,-5.84094 0.47142,-6.78609 3.07673,-2.72194 -5.48764,-0.20503 -6.08894,-0.0962 0.71235,-1.88163 5.55208,-6.21321 5.87701,-5.01981 -1.03121,1.65651 -7.339028,4.80792 -2.03259,3.43997 1.93139,-0.70931 6.55888,-0.36967 2.60659,1.82842 -3.62737,1.42418 -3.60621,8.28619 1.09411,5.17994 3.5227,-1.58649 -1.98047,4.15258 -3.73883,3.55334 -0.71853,0.115 -1.45069,0.13286 -2.1757,0.0812 z m -41.780053,-0.44312 c -3.902213,-0.80865 -1.611944,-7.2234 -2.506094,-10.39181 -0.02509,-2.29406 -0.847093,-7.044062 0.937748,-8.071202 4.614116,-1.4117 3.144366,3.786042 3.384748,6.735222 -0.465804,3.74531 1.405424,7.55491 5.200504,8.60464 4.698719,2.19707 -0.906702,4.39321 -3.662233,3.44518 -1.118499,0.003 -2.291884,0.10919 -3.354673,-0.32203 z m 3.983082,-0.71429 c 1.239067,0.61347 6.279123,-0.11158 2.67531,-1.81823 -5.156983,-0.52705 -5.807453,-6.38586 -5.425463,-10.51819 0.793058,-2.682632 -0.513164,-7.423212 -3.174605,-3.968372 0.02083,4.215192 0.2783,8.667232 0.729137,12.693222 -0.321925,2.88602 3.06894,4.04918 5.195616,3.61155 z m 26.249224,-0.74468 c 0.51203,-3.41168 2.322299,-5.81906 3.595836,-9.11262 0.385826,-3.42096 4.000755,-6.697952 6.984961,-4.3951 -0.72044,2.47618 -2.586596,5.92558 0.71058,2.27351 0.98797,-1.20365 4.95233,-2.991912 1.92089,-0.4788 -2.38588,0.55462 -4.17544,5.33989 -5.789577,4.71656 1.256691,-2.75496 4.108567,-9.011222 -1.309217,-5.60993 -1.573649,2.16641 -2.076558,6.51712 -3.125352,6.72812 -0.920913,2.04484 -1.615974,6.07835 -2.906861,6.75286 l -0.08126,-0.87461 z m -32.542294,0.33336 c 0.746367,-0.35805 0.501701,0.66779 0,0 z M 122.81959,113.775 c -1.71453,-1.27391 -6.26225,1.10302 -3.68212,-2.49926 0.97995,-3.50544 0.51262,-8.00865 -0.14736,-10.90939 2.36496,1.66372 4.18817,0.49783 6.35322,-0.16745 -0.79447,3.96262 -3.20899,9.6885 1.0488,12.48461 -1.10194,0.57932 -2.31074,2.40615 -3.57254,1.09149 z m 1.69454,-0.79966 c -0.48604,-2.25803 -2.56265,-6.85041 -0.53312,-10.13823 1.18461,-4.028352 -2.03838,1.56147 -3.1886,-1.28083 -2.74179,-1.23973 0.89773,5.19226 -0.45774,7.15348 0.29273,2.52136 -1.86283,4.46758 1.68989,3.68556 0.85738,0.0236 1.73677,1.80556 2.48957,0.58002 z m -47.089563,0.6156 c -2.471415,0.37203 -6.066675,-5.70084 -4.091031,-4.84006 1.130521,3.61571 5.476595,5.53843 9.021388,3.87257 3.140433,-1.19476 7.128072,-4.36428 5.175634,-8.1365 -0.70067,-3.45041 3.379805,3.4262 0.383566,4.62364 -2.015255,3.16089 -6.235065,5.18228 -10.066518,4.62264 l -0.423039,-0.14236 z m 4.874006,-2.40916 c -3.240378,0.41684 -8.737796,-1.02261 -6.67263,-5.29351 4.491857,-1.92374 2.309576,5.17332 5.264248,4.4942 2.26918,-2.88989 -4.432272,-7.60264 1.542556,-8.30208 1.994427,3.28781 -0.145117,-0.67788 2.41673,-0.8636 2.19943,1.27259 -0.707179,3.59029 1.833778,3.80925 0.844971,3.57916 -2.578752,2.02638 -2.828594,-0.30801 0.10335,1.78977 0.495694,5.20756 2.294806,3.04717 2.189219,1.90051 -2.260703,1.15199 -2.291866,3.03935 l -0.587105,0.24149 -0.971923,0.1357 z m 1.599202,-1.31143 c -0.718461,-1.78845 -0.518768,-9.40538 -3.519507,-6.16012 1.498903,1.74323 0.932307,6.01745 3.094648,6.70757 l 0.225412,-0.18084 0.199443,-0.36656 z m -5.329872,-0.67792 c 0.339566,-2.65884 -4.170288,-4.02091 -2.202022,-0.40814 0.19316,0.89468 2.622116,2.46435 2.202022,0.40814 z m 7.564659,-3.102 c -0.861709,-2.65525 -0.933747,1.75292 0,0 z m -1.356755,-2.91817 c -0.453599,-3.16242 -0.182054,3.39342 0,0 z m 14.261427,6.95289 c 0.881392,-1.78103 0.936663,0.64359 0,0 z m 0.863931,-0.94225 c 0.625395,-0.89334 0.821615,0.82177 0,0 z M 72.482,106.43653 c -0.905226,-2.03909 1.577562,-3.87246 0.53097,-0.69879 0.865707,0.55434 -0.486168,1.47598 -0.53097,0.69879 z m 1.933204,-2.52549 c 2.559725,-1.56036 5.779703,-3.15865 7.966791,-5.491882 2.26992,-0.73417 6.476248,6.408492 2.881432,2.423242 -3.401916,-4.542172 -6.26575,3.49832 -10.317,3.2301 l -0.368589,-0.0365 -0.162634,-0.12502 z m 23.239258,-5.310172 0.734378,-0.26398 -0.306528,0.27405 -0.428296,-0.01 z"
       id="path3"
       sodipodi:nodetypes="ccccccsccccccccsscccccccsccccssscccccccccsccccccccccccccccccccccccccccccccccsccccscccccccccccccccccccccccccc" /><path
       style="fill:#000000"
       d="m 85.601208,189.05904 c -0.972989,-3.01904 2.33704,-7.27291 -2.595993,-6.96652 -1.636688,-3.71121 -4.449803,-1.62544 -7.410431,-2.18554 2.939916,0.2439 5.654658,-3.54272 6.859331,0.71283 3.034923,4.91302 4.564963,-3.15483 5.649893,-2.32758 -1.55562,1.64147 -1.4706,5.3903 1.14404,2.88194 3.37392,-5.03695 -4.244226,-4.24759 -6.856134,-6.44088 -3.220627,-3.47813 -2.42815,-8.71394 -3.283727,-13.07094 -1.27791,-2.28208 -2.216643,4.35808 0.316405,4.78723 -3.984032,2.08425 -0.04758,7.90458 -2.126175,11.30791 -2.160584,4.21729 0.748151,-2.80916 -0.07491,-4.76461 0.07843,-4.19487 0.37384,-7.79015 0.380806,-11.71945 2.2134,-2.62714 0.461363,-8.47126 0.543341,-9.0821 1.516411,2.05357 7.019704,4.67159 5.900259,-0.0414 -0.880247,-1.36998 -5.622054,-3.0522 -1.27559,-2.71335 2.642515,0.26564 1.517272,0.16406 1.765898,0.75341 1.632857,0.79188 7.723897,2.07266 2.731687,1.549 -2.435017,-0.73533 -4.557538,-1.95424 -2.499717,1.2407 0.108509,3.8273 -3.62145,2.24453 -5.297494,1.828 -0.560575,3.09609 0.494969,6.21461 0.570597,9.78871 0.249149,3.70394 0.551037,7.60107 4.564261,8.84333 1.146633,2.43068 4.169463,3.83641 3.367953,-0.0782 -0.55958,-0.44659 -1.22865,3.81437 -1.16697,0.41415 0.28955,-1.82685 -4.120161,-2.79961 -0.29564,-2.01419 3.44053,-1.52479 1.01119,6.55549 3.26324,2.75777 0.25361,-4.43799 -0.0923,2.44596 2.82173,0.87788 2.2713,1.3339 -6.16016,-0.43428 -1.94703,1.02342 0.32568,2.82561 -0.7409,5.844 -3.30502,6.59632 3.80338,3.48703 4.53314,-6.6748 4.95445,-5.60833 0.35608,3.44251 -1.70014,7.90921 -5.5391,7.2511 -2.657814,5.96979 6.64227,1.92466 9.626,2.75401 3.08059,-0.93418 11.310912,1.65158 9.616152,-3.63598 -3.25337,-0.8602 -6.607002,-3.93435 -5.83245,-8.06599 0.12082,0.51704 2.01325,8.49198 5.35953,6.40109 -3.54624,-1.0088 -1.81431,-5.88354 -4.07553,-7.04615 -2.643802,-1.44002 -3.781702,-5.89391 -0.75594,-6.62514 1.73762,-0.45552 2.86529,-5.27221 1.48597,-0.72393 -2.488782,0.7407 -3.727842,6.10467 -1.22044,5.65017 -0.81802,-2.02117 1.80139,-6.82888 1.84013,-2.21347 0.40497,3.61119 -0.7408,0.16959 -1.02346,-1.5131 -1.72858,3.59171 1.178,5.27585 3.1899,2.10212 1.84434,0.83422 3.48414,-3.90632 2.1237,-0.006 -0.15251,1.24464 -1.39081,2.64133 -0.89489,0.67015 -1.22259,0.50668 -3.01669,1.65931 -1.70129,1.91031 -3.11511,0.40711 -1.4827,6.98247 1.57207,6.45205 1.69345,0.69543 -0.41608,-4.72434 -1.80921,-5.94337 2.65572,1.31849 4.37476,5.89712 2.28463,8.05974 1.40377,3.43003 -0.0185,5.03948 -3.66912,4.535 -5.460152,0.90551 -11.130292,0.3367 -16.541332,1.3739 l -0.30653,0.27405 -0.42829,-0.01 z m -0.688177,-14.15201 c -0.484841,-1.47163 -5.353146,-4.42236 -2.365235,-1.12053 0.26102,0.18131 2.293194,1.97165 2.365235,1.12053 z m 17.405739,-0.63028 c -1.55074,-0.77027 -0.94024,0.80473 0,0 z M 82.448348,149.97288 c -0.542636,-0.83174 -0.595884,0.44671 0,0 z m 13.00306,31.37878 c -2.36446,-1.07725 -1.23952,-8.21121 -0.92972,-2.60679 0.92291,4.88716 4.59639,1.13867 3.48242,-1.97334 1.11347,-4.79683 0.4494,0.952 0.53495,2.9402 -0.0651,0.99636 -2.35255,3.15374 -3.08765,1.63993 z m 13.442122,-0.32375 c 0.94951,0.23956 0.78934,-1.17491 0.39267,-2.63166 2.15984,-0.29203 5.07773,-0.11349 0.9741,0.39014 -1.23778,-0.14301 1.07238,3.76866 -1.36677,2.24152 z m -13.054192,-1.4357 c -1.37395,-1.47475 0.0287,-5.02817 -0.16932,-1.16809 1.4692,2.64801 1.32398,-5.27451 1.61605,-0.2697 -0.16488,0.533 -0.48971,2.77684 -1.44673,1.43779 z m 15.604702,-2.21961 c -1.0632,-1.38647 1.46677,0.23336 -1e-5,0 z m -0.72745,-1.5965 c -0.33483,-1.58136 3.61905,1.84104 0,0 z m 2.07734,-0.17748 c 1.17734,-0.39369 -1.58022,-2.62605 1.01394,-0.73625 1.43918,0.82799 -0.37823,1.23029 -1.01394,0.73625 z m -7.88337,-1.70213 c 0.62538,-0.89336 0.82163,0.82178 0,0 z m -13.319832,-2.61037 c -5.15673,-2.30643 4.50391,-4.70501 5.60763,-2.18899 -0.51803,2.29449 -3.67478,3.15624 -5.60763,2.18899 z m 3.19757,-0.40203 c 4.75053,-2.25141 -1.7128,-2.22102 -3.58887,-1.43385 -2.3197,1.13109 2.87843,1.95765 3.58887,1.43385 z m -10.730595,0.0836 c -2.071728,-3.56664 0.297119,-8.92162 -2.393979,-11.90038 3.567794,2.40714 0.399912,8.56178 2.944451,11.96897 l -0.180075,0.0852 z m 1.245985,-0.31589 c -0.850909,-1.78295 -0.917559,-6.6715 -0.374266,-7.15195 0.110805,3.40905 -0.503595,7.39664 3.969536,7.16603 -1.20747,-0.2321 -2.55765,0.19631 -3.59527,-0.0141 z m 19.739332,-0.12058 c 2.13021,-1.63146 3.11729,-7.71446 3.32408,-7.64538 0.59178,1.56793 1.56157,-4.09891 0.40153,-4.56561 2.9702,2.05386 -0.72301,8.03745 -1.10511,8.84544 -0.94067,0.99394 -1.25914,2.86912 -2.6205,3.36555 z m 2.50701,-1.44398 c 0.57542,-3.45977 0.80178,1.47962 0,0 z m -5.01528,-0.27109 c 0.95902,-2.41586 2.85527,-2.76633 0,0 z m 8.14774,-2.85551 c -2.85001,-3.15691 -0.1803,-1.67384 0.28044,0.31723 z m -6.74325,-0.20246 c 0.0463,-3.37281 0.71867,-0.15805 3e-5,0 z m -1.1885,-1.10446 c 0.54966,-1.45251 0.45728,1.08865 0,0 z m -14.362872,-0.43746 c -6.707608,-1.74205 4.28876,-4.73564 0.7351,0.0488 z m 0.41791,-0.52728 c 2.48099,-2.87776 -4.003961,-1.25476 -0.84257,0.19237 l 0.84257,-0.19234 z m 14.095782,-0.22776 c -0.23513,-2.12051 1.49882,-7.74921 -0.33184,-8.16713 -1.34298,1.17906 -7.942412,3.73993 -2.993502,0.96625 2.378302,-1.52956 5.575632,-3.21458 4.343772,1.21758 -0.33327,0.89411 0.0253,7.34873 -1.01843,5.9833 z m -6.404472,-0.0849 c -0.61059,-3.75813 1.56533,1.02421 0,0 z m 3.14199,0.0415 c 0.369932,-1.78382 1.396142,-2.57525 0.772912,-0.0862 0.36484,0.18487 -1.157032,0.62151 -0.772912,0.0862 z M 84.54968,162.27863 c -0.574242,-2.94098 0.450187,-0.99616 0,0 z m 8.481818,-0.22647 c -2.80196,-0.4247 -5.74302,-5.13188 -8.207341,-2.22654 -1.164076,1.50151 0.340311,-4.30965 0.09077,-1.10997 3.214301,-2.0596 5.189161,2.33478 8.213781,2.87126 1.81274,0.25143 5.86031,-6.19497 3.39011,-1.67367 -1.0167,0.8299 -1.88727,2.77042 -3.48731,2.13892 z m 4.31966,-0.49604 c 1.52591,-0.6773 -0.25645,0.80778 0,0 z m 6.911462,-0.53192 c 0.62443,-1.82211 0.24952,1.70694 0,0 z m 3.58682,-0.0174 c -0.55442,-2.26778 0.73476,-4.52402 0.42115,-0.88406 8e-4,0.2341 -0.032,1.88889 -0.42115,0.88406 z m -3.33504,-1.79111 c 0.26931,-3.13154 0.21716,2.99446 0,0 z m -10.481092,-0.10638 c 1.16253,-2.36487 0.76626,0.25161 0,-1e-5 z m -1.51903,-0.32512 c -1.12156,-2.56832 -0.38461,-7.25912 3.06323,-4.71649 1.04897,2.43942 -3.7051,-2.53957 -2.87371,1.62342 -0.11136,0.50421 0.69156,3.6618 -0.18952,3.09307 z m -2.9385,-0.31292 c -4.20696,-1.18777 -1.73251,-9.15283 1.25956,-3.92487 0.36543,2.74941 -0.74244,3.2377 -0.32503,0.098 -2.70874,-3.85827 -3.46772,3.88022 -0.13169,3.044 0.17933,0.67889 0.0313,1.51489 -0.80284,0.78284 z m 15.010812,-0.74494 c 0.66197,-0.68414 0.0686,0.7341 0,0 z m -9.607932,-0.90426 c 0.35618,-1.83146 0.21677,2.31113 0,0 z m 9.868692,-0.15718 c 0.73316,-1.07045 0.0143,1.2899 0,0 z m -19.537232,0.0695 c -0.746387,-1.52482 3.25595,0.94141 0,0 z m 12.04104,-0.0279 c 1.05607,-1.25631 2.59352,-4.5721 1.32849,-1.0259 -0.28332,0.30305 -0.81934,1.28292 -1.32849,1.0259 z m 10.607342,0.0624 c -0.47647,-2.29895 0.69587,-7.88223 -2.93954,-4.57447 0.39771,-0.95728 4.70684,-4.0206 4.88815,-6.11171 -0.65211,3.11587 -3.23569,4.97018 -1.7827,8.50214 -0.0412,0.72528 -3e-4,1.47146 -0.16591,2.18404 z m -11.271972,-0.3347 c -0.51108,-1.97865 0.54553,-4.1147 0.3524,-0.79411 0.0464,-0.39197 -0.11063,1.45438 -0.3524,0.79411 z m 9.426282,-0.9336 c 2.70125,-2.41093 -0.32029,1.64594 0,0 z M 100.5909,154.458 c 1.71414,-1.72023 0.98394,0.65741 0,0 z m -14.196042,-0.77428 c 0.11042,-1.86615 0.11041,1.8662 0,0 z m 12.68416,-0.62574 c 0.44391,-1.11596 0.59671,0.7399 0,0 z m -1.94384,-0.63565 c 2.65708,-3.35987 2.45108,0.0549 0,0 z m -5.70345,-0.19593 c 3.9227,0.0929 7.01664,-2.32591 9.940492,-4.66411 3.32903,-1.16453 -1.31349,-2.06922 0.22358,-2.2197 2.38627,2.48091 6.86719,-5.25915 3.45494,-0.15257 -1.25105,1.52028 -1.15222,3.30728 -2.51721,4.56471 0.8731,-4.93314 -5.481482,2.55378 -8.248782,2.58935 -0.94247,0.054 -1.93556,0.16367 -2.85302,-0.11768 z M 75.05212,150.4396 c -5.23187,-4.8008 -4.997366,-12.73118 -3.311715,-19.07211 0.904307,-3.39449 2.648359,-10.32708 7.371432,-7.13171 1.409302,0.18663 1.412053,0.91455 2.839803,1.8926 -2.69075,-1.81726 -7.236512,-3.14075 -8.364392,1.54143 -2.561952,5.89056 -3.476579,12.82659 -0.941867,18.88592 -0.09875,1.31825 5.842428,6.74114 2.406739,3.88387 z m 4.328838,-1.73586 c -1.141454,-3.28398 2.714032,2.12997 0,0 z m -2.652007,-2.70309 c -2.814741,-3.98729 -1.951381,-9.39265 -1.57443,-14.01083 -0.657133,-2.18511 2.24516,-7.04815 3.184081,-6.22162 -2.02838,1.59544 -0.812007,2.22434 0.470858,3.03531 -4.71286,-0.5925 -2.980988,6.62723 -3.332301,9.80363 -0.396927,3.02457 1.46167,6.17152 2.464259,8.26807 l -0.52546,-0.2569 -0.687014,-0.61766 z m 6.583328,0.32163 c 1.341045,-1.77426 4.443939,-3.14026 6.263499,-2.65714 -2.35119,0.1796 -4.36469,2.01764 -6.263499,2.65714 z m 27.283141,-1.91684 c 0.99414,-4.11216 2.63898,-7.91237 2.41142,-12.28311 0.55717,-3.45121 0.20342,4.34931 -0.11857,6.02948 -0.26597,1.5439 -1.79368,6.8046 -2.29285,6.25363 z m -12.164352,-0.0834 c -0.35219,-0.80444 2.303402,0.80807 0,0 z m -2.10172,-0.57297 c 1.84461,-0.18363 -0.3065,0.34957 0,0 z m -5.35769,-0.29086 c 2.14314,-0.57908 4.60727,0.12754 1.04637,0.0909 l -0.50887,-0.007 -0.5375,-0.0837 z m 15.909422,-1.27733 c 1.03528,-1.84732 1.87047,-5.53279 2.55693,-6.4817 0.43319,1.07492 -2.46382,8.4897 -2.55693,6.4817 z m -20.632632,-8.17825 c -1.515225,-0.52906 -4.560568,-2.96547 -1.11303,-1.0568 1.00101,-0.2533 2.89105,0.38549 1.82264,1.5418 l -0.70961,-0.48504 z m 22.667262,-1.2178 c 0.43814,-2.78318 0.54112,-8.22797 -2.78348,-5.38756 3.41907,0.10811 2.47887,-6.97102 -0.29677,-4.12413 -0.94154,1.77849 -3.8214,2.79983 -1.34993,0.19496 2.99678,-3.8601 7.64992,-1.63858 8.06033,2.4368 -1.30508,-3.55085 -3.53385,-2.4999 -2.93975,0.96257 -0.0612,0.33888 -0.081,8.71248 -0.6904,5.91736 z m 0.0156,-10.07096 c -1.25349,-1.27351 0.42148,2.4443 0,0 z m -9.186702,9.97309 c 0.568182,-2.6001 0.817012,-0.65474 0,0 z m 1.062292,-0.14831 c 0.52167,-1.44575 0.4584,0.8044 0,0 z m -18.78719,-0.72409 c 0.879089,-1.2981 0.83406,1.18357 0,0 z m 19.90761,-0.6973 c 1.02992,-1.24352 0.3216,0.76307 0,0 z m -16.572062,-0.21363 c -0.261556,-1.06764 0.70105,0.81079 0,0 z m 17.516672,-0.60313 c 0.63517,-1.50629 1.21828,0.2975 0,0 z m 0.95874,-0.84696 c 0.62819,-1.22537 0.46958,0.56158 0,0 z m -20.642403,-1.83543 c -1.633952,-2.73711 2.384581,2.11687 0,0 z m 29.518823,0.0764 c -0.87047,-4.08201 1.58347,2.50217 0,0 z"
       id="path4"
       sodipodi:nodetypes="ccccccccccccccccccccccccccccccccccccccccccccccccccccccccccccccccccccccccsssccccccccccccccccccsccssccccccccccccssscccccsccsccccccccccccsccccsscccccccccssscccccccccccccccccccccccccccccccccccccccccccccccccccccccscccccccsccccccccccccccccccccccccccccccccccccccccccccccccccc" /></g></svg>
