<?xml version="1.0" encoding="UTF-8" standalone="no"?>
<!-- Created with Inkscape (http://www.inkscape.org/) -->

<svg
   width="101.765mm"
   height="101.765mm"
   viewBox="0 0 101.765 101.765"
   version="1.1"
   id="svg1"
   xml:space="preserve"
   inkscape:version="1.3.2 (091e20e, 2023-11-25, custom)"
   sodipodi:docname="dessin.svg"
   xmlns:inkscape="http://www.inkscape.org/namespaces/inkscape"
   xmlns:sodipodi="http://sodipodi.sourceforge.net/DTD/sodipodi-0.dtd"
   xmlns:xlink="http://www.w3.org/1999/xlink"
   xmlns="http://www.w3.org/2000/svg"
   xmlns:svg="http://www.w3.org/2000/svg"><sodipodi:namedview
     id="namedview1"
     pagecolor="#ffffff"
     bordercolor="#000000"
     borderopacity="0.25"
     inkscape:showpageshadow="2"
     inkscape:pageopacity="0.0"
     inkscape:pagecheckerboard="0"
     inkscape:deskcolor="#d1d1d1"
     inkscape:document-units="mm"
     inkscape:zoom="0.69219276"
     inkscape:cx="140.13438"
     inkscape:cy="260.76551"
     inkscape:window-width="1920"
     inkscape:window-height="991"
     inkscape:window-x="-9"
     inkscape:window-y="-9"
     inkscape:window-maximized="1"
     inkscape:current-layer="layer1" /><defs
     id="defs1"><linearGradient
       id="swatch2"
       inkscape:swatch="solid"><stop
         style="stop-color:#aa0c0c;stop-opacity:1;"
         offset="0"
         id="stop2" /></linearGradient><linearGradient
       inkscape:collect="always"
       xlink:href="#swatch2"
       id="linearGradient2"
       x1="54.910179"
       y1="128.74132"
       x2="155.17476"
       y2="128.74132"
       gradientUnits="userSpaceOnUse"
       gradientTransform="translate(13.760618,1.528958)" /></defs><g
     inkscape:label="Calque 1"
     inkscape:groupmode="layer"
     id="layer1"
     transform="translate(-67.920585,-79.387771)"><path
       style="fill:#000000;stroke-width:1.17485"
       d="m 111.19314,178.9979 c -11.519929,-2.2607 -20.366168,-7.56435 -23.49125,-14.08388 -0.49447,-1.03156 -1.947695,-5.72418 -3.229388,-10.42803 -1.366078,-5.01354 -2.958857,-9.58329 -3.849261,-11.04369 -1.935129,-3.17389 -7.529281,-7.1619 -10.046302,-7.1619 -0.920383,0 -1.810251,-0.16295 -1.977482,-0.36212 -0.387932,-0.46201 4.944078,-5.20682 8.860807,-7.885 3.556672,-2.43196 6.057055,-3.2844 9.633941,-3.2844 1.705835,0 2.637089,-0.18757 2.650632,-0.53387 0.0115,-0.29362 0.07677,-7.45278 0.145063,-15.90923 l 0.12419,-15.375357 1.597921,-2.000782 c 3.187289,-3.990859 7.770671,-4.995695 13.435599,-2.945554 l 2.84831,1.03081 1.23896,-1.060192 c 0.68143,-0.583113 2.66389,-1.835006 4.40548,-2.782006 3.70228,-2.013129 4.27059,-2.487274 5.013,-4.182388 l 0.55308,-1.262778 1.12052,1.67047 c 0.64836,0.966574 2.58755,2.502181 4.60201,3.644248 1.91481,1.085582 4.02239,2.561318 4.68349,3.279425 l 1.20199,1.305646 2.2795,-1.015591 c 1.56008,-0.695076 3.16137,-1.016286 5.07382,-1.017778 3.11209,-0.002 4.55104,0.426299 6.97662,2.078686 3.24396,2.209899 3.28433,2.40302 3.28811,15.729061 10e-4,6.76508 0.17116,13.88573 0.37612,15.82366 l 0.37265,3.52352 h 2.70165 c 3.83784,0 7.23391,1.72618 11.48727,5.83883 1.91106,1.84784 3.90054,3.61987 4.42109,3.93786 1.52373,0.9308 1.10721,1.57905 -1.40698,2.1898 -3.17999,0.77249 -5.45344,2.57519 -8.06939,6.39853 -2.55964,3.74105 -3.5654,6.17345 -5.2096,12.59925 -2.21229,8.646 -4.40365,12.24173 -9.9238,16.28355 -8.8632,6.48961 -20.96072,9.14567 -31.88837,7.0012 z m 9.54304,-3.21136 c 1.27481,-1.14512 2.62229,-1.92191 3.33379,-1.92191 1.02064,0 1.14148,-0.18622 0.83154,-1.28129 -0.19947,-0.7047 -0.53454,-1.8898 -0.74461,-2.63354 l -0.38193,-1.35226 3.12511,1.75406 c 3.23701,1.81686 3.99413,1.77459 4.01261,-0.22404 0.01,-0.97445 1.3693,-1.33235 2.03782,-0.53617 0.19618,0.23364 0.88866,0.63435 1.53885,0.89048 1.10538,0.43543 1.16396,0.36622 0.90183,-1.06544 -0.30785,-1.68144 0.12393,-1.84829 2.82618,-1.09207 0.86288,0.24147 1.66916,0.36523 1.79172,0.27501 0.12256,-0.0902 -0.57236,-1.4686 -1.54428,-3.06307 -0.97194,-1.59447 -1.65918,-2.97852 -1.5272,-3.07565 0.13201,-0.0972 1.70945,0.51529 3.50551,1.36096 l 3.26554,1.53757 -0.36168,-1.66484 -0.36169,-1.66486 2.47018,-0.29074 2.47019,-0.29074 -1.59788,-1.22761 -1.59788,-1.22761 1.36437,-0.63224 c 0.75041,-0.34774 2.14028,-0.92115 3.08861,-1.27423 l 1.72422,-0.64199 -2.23028,-0.6859 c -1.22664,-0.37725 -2.31193,-0.68591 -2.41176,-0.68591 -0.0998,0 -0.91654,-0.21498 -1.81494,-0.47774 -1.58634,-0.46395 -1.49958,-0.51129 3.00852,-1.64123 l 4.64199,-1.16348 -2.54526,-0.95977 -2.54525,-0.95975 2.40019,-1.05352 c 1.32011,-0.57943 2.4002,-1.13378 2.4002,-1.23188 0,-0.0981 -0.75926,-0.46737 -1.68725,-0.82058 -1.53367,-0.58376 -1.65917,-0.79624 -1.37887,-2.33442 l 0.30837,-1.69222 -3.62474,0.6224 c -1.9936,0.34232 -3.85367,0.72655 -4.13347,0.85383 -0.27982,0.1273 -0.50876,-0.0483 -0.50876,-0.39016 0,-0.70155 3.72503,-3.25828 4.80724,-3.29952 0.38781,-0.0148 2.85227,-0.17803 5.47657,-0.36275 4.90297,-0.34513 4.91313,-0.34848 11.06813,-3.65115 1.05249,-0.56475 2.21142,-1.09989 2.57541,-1.18919 1.0238,-0.25119 -6.6116,-6.82284 -9.17431,-7.89614 -2.68068,-1.12271 -4.87209,-1.21714 -7.24905,-0.31241 -1.56911,0.59725 -1.75501,0.59295 -2.08933,-0.0483 -0.20183,-0.38714 -0.21748,-3.61308 -0.0348,-7.16874 0.1827,-3.55567 0.15521,-11.04423 -0.0611,-16.64124 l -0.39329,-10.176383 -2.44027,-1.675449 c -3.26558,-2.242083 -5.77539,-2.287289 -10.02845,-0.180633 -1.65984,0.822157 -3.11688,1.494826 -3.23789,1.494826 -0.12105,0 -0.72364,-0.720718 -1.33918,-1.601597 -1.17605,-1.683039 -3.32184,-3.294836 -6.03889,-4.536054 -0.89216,-0.407561 -1.91324,-1.211333 -2.26907,-1.786161 -0.78871,-1.274148 -1.41981,-1.330794 -1.91936,-0.172277 -0.20701,0.480082 -1.80873,1.57287 -3.55936,2.42843 -1.9129,0.934855 -3.77408,2.297983 -4.66438,3.416162 -1.41628,1.778824 -1.53573,1.831519 -2.71741,1.198915 -0.6798,-0.363927 -1.83835,-0.977914 -2.57455,-1.364408 -2.1216,-1.113815 -6.43783,-1.207826 -8.642566,-0.188233 -3.653192,1.689439 -3.653745,1.692402 -3.806399,20.424582 -0.120725,14.81465 -0.24983,16.97799 -1.008818,16.90463 -0.478704,-0.0463 -1.8624,-0.2684 -3.074877,-0.49363 -4.419372,-0.82096 -8.023364,0.7449 -12.481567,5.42296 l -2.42895,2.54874 4.546772,1.962 c 4.389619,1.89421 4.709158,1.96202 9.245047,1.96202 2.584051,0 5.359332,0.185 6.167288,0.4111 1.34926,0.37758 4.989265,3.53516 4.989265,4.328 0,0.18701 -1.476992,-0.034 -3.282203,-0.49116 -4.771877,-1.20843 -4.950427,-1.1663 -3.945159,0.93088 0.464547,0.96914 0.844632,1.90828 0.844632,2.08697 0,0.1787 -1.216693,0.45921 -2.703764,0.62334 l -2.703763,0.29844 2.525175,1.60079 2.525173,1.6008 -2.252793,1.12676 -2.252794,1.12676 2.286321,0.70356 c 1.257476,0.38696 2.9391,0.89642 3.736941,1.13215 1.414052,0.41779 1.38114,0.45014 -1.305559,1.28384 -1.515897,0.4704 -2.756177,1.00778 -2.756177,1.19419 0,0.18642 0.930029,0.76201 2.066731,1.2791 l 2.066732,0.94017 -1.295355,1.0149 c -1.408742,1.10374 -1.410088,1.09879 0.498318,1.82963 0.907607,0.34758 1.305558,0.88594 1.305558,1.76622 0,0.69644 0.195835,1.26278 0.435187,1.25852 0.239352,-0.004 1.848903,-0.5813 3.576782,-1.28232 1.727877,-0.70102 3.252492,-1.19295 3.388042,-1.09319 0.13554,0.0998 -0.77292,1.20535 -2.018803,2.45683 -3.379615,3.3948 -3.360501,3.26316 -0.438558,3.02074 l 2.600581,-0.21575 v 1.59255 1.59256 l 2.06403,-0.89637 c 1.13522,-0.49301 2.15672,-0.89637 2.26999,-0.89637 0.11328,0 0.38241,0.76876 0.59809,1.70836 0.21567,0.93962 0.55512,1.70838 0.75435,1.70838 0.19922,0 1.47635,-0.80483 2.83807,-1.78851 1.36171,-0.98368 2.60098,-1.69641 2.75391,-1.58385 0.15293,0.11258 -0.0744,1.32054 -0.50507,2.68437 l -0.78312,2.4797 1.68715,-0.18226 c 1.46892,-0.15869 1.89231,0.0568 3.27341,1.66593 0.87244,1.01653 1.75063,1.84857 1.95155,1.84899 0.2009,4.1e-4 1.32811,-0.86411 2.50489,-1.92117 z m -3.37858,-0.87035 c -0.19718,-0.37822 0.0333,-0.76291 0.5432,-0.90696 1.13531,-0.32066 1.65339,0.0649 1.21559,0.9047 -0.44047,0.84487 -1.31891,0.84599 -1.75879,0.002 z m -0.36198,-3.55922 c 0,-1.04133 0.73043,-1.43085 2.007,-1.07029 1.34235,0.37916 0.84911,1.62905 -0.70737,1.7925 -0.97655,0.10255 -1.29963,-0.077 -1.29963,-0.72221 z m -1.97337,-4.71218 c -1.56406,-0.91221 -3.07842,-1.96722 -3.36526,-2.34448 -0.69555,-0.91484 -1.74677,-0.86484 -3.3512,0.15939 -1.69669,1.08313 -2.14639,0.84574 -2.61691,-1.38143 -0.69343,-3.28234 -0.72081,-3.30774 -3.56683,-3.30774 -1.43559,0 -3.11571,-0.19913 -3.733597,-0.44254 -1.1032,-0.43458 -1.103854,-0.47111 -0.0363,-2.02869 1.932857,-2.82009 1.983367,-3.31492 0.392879,-3.84832 -1.606239,-0.53868 -4.959329,-3.71054 -4.959329,-4.69129 0,-0.48257 0.47458,-0.57575 2.002732,-0.39322 1.627767,0.19443 2.403172,0.005 4.141523,-1.01186 1.176332,-0.68808 2.330362,-1.25106 2.564502,-1.25106 0.23413,0 0.5928,-0.92715 0.79702,-2.06032 0.55773,-3.0946 1.23418,-3.54443 4.48568,-2.98287 2.41837,0.41767 2.79486,0.37526 3.90191,-0.4396 0.67391,-0.49604 1.87405,-1.02173 2.66697,-1.16822 0.79291,-0.14647 1.96575,-0.92014 2.60629,-1.71923 1.3324,-1.66218 2.06245,-1.81188 2.94132,-0.60314 0.33983,0.46737 1.45874,1.16298 2.48646,1.54581 1.02774,0.38282 2.39651,1.16945 3.04171,1.74806 1.04937,0.94107 1.33615,0.99733 2.71917,0.53351 2.34423,-0.78617 3.18806,-0.27485 4.28194,2.5947 1.10038,2.88661 1.44271,3.07862 7.0573,3.95857 2.87029,0.44985 3.04631,0.55299 3.04631,1.78496 0,1.51681 -2.38162,4.3165 -3.99195,4.69269 -1.01586,0.23732 -1.04594,0.40364 -0.37227,2.05917 1.22874,3.01952 -0.26291,4.39322 -4.42441,4.07456 -1.72663,-0.13222 -1.84479,-0.0379 -2.76455,2.20779 -1.06283,2.59498 -1.93223,2.97615 -4.53158,1.98676 -1.64105,-0.62462 -1.68226,-0.60896 -4.42712,1.68258 -1.52385,1.2722 -3.0807,2.31103 -3.45965,2.30854 -0.37897,-0.002 -1.9687,-0.75089 -3.53276,-1.66308 z m 1.56785,-2.51427 c -0.21243,-1.16576 -0.0344,-1.77853 0.63547,-2.18775 0.81678,-0.49895 0.93281,-0.41846 0.94899,0.65835 0.01,0.67475 0.38388,1.58181 0.8305,2.0157 0.78565,0.76327 0.86991,0.76375 2.59267,0.0147 2.14178,-0.93125 2.1959,-1.16785 0.40455,-1.76861 -1.58005,-0.5299 -2.40999,-2.35482 -1.55937,-3.42884 0.48825,-0.61648 0.58192,-0.54927 0.59681,0.42822 0.0204,1.34147 1.41604,2.04372 4.06165,2.04372 1.59911,0 1.73246,-0.0919 1.19864,-0.82611 -1.33191,-1.83181 -0.61747,-2.20439 1.39152,-0.72567 1.0957,0.8065 2.14015,1.35745 2.32099,1.22434 0.55649,-0.40961 0.3633,-2.23512 -0.23653,-2.23512 -0.5307,0 -2.3359,-2.17354 -2.3359,-2.8125 0,-0.16079 0.54117,0.21405 1.20261,0.83298 1.24668,1.16658 3.5864,1.44709 6.05049,0.7254 1.02794,-0.30106 0.91197,-0.4171 -1.01544,-1.01591 -2.88479,-0.89627 -2.79586,-1.54256 0.15756,-1.14504 1.28342,0.17275 2.47527,0.14522 2.64857,-0.0612 0.42936,-0.51134 -0.2899,-2.13223 -1.33553,-3.00972 -0.79658,-0.66847 -0.70353,-0.68524 1.29582,-0.2336 1.89594,0.4283 2.25031,0.38967 2.95769,-0.3224 1.21741,-1.22544 0.98858,-1.46829 -1.14356,-1.21363 -1.21523,0.14516 -2.57852,-0.019 -3.62654,-0.43684 l -1.67932,-0.66943 2.46606,-0.0171 c 1.35633,-0.009 2.46606,-0.17644 2.46606,-0.37119 0,-0.19474 -1.25557,-0.78693 -2.79013,-1.31598 -2.08516,-0.71885 -3.36796,-0.89582 -5.07717,-0.70045 -1.97886,0.22621 -2.14094,0.18772 -1.20282,-0.28562 3.49761,-1.76475 3.48706,-1.75066 2.17752,-2.9091 l -1.19227,-1.05471 -0.0193,1.17451 c -0.011,0.64598 -0.21513,1.17713 -0.45448,1.18034 -0.23936,0.003 -1.02269,0.12172 -1.74075,0.26335 -1.62411,0.32037 -1.76009,-0.53253 -0.14506,-0.90982 0.63827,-0.14911 1.1605,-0.54645 1.1605,-0.88297 0,-0.94501 -5.15799,-0.83142 -6.15525,0.13555 -0.73337,0.71109 -0.77172,0.71079 -0.78928,-0.006 -0.01,-0.41453 0.79337,-1.11708 1.7856,-1.56123 l 1.80406,-0.80753 -1.36887,-0.64727 c -2.3683,-1.11986 -3.68146,-1.07108 -3.75279,0.13943 -0.10927,1.85464 -0.21307,2.13546 -0.78924,2.13546 -0.30911,0 -0.42187,-0.26885 -0.25056,-0.59743 0.17131,-0.3286 0.0326,-0.72433 -0.30834,-0.8794 -0.34089,-0.15507 -0.6198,-0.66176 -0.6198,-1.12596 0,-0.7021 -0.18872,-0.76968 -1.12235,-0.40189 -0.61729,0.24317 -1.77689,0.44213 -2.57688,0.44213 -1.99911,0 -2.37261,0.65591 -0.96393,1.69279 0.64991,0.47837 1.17339,1.30219 1.16328,1.83072 -0.0178,0.92941 -0.0575,0.9224 -1.20889,-0.21355 -0.96532,-0.95233 -1.6467,-1.1745 -3.60223,-1.1745 h -2.41173 l 1.58975,1.08502 c 2.47573,1.6897 2.0949,2.43385 -0.73124,1.42881 -1.85044,-0.65805 -2.32099,-1.05716 -2.32099,-1.96858 0,-1.51399 -1.02184,-0.74766 -1.26617,0.94957 -0.15007,1.04243 0.0511,1.30597 1.07897,1.4137 0.69488,0.0728 1.60877,0.44105 2.03087,0.81826 0.68317,0.61053 0.58242,0.6519 -0.91745,0.37684 -2.17433,-0.39878 -4.4936,0.31951 -6.05684,1.87582 -1.218785,1.21338 -1.219761,1.23114 -0.0823,1.49687 1.7896,0.41808 1.35579,1.06556 -0.71393,1.06556 -1.709051,0 -1.787473,0.0572 -0.937408,0.68281 0.850067,0.6257 1.054638,0.62158 2.445328,-0.0491 0.83472,-0.40256 1.51766,-0.90202 1.51766,-1.1099 0,-0.20789 0.49025,-0.37798 1.08945,-0.37798 1.06176,0 3.03413,-1.2636 2.0279,-1.29918 -0.98381,-0.0348 3.60423,-1.66551 7.25634,-2.57909 4.64856,-1.16287 8.00239,-0.93246 12.57604,0.86398 1.82864,0.71825 3.67152,1.30591 4.09529,1.30591 0.42375,0 0.63212,0.26539 0.46301,0.58975 -0.19908,0.38188 0.36974,0.76881 1.61391,1.09782 l 1.92134,0.50808 -3.18484,2.12385 c -8.19178,5.46282 -14.2516,5.65961 -22.99765,0.74685 -2.52676,-1.41931 -3.18931,-1.60907 -4.41779,-1.26528 -1.4208,0.3976 -2.18374,1.24174 -2.18374,2.41615 0,0.46236 0.33205,0.50222 1.48839,0.17862 1.85532,-0.51921 1.9931,-0.51804 1.9931,0.0168 0,0.23836 -0.79663,0.78996 -1.77028,1.22579 -1.74206,0.77978 -1.74899,0.7966 -0.43519,1.05562 2.22615,0.43888 3.50684,0.31143 4.74812,-0.47254 1.17657,-0.74309 1.17768,-0.74071 0.19075,0.41207 -1.55152,1.81225 -1.20981,2.22239 1.03821,1.24612 2.36302,-1.02621 2.41719,-0.9707 0.87254,0.89406 -0.63708,0.76909 -1.1593,1.49954 -1.1605,1.6232 -0.004,0.40254 4.90762,-0.094 5.72016,-0.57836 0.43463,-0.25905 1.00558,-0.86206 1.26878,-1.34002 0.40245,-0.73078 0.48442,-0.65314 0.51534,0.48805 0.0268,0.99023 -0.39454,1.60784 -1.5589,2.28489 l -1.59569,0.92782 2.00896,1.23864 c 1.10492,0.68125 2.05924,1.23863 2.12071,1.23863 0.0615,0 -0.0209,-0.7287 -0.18332,-1.61933 z m -0.007,-9.16478 c -0.65723,-0.52853 -1.37767,-1.40398 -1.60101,-1.94543 -0.22332,-0.54146 -0.69396,-0.91383 -1.04585,-0.82749 -1.28844,0.31612 -1.05598,1.19763 0.64622,2.45054 2.03575,1.49842 3.8207,1.78603 2.00064,0.32238 z m 10.76982,-1.17719 c 1.32443,-0.70617 2.40805,-1.47374 2.40805,-1.70569 0,-0.44492 -4.48986,-2.98966 -5.27488,-2.98966 -0.25233,0 -0.0842,0.52853 0.37361,1.17451 0.45782,0.64598 0.83238,1.4628 0.83238,1.81515 0,0.35235 -0.37456,1.16916 -0.83238,1.81514 -1.06816,1.50718 -0.49125,1.48186 2.49322,-0.10945 z m -15.177,-0.42441 c -0.49169,-0.95881 -0.48827,-1.61044 0.0137,-2.58913 0.36887,-0.71932 0.48268,-1.24784 0.25292,-1.1745 -0.22977,0.0734 -1.64836,0.51772 -3.15241,0.98752 -1.50406,0.46981 -2.7214,0.95028 -2.70521,1.06774 0.0353,0.2559 5.31289,2.92175 5.86335,2.96172 0.21163,0.0153 0.0892,-0.54865 -0.27227,-1.25335 z m 11.17546,-3.03739 c -0.73533,-1.30668 -2.12204,-2.08773 -3.7066,-2.08773 -1.40626,0 -1.0791,0.80368 0.80122,1.96825 0.94034,0.5824 1.88532,1.46617 2.09996,1.96392 0.35692,0.82772 0.43838,0.84167 0.95411,0.16338 0.3801,-0.49994 0.33165,-1.15428 -0.14869,-2.00782 z m 16.27381,-10.25098 c 0,-0.89738 1.24773,-2.0979 2.77339,-2.66849 0.86816,-0.32469 3.61934,-0.68301 6.11371,-0.79627 6.07559,-0.27589 9.1412,-1.86846 8.30684,-4.31539 -0.75651,-2.21858 -6.16922,-1.90384 -6.16922,0.35874 0,1.12476 1.20215,1.786 2.32138,1.27686 0.455,-0.20699 0.43938,-0.464 -0.0549,-0.90236 -0.8337,-0.7394 -0.33649,-1.22121 0.89986,-0.87201 1.31201,0.37058 1.11802,2.29743 -0.28702,2.85091 -1.54944,0.61036 -3.26662,0.17807 -4.41438,-1.11129 -0.77881,-0.87487 -0.80938,-1.24134 -0.1947,-2.33362 1.35119,-2.40105 4.24653,-3.15303 7.44809,-1.93442 4.19045,1.595 3.69407,6.36936 -0.80613,7.75335 -1.08553,0.33385 -3.64666,0.60699 -5.69142,0.60699 -5.04358,0 -7.06305,0.35088 -8.78663,1.52661 -0.80238,0.54735 -1.45888,0.79952 -1.45888,0.56039 z M 98.045288,139.5456 c -0.993789,-1.30709 -3.869613,-1.9786 -8.485133,-1.98128 -2.581745,-0.002 -5.360807,-0.26259 -6.489253,-0.60963 -2.234902,-0.68733 -3.791515,-2.54703 -3.791515,-4.52977 0,-1.87825 2.731319,-3.8322 5.35682,-3.8322 2.313743,0 3.558336,0.60731 4.738307,2.31207 0.744064,1.07498 0.750637,1.40181 0.0483,2.40149 -0.930047,1.32381 -2.860966,1.84875 -4.469531,1.2151 -1.480449,-0.58319 -1.192285,-2.65516 0.400239,-2.87783 1.002939,-0.14025 1.044802,-0.0735 0.343729,0.5483 -1.101008,0.97648 0.07462,1.91799 1.390894,1.11392 2.131242,-1.30191 0.161758,-3.19829 -3.03696,-2.92423 -1.967666,0.16858 -3.180119,1.77402 -2.351142,3.1132 0.943295,1.52385 3.635442,2.39096 8.170758,2.6317 5.366106,0.28483 7.234507,0.8203 8.336801,2.38927 0.894017,1.27253 0.744321,2.22234 -0.162314,1.02989 z m 34.249302,-0.0567 c -0.81104,-1.55568 3.9733,-7.44824 8.97223,-11.05051 2.70733,-1.95094 2.9053,-2.02026 3.28103,-1.1489 0.32254,0.74798 -0.24784,1.40743 -2.94906,3.40968 -3.53227,2.61822 -7.77607,7.33803 -7.77607,8.64826 0,0.93453 -1.06336,1.03296 -1.52813,0.14147 z m 3.26886,-0.21889 c 0,-0.97115 1.45519,-1.16376 1.92881,-0.25531 0.36416,0.69849 -0.0638,1.10949 -1.15515,1.10949 -0.42551,0 -0.77366,-0.38438 -0.77366,-0.85418 z m -35.06437,0.0484 c -0.39489,-0.4703 1.0837,-1.42747 1.60844,-1.04124 0.20998,0.15456 0.38179,0.53728 0.38179,0.85048 0,0.63625 -1.4958,0.77961 -1.99023,0.19076 z m 3.73098,-0.77097 c 0,-1.2493 -4.426884,-6.2345 -7.498203,-8.44388 -1.843756,-1.32631 -2.946267,-2.48501 -2.946267,-3.09642 0,-0.53736 0.240329,-0.97702 0.534065,-0.97702 0.293736,0 2.111274,1.28628 4.038973,2.85839 3.756242,3.06335 7.992472,8.60892 7.418032,9.71077 -0.46614,0.8941 -1.5466,0.85789 -1.5466,-0.0518 z m 3.36723,-21.31066 c -0.17393,-20.659679 -0.19032,-20.912702 -1.48846,-22.984342 -1.46631,-2.339984 -1.42038,-2.814533 0.14888,-1.538218 1.3812,1.12337 2.83152,1.085461 3.98403,-0.10415 0.90197,-0.931015 0.90921,-0.921026 0.23208,0.320313 -0.50699,0.929432 -0.72891,7.130787 -0.80816,22.582377 -0.095,18.51838 -0.22573,21.38683 -1.00088,21.95739 -0.80201,0.59032 -0.90931,-1.44342 -1.06749,-20.23337 z m 22.0128,19.57745 c -0.79257,-0.65025 -0.94534,-3.38459 -1.17521,-21.03435 -0.15445,-11.85887 -0.51113,-20.952301 -0.85858,-21.888537 -0.67195,-1.810684 -0.0835,-2.152688 0.9186,-0.533866 0.8197,1.324202 2.21735,1.361214 4.03206,0.106782 l 1.39016,-0.960961 -1.51309,2.147014 -1.51307,2.147014 0.0188,20.382154 c 0.011,11.21019 -0.0728,20.38217 -0.18494,20.38217 -0.11201,0 -0.61367,-0.33634 -1.11472,-0.74742 z m -32.305877,-0.71448 c -0.900742,-0.79886 -0.329188,-1.52777 1.197965,-1.52777 0.867437,0 1.119058,0.23787 0.981189,0.92751 -0.231701,1.15902 -1.236923,1.43591 -2.179154,0.60026 z m 41.259097,-0.31907 c 0.24745,-1.28582 2.51251,-1.4129 2.51251,-0.14095 0,0.56945 -0.45068,0.90117 -1.35201,0.99514 -1.12499,0.11729 -1.31984,-0.0261 -1.1605,-0.85419 z m -12.70939,-2.35229 c -1.83524,-2.52677 -3.90156,-8.04085 -5.3252,-14.2105 -0.67211,-2.91279 -1.30376,-5.35614 -1.40367,-5.42968 -0.1,-0.0736 -0.49157,1.57969 -0.87036,3.67381 -0.93043,5.14372 -3.71666,13.10624 -5.3986,15.42818 l -1.37293,1.89534 -0.16844,-4.48448 c -0.14616,-3.89121 -0.01,-4.69375 1.03741,-6.06625 1.96904,-2.58286 3.46629,-6.2312 4.67037,-11.38025 1.48984,-6.37103 1.40221,-7.93256 -0.21933,-3.90817 -1.59413,3.95638 -4.45389,8.96896 -5.11694,8.96896 -0.27125,0 -0.4932,-1.41791 -0.4932,-3.15091 0,-2.34484 0.23351,-3.29354 0.91279,-3.70849 2.02665,-1.23802 4.44863,-6.68529 5.0207,-11.292064 0.13489,-1.086328 0.42992,-1.300767 1.93886,-1.409292 l 1.77975,-0.128019 0.99904,4.201355 c 0.98872,4.15806 2.90682,7.97722 4.48803,8.93632 0.61113,0.37068 0.76681,1.3416 0.61634,3.84384 l -0.20132,3.34789 -1.68203,-2.43865 c -0.9251,-1.34126 -2.34404,-4.03195 -3.1532,-5.97931 l -1.47118,-3.54064 0.3371,2.98965 c 0.54197,4.80661 2.43133,10.36185 4.64627,13.66135 2.01104,2.99576 2.05469,3.16917 1.89211,7.51538 l -0.16644,4.44887 z m 17.55728,0.87964 c -1.06593,-0.7846 -0.94191,-1.40363 0.40669,-2.02977 0.65922,-0.30608 1.20142,-0.26842 1.85127,0.12855 1.2383,0.75644 1.15804,1.61387 -0.20119,2.14931 -0.84955,0.33466 -1.34647,0.27471 -2.05677,-0.24809 z m -51.250305,-0.24855 c -1.016226,-0.748 -0.853022,-1.53116 0.423903,-2.03418 0.845574,-0.33309 1.343459,-0.27694 2.030869,0.22903 0.500868,0.36866 0.910669,0.81032 0.910669,0.98147 0,0.47362 -1.311019,1.33618 -2.030869,1.33618 -0.35105,0 -0.951608,-0.23062 -1.334572,-0.5125 z m 25.245925,0.24579 c -0.22622,-0.16651 -0.41131,-0.76395 -0.41131,-1.32766 0,-0.86613 0.24723,-1.00398 1.59568,-0.88977 1.26627,0.10724 1.59569,0.35556 1.59569,1.20287 0,0.74943 -0.35308,1.10494 -1.18438,1.19253 -0.6514,0.0686 -1.36946,-0.0115 -1.59568,-0.17797 z m 16.22247,-3.43475 c -0.60131,-0.4426 -0.44924,-4.86198 0.23269,-6.76232 0.33717,-0.93961 2.19583,-4.16054 4.13037,-7.15763 1.99079,-3.0843 3.64423,-6.27809 3.80975,-7.35901 0.62512,-4.0822 -3.6435,-5.51682 -6.14178,-2.06417 -0.97605,1.34892 -0.25978,2.34595 1.57295,2.18951 1.68275,-0.14363 2.17151,-1.44912 0.50612,-1.35184 -1.24518,0.0728 -1.34495,-0.63369 -0.13768,-0.97469 1.99761,-0.56422 3.52791,1.98621 1.90744,3.17897 -1.0743,0.79074 -3.81704,0.60721 -5.10618,-0.34168 -2.41833,-1.78 -0.64667,-5.1731 3.0828,-5.90427 4.12341,-0.80841 6.7814,1.3014 6.7814,5.3828 0,2.46971 -0.60058,3.62533 -4.59938,8.84979 -3.29948,4.31081 -5.20123,8.10264 -5.41285,10.79253 -0.0782,0.9934 -0.16386,1.80631 -0.19046,1.80646 -0.0266,1.5e-4 -0.22243,-0.12785 -0.43519,-0.28445 z m -15.32822,-0.86981 c -0.89437,-0.24407 -0.95624,-1.67966 -0.0894,-2.074 0.34976,-0.15911 1.0585,0.0218 1.57496,0.40189 0.82331,0.60599 0.83432,0.76382 0.0894,1.28061 -0.4673,0.32418 -1.17604,0.50036 -1.57496,0.3915 z m -14.65126,-1.46562 c 0,-2.39559 -2.14249,-6.64558 -5.633337,-11.17462 -1.774188,-2.30185 -3.594666,-4.97323 -4.045506,-5.93641 -1.8709,-3.99701 1.795752,-8.21782 6.399983,-7.36725 1.9308,0.35669 4.43936,2.50228 4.43936,3.79701 0,1.30594 -2.1208,3.22803 -3.56175,3.22803 -1.916084,0 -3.401232,-0.82293 -3.401232,-1.88465 0,-1.2575 1.402719,-2.15086 2.748792,-1.75064 0.90542,0.2692 0.8674,0.34815 -0.33133,0.68788 -1.598691,0.45309 -1.39347,1.39633 0.34491,1.58527 3.0836,0.33515 2.50467,-3.14176 -0.659508,-3.96083 -1.410916,-0.36522 -1.800054,-0.28381 -2.743846,0.57409 -1.908233,1.73456 -1.395818,3.57461 2.680798,9.6266 3.247816,4.82158 3.876126,6.13819 4.458716,9.34311 0.52121,2.86732 0.51914,3.84767 -0.009,4.23638 -0.52929,0.3896 -0.68709,0.15902 -0.68709,-1.00397 z m 33.32437,-0.63035 c 0.85232,-3.45557 5.08486,-8.70811 7.01706,-8.70811 0.5818,0 0.75233,0.66292 0.66758,2.59513 -0.0922,2.10158 -0.33338,2.68177 -1.26816,3.05062 -0.63489,0.25051 -2.43051,1.41577 -3.99026,2.58946 l -2.83591,2.13397 z m -37.966196,-0.95022 c -1.436114,-1.09568 -3.083549,-2.18432 -3.660964,-2.41922 -0.876482,-0.35657 -1.02021,-0.88061 -0.870373,-3.17339 l 0.179475,-2.7463 1.911845,1.41026 c 2.356455,1.73823 4.606853,4.93068 5.110773,7.25024 0.20834,0.95901 0.28016,1.72721 0.15958,1.7071 -0.12057,-0.0201 -1.39422,-0.93302 -2.830336,-2.02869 z m 18.826826,-1.3887 c -0.21444,-0.25538 -0.12202,-0.66145 0.20531,-0.90239 0.73206,-0.53884 1.85679,-0.0838 1.85679,0.75126 0,0.71906 -1.49334,0.8285 -2.0621,0.15113 z M 103.5407,116.7402 c -1.14612,-0.88053 -2.49985,-2.20971 -3.00828,-2.95374 l -0.924422,-1.35278 3.326542,0.14772 3.32655,0.14771 0.17654,2.44182 c 0.0971,1.343 -0.0461,2.60571 -0.31827,2.80603 -0.27292,0.20088 -1.4293,-0.35373 -2.57866,-1.23676 z m 28.54143,-1.16402 v -2.78596 h 2.27353 c 1.25044,0 2.68656,-0.11665 3.19137,-0.25923 0.51651,-0.14589 0.91783,-0.0395 0.91783,0.24337 0,0.82031 -3.29778,4.09996 -4.89926,4.87233 l -1.48347,0.71545 z M 104.27754,104.5183 c -1.56593,-1.86496 -1.5354,-1.97829 0.53293,-1.97829 1.64403,0 1.74074,0.095 1.74074,1.70838 0,2.08622 -0.68073,2.16703 -2.27367,0.26991 z m 6.91565,-0.6492 c 0,-1.00481 0.59871,-2.53979 1.45062,-3.7191 0.79784,-1.104473 1.45063,-2.291333 1.45063,-2.63746 0,-0.514533 0.16081,-0.531094 0.88158,-0.09082 1.12316,0.686095 0.64537,2.85269 -1.2398,5.62191 -1.83481,2.69526 -2.54303,2.92514 -2.54303,0.82544 z m 14.02848,0.11868 c -1.75492,-1.99343 -2.93277,-5.941777 -1.98142,-6.642024 0.52031,-0.382987 0.75816,-0.308167 1.01109,0.318046 0.18189,0.450358 0.97378,1.731843 1.75975,2.847738 1.34064,1.90341 1.95946,5.02458 0.99386,5.01284 -0.23935,-0.003 -1.04183,-0.69438 -1.78328,-1.5366 z m 6.86046,-0.11419 c 0,-1.67881 0.0824,-1.76067 1.77354,-1.76067 h 1.77355 l -1.04824,1.31412 c -1.84038,2.3072 -2.49885,2.42486 -2.49885,0.44655 z m -35.3406,-3.36227 c -0.937483,-0.645975 -1.887927,-1.654984 -2.112097,-2.24223 l -0.407581,-1.067741 1.41503,0.96096 c 0.922534,0.626505 2.143599,0.96096 3.508347,0.96096 1.739281,0 2.444441,-0.301928 4.169401,-1.785244 1.79832,-1.546402 2.07608,-1.658848 2.07608,-0.840471 0,1.479586 -1.4855,3.726966 -2.96905,4.491816 -1.95676,1.0088 -3.740137,0.85872 -5.68013,-0.47805 z m 38.67701,0.2861 c -1.71297,-0.73436 -2.84367,-2.818405 -2.42353,-4.466871 0.45422,-1.782099 1.40812,-2.388769 1.40812,-0.895545 0,0.583093 0.67598,1.65149 1.50219,2.374223 1.18052,1.032645 1.96334,1.314042 3.65557,1.314042 1.18434,0 2.46669,-0.230627 2.84965,-0.512507 0.47967,-0.353062 0.69631,-0.364875 0.69631,-0.038 0,0.261006 -0.80338,0.972108 -1.78527,1.580248 -1.85066,1.14619 -4.14765,1.39694 -5.90304,0.64438 z m -38.1513,-4.276693 c 0,-0.534985 -0.466171,-0.983901 -1.160497,-1.117544 -0.638272,-0.122858 -1.160496,-0.380205 -1.160496,-0.571875 0,-0.19168 0.522224,-0.470497 1.160496,-0.619611 0.766612,-0.179091 1.160497,-0.646201 1.160497,-1.376252 0,-1.034157 0.06661,-1.060787 1.036831,-0.414496 0.627483,0.417983 1.543828,0.593062 2.320989,0.443474 1.42431,-0.27415 1.56369,-0.04878 0.70235,1.135888 -0.38893,0.534894 -0.38893,0.887935 0,1.064859 1.05272,0.478893 0.60757,1.068447 -0.80673,1.068447 -0.763693,0 -1.538833,0.288291 -1.722529,0.640637 -0.494484,0.948482 -1.530911,0.77684 -1.530911,-0.253527 z m 42.36389,0.162016 c -0.60815,-0.685258 -1.20391,-0.878339 -2.16328,-0.701113 -1.43035,0.264241 -1.73684,-0.227482 -0.64343,-1.032292 0.51757,-0.380951 0.51957,-0.760995 0.008,-1.586831 -0.63817,-1.030911 -0.59797,-1.072197 0.79343,-0.815152 0.99364,0.183556 1.83184,0.02681 2.60277,-0.486694 1.1016,-0.733801 1.13711,-0.722804 1.13711,0.352255 0,0.624802 0.50608,1.370618 1.15815,1.706796 1.13984,0.587649 1.13596,0.604532 -0.24547,1.067822 -0.77199,0.2589 -1.4947,0.914021 -1.606,1.455819 l -0.20239,0.98509 z M 115.2103,95.312287 c -4.30246,-3.166838 -0.20711,-8.266563 5.52106,-6.875081 2.61044,0.634136 3.80755,1.885595 3.80755,3.980458 0,2.259127 -2.50658,4.143048 -5.51237,4.143048 -1.56964,0 -2.56053,-0.324154 -3.81624,-1.248425 z m 5.84711,-1.314133 c 2.11117,-1.553931 0.90131,-3.843841 -2.03087,-3.843841 -3.00434,0 -4.31858,2.787177 -1.90176,4.033163 1.70438,0.878692 2.53602,0.838657 3.93263,-0.189322 z m 31.89255,51.056356 c 0.8776,-0.77832 0.30748,-1.51353 -1.17364,-1.51353 -0.70529,0 -1.12625,0.29267 -1.12625,0.78301 0,1.39853 1.13883,1.76026 2.29989,0.73052 z m -64.407538,-0.42709 c 0.87759,-0.77832 0.307485,-1.51353 -1.173646,-1.51353 -0.705291,0 -1.126252,0.29266 -1.126252,0.783 0,1.39853 1.138836,1.76027 2.299898,0.73053 z m -3.530226,-3.49738 c -0.505647,-0.44845 -0.855663,-0.4724 -1.46493,-0.10019 -0.609267,0.37218 -0.641798,0.62981 -0.136144,1.07826 0.505647,0.44846 0.855663,0.4724 1.46493,0.10019 0.609267,-0.37218 0.641798,-0.62981 0.136144,-1.07826 z m 71.440354,0.94132 c 0,-0.83502 -1.12473,-1.2901 -1.85679,-0.75126 -0.32735,0.24094 -0.41975,0.64702 -0.20533,0.90238 0.56878,0.67739 2.06212,0.56794 2.06212,-0.15112 z"
       id="path1" /><rect
       style="fill:#000000;fill-opacity:0.0484172;stroke:url(#linearGradient2);stroke-width:1.765;stroke-dasharray:none;stroke-opacity:1"
       id="rect1"
       width="100"
       height="100"
       x="68.803085"
       y="80.270271" /></g></svg>
