<?xml version="1.0" encoding="UTF-8" standalone="no"?>
<!-- Created with Inkscape (http://www.inkscape.org/) -->

<svg
   width="99.999992mm"
   height="99.999992mm"
   viewBox="0 0 99.999992 99.999992"
   version="1.1"
   id="svg1"
   xml:space="preserve"
   inkscape:version="1.3.2 (091e20e, 2023-11-25, custom)"
   sodipodi:docname="barbe blanche .svg"
   xmlns:inkscape="http://www.inkscape.org/namespaces/inkscape"
   xmlns:sodipodi="http://sodipodi.sourceforge.net/DTD/sodipodi-0.dtd"
   xmlns="http://www.w3.org/2000/svg"
   xmlns:svg="http://www.w3.org/2000/svg"><sodipodi:namedview
     id="namedview1"
     pagecolor="#ffffff"
     bordercolor="#000000"
     borderopacity="0.25"
     inkscape:showpageshadow="2"
     inkscape:pageopacity="0.0"
     inkscape:pagecheckerboard="0"
     inkscape:deskcolor="#d1d1d1"
     inkscape:document-units="mm"
     inkscape:zoom="1.2825338"
     inkscape:cx="273.677"
     inkscape:cy="190.63825"
     inkscape:window-width="1366"
     inkscape:window-height="705"
     inkscape:window-x="-8"
     inkscape:window-y="-8"
     inkscape:window-maximized="1"
     inkscape:current-layer="layer1" /><defs
     id="defs1" /><g
     inkscape:label="Calque 1"
     inkscape:groupmode="layer"
     id="layer1"
     transform="translate(-49.273486,-126.74058)"><path
       style="fill:#000000"
       d="m 95.031916,206.38073 c -3.419592,-2.38374 1.089193,-6.08231 0.13961,-9.33397 -1.335023,-2.20788 2.061394,-8.4568 -2.443969,-7.80037 -2.8298,0.317 -6.615255,1.25428 -5.448278,-3.01176 0.0309,-1.97028 0.06845,-3.94044 0.102612,-5.91067 -2.592421,-0.9809 -1.941958,-5.12943 -4.758227,-5.10635 -4.86457,-0.28999 -9.764228,-0.50501 -14.629978,-0.25389 -3.205538,2.63037 -5.562228,-1.17927 -4.508782,-4.23208 2.197728,-2.68799 4.331139,1.99098 7.256654,0.54117 2.672268,-0.0615 7.558886,0.59822 4.439017,-3.18296 -0.956346,-2.11869 -2.245153,-7.36946 0.306131,-7.92533 1.42241,3.0589 2.63956,6.63272 5.519968,8.59262 0.386023,-3.71093 0.545234,-7.57845 2.193681,-11.03261 1.472606,-3.66887 4.967401,-6.34669 9.028736,-5.52041 4.716945,1.30497 2.614735,-4.31759 3.011609,-7.03247 -0.05882,-2.46939 -3.943799,-6.53589 0.454808,-7.56624 2.693309,-0.14264 7.559312,-0.39849 6.066092,3.87301 -0.49107,1.49888 -2.046135,2.53863 -1.58544,4.2631 0.0308,2.1763 -0.0667,4.36357 0.16619,6.52979 3.12566,0.57463 6.34009,1.58986 8.55249,4.04458 3.7055,3.01273 3.72364,8.24125 3.51742,12.60281 -1.00463,2.11839 -0.0624,3.1388 1.60922,1.30139 2.49501,-1.7053 2.4679,-7.15316 4.21385,-7.65557 2.796,2.53983 -0.15154,7.2825 0.76263,9.11426 3.40126,-0.94518 8.03328,1.02832 10.58067,-1.60405 3.63337,-1.40684 4.68823,4.3657 3.6811,6.67488 -2.52064,1.76517 -4.19449,-2.6809 -7.17309,-1.19125 -4.16004,0.32816 -8.46298,-0.27325 -12.51865,0.82175 -2.59859,0.48829 -4.03261,1.73952 -4.93097,4.09451 -1.33677,0.84827 -0.94911,4.67925 -0.94693,6.74962 1.28383,3.7864 -3.25597,1.11647 -4.97313,1.53684 -3.985174,-0.86531 -2.53056,3.8173 -2.70234,6.21256 0.1279,1.72182 -0.12739,3.61573 0.2377,5.23104 1.98733,1.23848 3.69884,4.47226 1.07687,5.95513 -2.037985,0.43332 -4.287631,0.23578 -6.297274,0.22092 z m 1.893528,-1.55296 c 0.999518,-2.79259 2.446246,3.25534 4.474436,0.0711 0.89362,-3.20926 -3.666051,-2.56363 -2.555555,-5.8919 -0.678816,-3.18221 0.794457,-7.59436 -0.322023,-10.00535 -4.366552,-0.84692 -1.813005,4.57581 -2.312102,7.0213 0.538954,3.18383 -0.769209,6.08249 -1.247091,8.72322 0.185903,0.96785 2.121424,1.53921 1.962335,0.0817 z m 1.395711,-16.5593 c 2.730995,-0.003 5.461985,-0.005 8.192975,-0.008 -0.0148,-1.98315 0.11854,-4.26622 0.14192,-6.03576 -2.2805,0.3996 -3.29185,2.06322 -5.48371,0.8518 -2.355017,0.97567 -4.385838,-0.48845 -6.866677,-0.53672 -1.942999,0.0936 -5.095629,-2.17473 -6.302063,-1.34201 0.102253,2.44059 0.192787,4.88171 0.309224,7.32167 3.317824,-0.28597 6.674509,-0.21755 10.008331,-0.25098 z m 4.353475,-6.12872 c 0.50455,-1.10403 1.40735,-3.92132 -0.78264,-3.32082 -2.813884,-2.00568 -3.266432,2.15617 -1.935371,3.63954 0.909251,0.023 1.868741,0.0713 2.718011,-0.31872 z m -4.029395,-1.08499 c 0.981573,-3.35886 -4.843699,-4.3206 -2.973527,-0.32877 -0.48271,1.63491 3.88226,2.38546 2.973527,0.32877 z m 7.230745,0.52566 c 2.29731,-0.64891 3.31045,-4.6641 -0.16939,-3.02189 -1.98424,-0.40779 -1.95672,2.33907 -1.14376,3.36035 0.46356,0.0509 0.89341,-0.19124 1.31315,-0.33846 z m -11.199494,-0.66051 c 0.867008,-1.95661 -1.849329,-4.9099 -2.801404,-3.03901 0.409554,1.35173 -0.561846,4.01177 1.730868,3.65182 0.490955,0.12949 1.289012,0.18431 1.070536,-0.61281 z m -3.594077,-1.02911 c -0.33549,-2.14911 0.585065,-3.48157 -2.335062,-3.21931 -1.464024,1.80701 1.504972,5.9965 2.335062,3.21931 z m -3.341831,-2.07443 c 0.847998,-2.47524 -4.091767,-2.36956 -1.765599,0.042 0.782009,1.26936 2.008891,2.67355 1.765599,-0.042 z m 21.355692,0.42078 c -0.0699,-0.97029 -0.79414,0.89133 0,0 z m -2.11666,-0.65791 c 3.0248,-0.72886 6.5869,-1.10407 8.76322,-3.52423 2.21104,-2.65504 3.58875,-6.52396 2.5098,-9.90948 -1.19051,1.05005 -2.14581,5.81091 -4.63653,7.31009 -3.82658,2.13475 -8.33693,3.05599 -12.69322,3.1903 -6.259814,-0.49372 -12.346124,-2.2836 -18.364025,-3.98096 -2.853863,-1.58246 -5.488456,-4.17818 -6.497137,-7.35956 -0.202981,-1.29309 -1.385612,-3.9654 -1.469347,-1.05904 -0.189623,4.92565 3.141277,9.24339 6.769317,12.19587 6.360719,0.95294 12.54837,3.01789 19.010922,3.35142 2.20197,0.25429 4.42459,0.16434 6.607,-0.21441 z m 25.78756,-1.44136 c 1.45715,-2.2021 -2.35915,-2.44266 -0.66061,-4.26444 -1.54608,-2.96183 -3.16853,1.33309 -5.71881,0.1241 -3.21991,0.54394 -7.76856,-0.99231 -9.79966,2.20956 -2.17918,2.21912 2.32646,0.41488 3.56335,0.81238 3.38375,-0.0377 6.79144,-0.41751 10.159,-0.23894 0.18751,0.71948 1.64405,2.80156 2.45673,1.35734 z m -66.121139,-1.48897 c 2.702429,-1.2442 6.195937,0.15527 9.219639,-0.3407 2.184626,0.26307 4.693126,-0.28217 1.902276,-2.05856 -0.970823,-1.21462 -2.757964,-0.37934 -4.096472,-0.59366 -3.159742,-0.16136 -6.86688,1.93591 -7.733615,-0.97978 -2.335001,-1.06616 -1.447685,2.0762 -0.375022,2.23286 -2.204237,0.60743 -0.334711,3.73059 1.083194,1.73984 z m 38.216909,-1.02635 c 2.62572,-0.66921 7.0051,-0.81212 6.51465,-4.59221 -0.13839,-3.55586 0.81187,-7.92335 -1.77078,-10.78385 -2.48294,-2.5003 -5.41776,-5.38128 -9.24971,-4.9499 -1.224034,-0.35918 -4.062364,-0.62776 -4.733521,0.25229 -2.549098,-0.56569 -6.668742,-1.43063 -9.099363,0.74578 -4.187655,3.9999 -4.193633,10.04817 -4.349451,15.42792 3.067689,1.50073 6.589975,1.73044 9.836038,2.74272 3.227021,1.92473 5.146886,-0.54548 6.552937,-2.59588 1.79452,2.38305 2.48377,5.49283 6.2992,3.75313 z m -1.67878,-7.56735 c -2.90955,-1.53605 2.02793,-1.35619 2.54185,-3.07824 3.37645,-2.51954 -0.61076,5.68918 -2.54185,3.07824 z m 1.94483,-1.04885 c 1.32897,-1.95752 -3.77655,1.42978 -0.46296,0.32401 z m -15.237775,0.01 c -2.330906,-1.34877 -0.880165,-4.97043 0.890404,-2.47122 1.259929,1.38695 6.604341,2.90637 2.962271,3.00296 -1.127768,-0.12718 -2.873903,1.15661 -3.852675,-0.53174 z m 2.073292,0.0898 c 1.879833,-0.82709 -4.257811,-3.6941 -1.719792,-0.71131 0.2918,0.68773 1.014053,1.08629 1.719792,0.71131 z m 7.472998,8.3027 c 0.151168,-2.63561 -1.841557,-2.46534 -2.219314,-0.0634 0.437264,0.46418 1.80727,0.61945 2.219314,0.0634 z m -0.33607,-31.10832 c 3.319955,0.34256 2.331935,-5.81621 -0.267436,-3.69262 -0.554168,2.1363 -1.479569,1.90169 -1.564594,-0.26955 -3.165596,-1.44886 -3.660984,3.7106 -1.370478,4.51444 0.663086,11.54165 0.08968,6.33782 0.13518,9.45556 1.028646,-0.14344 2.635371,0.27624 3.324544,-0.19789 z"
       id="path1"
       sodipodi:nodetypes="cccccccccccccccccccccccccccccccccccscccccssccccccccccccccccccccccccccccccccccccccccccccccccccccccccccccccccccccccccccccccccccccccccc" /><rect
       style="fill:none;stroke:#ff0000;stroke-width:1.28667;stroke-dasharray:none"
       id="rect1"
       width="98.713326"
       height="98.713326"
       x="49.916821"
       y="127.38391"
       ry="0" /></g></svg>
