<?xml version="1.0" encoding="UTF-8" standalone="no"?>
<!-- Created with Inkscape (http://www.inkscape.org/) -->

<svg
   width="100mm"
   height="100.00001mm"
   viewBox="0 0 100 100.00001"
   version="1.1"
   id="svg1"
   inkscape:version="1.3.2 (091e20e, 2023-11-25)"
   sodipodi:docname="Maxime.svg"
   xmlns:inkscape="http://www.inkscape.org/namespaces/inkscape"
   xmlns:sodipodi="http://sodipodi.sourceforge.net/DTD/sodipodi-0.dtd"
   xmlns:xlink="http://www.w3.org/1999/xlink"
   xmlns="http://www.w3.org/2000/svg"
   xmlns:svg="http://www.w3.org/2000/svg">
  <sodipodi:namedview
     id="namedview1"
     pagecolor="#ffffff"
     bordercolor="#000000"
     borderopacity="0.25"
     inkscape:showpageshadow="2"
     inkscape:pageopacity="0.0"
     inkscape:pagecheckerboard="0"
     inkscape:deskcolor="#d1d1d1"
     inkscape:document-units="mm"
     inkscape:zoom="0.5253869"
     inkscape:cx="18.081912"
     inkscape:cy="583.3796"
     inkscape:window-width="1832"
     inkscape:window-height="1027"
     inkscape:window-x="0"
     inkscape:window-y="25"
     inkscape:window-maximized="0"
     inkscape:current-layer="layer1" />
  <defs
     id="defs1">
    <rect
       x="90.493614"
       y="272.45389"
       width="95.358864"
       height="48.652481"
       id="rect9" />
  </defs>
  <g
     inkscape:label="Calque 1"
     inkscape:groupmode="layer"
     id="layer1"
     transform="translate(-100.0125,6.085417)">
    <g
       id="g3"
       transform="translate(50.701464,-42.942838)">
      <path
         style="fill:#000000;stroke-width:0.994478;stroke-linecap:round;stroke-linejoin:round;stroke-dasharray:none;stroke-dashoffset:0"
         d="m 110.92077,136.8573 c -0.26441,-0.36554 0.28878,0.008 0,0 z m 15.16517,-0.32148 c 0.01,-0.32623 0.12875,0.19124 0,0 z M 91.7339,136.05693 c -0.0218,-0.44929 0.26642,0.14229 0,0 z m -7.54651,-3.13084 0.0497,0.009 z M 97.16392,131.275 c 0.4559,-0.71304 1.603405,0.20903 0,0 z m -28.10039,-1.65989 c -1.07461,-0.25211 1.22004,-0.0156 0,0 z m 0.5301,-0.0257 0.0451,-0.0205 z m 27.77094,-5.22031 c -1.00399,-0.62076 1.2522,-0.26741 0,0 z m -3.89543,-0.63709 c -0.003,-0.50163 0.34745,0.3268 0,0 z m 3.8874,-0.42871 0.0148,-0.0418 z m -8.29136,-0.66022 0.0192,-0.0217 z m 8.73888,-3.9593 c 0.11019,-0.42712 0.68863,0.22901 0,0 z m -0.21792,-0.21282 c -0.61034,-1.35476 1.786287,0.0211 0,0 z m 1.779106,-2.47001 C 95.70514,111.65101 91.81388,107.47887 88.19661,103.09847 85.54908,101.55518 84.98613,97.977633 83.60169,95.149623 82.5726,92.443082 80.11126,87.159972 79.95178,86.63961 c -1.98299,-1.705661 -1.38435,-6.809406 0.72816,-9.439851 1.74252,-3.342549 3.34548,-6.718239 5.05013,-9.892219 3.39077,-3.097225 5.56607,-7.261052 8.89364,-10.39462 2.26024,-2.083783 3.7661,-7.982355 6.50437,-3.347623 3.64722,4.089277 7.31416,8.207655 11.24679,12.025181 2.73108,2.407203 2.58058,7.24648 4.58068,10.479811 1.00637,3.149718 4.45974,6.495019 2.82739,9.786145 -1.65378,3.674676 -2.87123,7.438505 -4.60863,11.096029 -0.59259,2.79084 -3.3111,4.448077 -5.08549,7.099627 -3.26668,4.01463 -6.20369,8.41244 -10.308601,11.70908 l -0.414953,0.23978 z m -0.224772,-0.75144 c -0.111673,-0.32317 -0.200729,0.17693 0,0 z m 0.863236,-0.0803 -0.01321,0.0737 z m -0.130909,-0.94198 c 1.032939,-0.77563 -0.859331,-0.0911 -1.3e-4,0 z m -0.08269,-0.13038 c -0.02194,-0.23534 0.164398,0.0765 0,0 z m -0.511966,-0.28936 c 0.04115,-0.69719 -0.166642,0.33163 0,0 z m 1.107465,-0.0626 c 0.53592,-0.38996 -0.0357,-0.9244 0,0 z m -2.82536,-0.0461 -0.0398,0.013 z m 4.51095,-0.27539 c 0.0139,-0.51616 -0.14997,0.43131 0,0 z m -1.24649,-0.35676 c 0.52499,-1.31163 -0.42798,0.36239 0,0 z m -2.148822,-0.27697 c -0.06145,-0.35416 -0.0611,0.4897 0,0 z m 2.922202,-0.19423 c -0.0778,-0.2935 -0.0455,0.3182 0,0 z m -0.77259,-0.0359 c 0.38637,-0.33109 -0.22577,-0.26359 0,0 z m -2.60717,-0.21311 c 0.37637,-0.42549 -0.29458,-0.0312 0,0 z m -0.75218,-0.31535 c 0.20365,-1.86266 -0.66042,-0.53338 1.4e-4,2.4e-4 z m -0.17221,-0.48767 c 0.14504,-0.56533 0.0513,0.21604 0,0 z m 1.504138,0.16176 c 0.06385,-0.54596 -0.212558,0.19872 0,0 z m 3.374262,-0.0758 c 1.73955,-2.65523 4.60325,-4.27892 6.10564,-7.30965 1.85588,-1.54593 3.52539,-6.363167 4.20521,-5.020177 0.0374,-1.77556 -2.93123,-4.16276 -4.10567,-4.51016 -1.73563,3.61144 -3.84991,7.052407 -5.89895,10.470837 -0.12711,1.99391 -0.45068,4.98654 -0.30623,6.36915 z m 0.14104,-2.61981 c -0.41027,-1.39251 0.43888,0.231 0,0 z m 5.05865,-3.35737 c 0.0654,-0.15728 0.0661,0.15704 0,0 z m -0.81923,-1.94106 c -0.0179,-0.43963 0.14203,0.12949 0,0 z m 0.44095,-0.3897 c 0.12493,-0.21951 0.0265,0.3095 0,0 z m -0.0899,-0.17118 c -0.0423,-0.20071 0.22475,0.16888 0,0 z m 1.07565,-0.97151 c -0.95618,-0.4385 0.76458,-0.10042 0,0 z m 0.19734,-0.33814 c -0.47549,-0.4119 0.26169,-0.32657 0,0 z m 0.36977,-0.63705 c -0.18588,-0.35603 0.46626,-0.46276 0,0 z m 2.48238,-0.98713 0.0874,-0.0397 z m -2.91576,-1.743197 0.0749,-0.11047 z m -6.15299,13.082557 c 0.0107,-0.47621 -0.22873,0.17747 0,0 z m -3.64164,-0.4745 c 0.324815,-1.18466 -0.30403,-0.39316 0,0 z m 1.467611,0.002 c 0.433779,-1.18145 -0.267069,-0.43289 0,0 z m -3.282421,-0.0263 c 0.0938,-0.26957 -0.20362,0.18922 0,0 z m 2.399401,-0.0547 c -0.01284,-0.43285 -0.19867,0.47358 0,0 z m 1.345569,-0.1327 c -0.0188,-0.40901 -0.11916,0.2421 0,0 z m 1.05276,0.003 c 0.0876,-0.54347 -0.28971,0.0503 0,0 z m -3.38839,-0.17973 0.0441,-0.53629 z m 1.648176,-0.10681 c -0.0084,-0.39313 -0.328463,0.21792 0,0 z m -2.061846,-0.10217 c -0.0143,-0.47144 -0.18731,0.2381 0,0 z m 3.35753,-0.59801 -0.0213,0.29199 z m -1.601695,0.30387 c 0.475835,-0.70171 -0.472516,0.3036 0,0 z m -2.932185,-0.0671 c -0.15844,-0.44011 -0.16465,0.30453 0,0 z m -0.57719,0.0142 c 0.37866,-1.21347 -0.39438,-0.3387 0,0 z m 1.01136,-0.20325 c -0.0521,-0.31589 -0.0888,0.27453 0,0 z m 4.90406,-0.0394 c 0.43249,-0.79702 -0.34886,-0.35852 0,0 z m 2.30088,-0.0374 c 0.0849,-0.6273 -0.22713,0.10649 0,0 z m -6.80438,-0.0924 -0.0612,0.0699 z m 2.644024,0.0206 c -0.02174,-0.19364 -0.159563,0.17875 0,0 z m -0.529268,-0.14379 c -0.01578,-0.51492 -0.127127,0.36281 0,0 z m 0.453005,-0.10511 -0.05717,0.1045 z m 1.555489,0.004 c 0.0194,-0.66003 -0.28473,0.3615 0,0 z m -1.23216,-0.10241 c -0.114531,-0.38354 -0.163021,0.31258 0,0 z m -4.37035,0.0218 0.0812,-0.20166 z m 5.09103,-0.13944 c 0.2839,-0.76391 -0.36904,-0.12901 0,0 z m -1.087475,-0.0142 c 0.607645,-0.61355 -0.466896,-0.25846 0,0 z m 1.933725,-0.0325 -0.0398,-0.0127 z m -1.655336,-0.0172 c 0.523576,-1.48593 -0.316238,-0.51249 0,0 z m 0.662046,-0.3905 c 0.0684,-0.34616 -0.19843,0.26802 0,0 z m -2.5668,-0.27332 c 0.40589,-1.01478 -0.4132,0.16427 0,0 z m 1.916557,-0.2125 c -0.07663,-0.29835 -0.05479,0.40661 0,0 z m 0.340133,0.0419 c 0.54794,-1.08951 -0.590005,-0.39663 0,0 z m -5.98783,-0.19425 c 0.0794,-4.09973 -2.31085,-10.554177 -4.67197,-12.393247 -2.18162,2.03652 -4.40158,4.201397 -1.24083,5.361267 1.98775,2.29285 3.7652,4.8255 5.9128,7.03198 z m -5.77597,-7.21873 c 0.12737,-0.4308 0.069,0.35452 0,0 z m -0.62771,-0.16314 c -0.26111,-0.40464 0.33394,0.1481 0,0 z m -1.22356,-1.284987 0.0406,-0.0472 z m 9.15636,8.821807 c 0.36159,-0.50894 -0.27384,-0.0817 0,0 z m -0.52993,-0.14819 c -0.1475,-0.2714 -0.058,0.34501 0,0 z m 6.14559,-0.0469 c 0.22928,-0.33599 -0.51947,0.14485 0,0 z m -4.80379,-0.25591 c -0.24912,-0.24031 0.0537,0.71611 0,0 z m -1.08101,-0.13254 -0.0428,0.0629 z m 5.94382,-0.007 c -0.0105,-0.60104 -0.14201,0.37667 0,0 z m -3.89193,-0.15321 c 0.15107,-0.3633 -0.31401,0.16377 0,0 z m 0.37936,-0.0222 -0.0122,-0.0425 z m 7.92398,-0.0628 -0.0726,-0.0295 z m -6.898716,-0.19246 c -0.136829,-0.37234 0.02753,0.60212 0,0 z M 95.6519,107.24305 c -0.0696,-0.291 -0.20305,0.37929 0,0 z m 6.33348,0.0719 c 0.092,-0.2854 -0.22287,-0.0666 0,0 z m -4.18641,-0.0637 c 0.42929,-0.93755 -0.83024,-1.12645 0,0 z m 3.01209,-0.0726 c -0.11591,-0.48769 0.0327,0.46323 0,0 z m -2.79568,0.0746 c 0.56765,-0.45385 -0.35075,-0.1566 0,0 z m -0.49306,-0.11918 -0.003,-0.0675 z m 3.68141,-0.11008 c 0.1347,-1.66981 -0.24925,0.55782 0,0 z m -2.70837,-0.0572 c 0.355027,-0.46594 -0.39779,-0.0256 0,0 z m -0.21557,-0.0732 -0.0816,-0.0657 z m -3.50177,-0.28995 c 0.0126,-0.32299 -0.0954,0.20493 0,0 z m 3.75908,-0.0308 c 0.730402,-0.49993 -0.51987,-0.15024 0,0 z m -1.46084,-0.11463 c 1.553199,0.47225 1.0664,0.11913 -0.0892,-0.0667 z m 0.33195,-0.0762 c 0.46997,-0.64845 -0.56772,-0.2467 0,0 z m -0.42229,-0.13224 c 0.35367,-0.55944 -0.41638,-0.15025 0,0 z m -0.14269,-0.53591 c -0.1308,-0.68965 -0.16681,0.49543 0,0 z m 0.23217,-0.0687 c 0.58517,-0.52176 -0.56145,-0.5555 0,0 z m -0.61139,-0.25344 c 0.62847,-0.33157 -0.4276,-0.32401 0,0 z m 2.834773,-0.11037 c 0.0797,-0.54238 -0.207497,0.51375 0,0 z m -8.283253,-0.3546 c -0.14925,-0.51495 -0.0745,0.58641 0,0 z m 5.51721,-0.17383 c -0.18636,-1.0739 -0.54053,0.38624 0,0 z m 0.12068,0.10734 c 0.12117,-0.45587 -0.27043,0.0285 0,0 z m 4.24016,-0.0853 c 0.1704,-0.55366 -0.19169,0.23322 0,0 z m -5.27577,-0.20232 c -0.12323,-0.37876 0.0638,0.59958 0,0 z m 4.11734,0.004 c 0.37964,-0.83521 -0.441479,0.0902 0,0 z m 1.80257,-0.0469 c 0.33583,-0.31219 -0.49621,-0.75442 0,0 z m -0.68652,0.0111 c 0.47581,-0.94456 -0.27876,-0.21674 0,0 z m -3.55633,-0.21322 c -0.14813,-0.87205 -0.15136,0.76239 0,0 z m -1.20292,-0.0859 c 0.056,-0.34599 -0.14109,0.1931 0,0 z m 0.45917,-0.0808 c 0.15974,-0.40571 -0.22743,0.0962 0,0 z m -6.3348,-0.0915 c 0.16342,-0.49384 -0.30458,0.12037 0,0 z m 6.11369,0.01 c -0.18377,-0.27646 -0.17124,0.2058 0,0 z m -0.13394,-0.17606 -0.26782,-0.10992 z m 6.04396,0.0527 c -0.0888,-0.55145 -0.29799,0.16844 0,0 z m -0.1459,-0.43711 c -0.27465,-0.19172 -0.13581,0.37445 0,0 z m -4.0559,-0.0328 c 0.0512,-0.59611 -0.15645,0.24414 0,0 z m -2.78669,-0.03 c -0.002,-0.16599 -0.12144,0.1361 0,0 z m 0.53737,-0.13077 c -0.0528,-0.55717 -0.43159,0.39201 0,0 z m 3.227835,0.0138 c 0.09674,-0.5054 -0.189996,0.18078 0,0 z m 1.108815,0.002 c 0.005,-0.18016 -0.16448,0.12179 0,0 z m 0.1942,-0.0327 c 0.0325,-0.53385 -0.19305,0.16608 0,0 z m -3.79795,-0.0139 c 0.95622,-0.13256 -0.11393,-0.43456 0,0 z m -1.31906,-0.14008 c -0.26401,-0.63797 -0.19954,0.29627 0,0 z m 2.45407,0.0699 -0.0659,-0.0564 z m 5.24277,-0.003 c 0.30687,-0.80777 -0.4789,0.0139 0,0 z m -8.46535,-0.23695 c 0.006,-1.00259 -0.25042,0.37805 0,0 z m 3.26931,0.0208 c 0.28877,-0.60765 -0.20564,0.11768 0,0 z m -2.66014,-0.30835 c 0.18517,-0.75741 -0.53452,0.29286 0,0 z m -0.08,-0.12786 c 0.10932,-0.19261 0.0883,0.2016 0,0 z m 4.258628,0.0793 c -0.05404,-0.38836 -0.09162,0.34393 0,0 z m -3.287318,0.005 c 0.24484,-1.17927 -0.50009,0.14637 0,0 z m -1.27731,-0.071 c 0.3591,-0.60231 -0.30022,-0.12474 0,0 z m -0.47992,-9.6e-4 c 0.0561,-0.48895 -0.25286,-0.059 0,0 z m 0.29197,-0.39519 c -0.16692,-0.86916 -0.0772,0.87837 0,0 z m 2.92148,0.0353 c -0.20828,-1.02939 -0.0371,0.73293 0,0 z m 4.785,-0.009 c 0.73618,-1.20788 -0.82214,0.17006 0,0 z m -0.37055,-0.0553 -0.0745,0.15715 z m -3.091133,0.0609 c -0.06756,-0.29549 -0.09103,0.30382 0,0 z m -3.455667,0.0159 -0.0118,-0.10274 z m 7.4074,0.009 -0.0391,-0.0325 z m -7.66249,-0.16992 c 0.98089,-1.67916 -0.59017,0.4567 0,0 z m -1.07817,-0.0488 c -0.21123,-1.81058 -0.31932,0.68549 0,0 z m 7.94294,-0.0216 c -0.0772,-0.55898 -0.0559,0.36997 0,0 z m -2.29248,-0.0718 -0.166184,-0.48337 z m 1.82745,-0.1377 c -0.0199,-0.37414 -0.15308,0.24837 0,0 z m 1.55048,-0.0227 -0.0669,-0.48455 z m -2.92813,-0.0252 c -0.05648,-0.36294 -0.08705,0.33093 0,0 z m -5.42923,-0.003 c 0.19945,-0.27155 -0.31327,-0.006 0,0 z m 1.42542,-0.0599 c -0.0272,-0.22018 -0.0743,0.17422 0,0 z m -0.2208,-0.0518 c -0.14024,-0.12346 0.0236,0.20322 0,0 z m 7.84548,-0.0791 c -0.15881,-0.33389 0.0853,0.40383 0,0 z m -6.4034,-0.003 c -0.12803,-0.27585 -0.24624,0.35416 0,0 z m 4.14209,-0.0717 c -0.22104,-0.067 -0.006,0.30138 0,0 z m -1.08548,0.0539 c -0.0257,-0.39683 -0.19012,0.16035 0,0 z m -5.35018,-0.11617 -0.0572,0.11043 z m 8.98409,0.10786 c 0.0632,-0.42366 -0.20516,0.0791 0,0 z m -5.175477,-0.0981 c -0.10989,-0.16771 -0.03075,0.32881 0,0 z m 1.682357,-0.0831 c -0.20429,-0.75956 -0.0332,0.56941 0,0 z m -5.89177,0.0231 c -0.18198,-1.28667 -0.6799,0.22783 0,0 z m 1.4507,0.0814 c -0.0688,-0.13994 -0.0699,0.19265 0,0 z m 8.2079,0.0278 c 0.11157,-0.24371 -0.18281,0.0585 0,0 z m -6.29548,-0.0368 c 0.12832,-0.22363 -0.21577,0.0343 0,0 z m 4.78647,-0.10719 c -0.0714,-0.1912 -0.048,0.22731 0,0 z m -7.68054,-0.0592 c -0.0184,-0.40808 -0.37833,-0.129 0,0 z m 5.12626,-0.30226 c -0.27627,-0.26653 0.11621,0.59446 0,0 z m -6.46309,0.19353 c 0.0148,-0.28691 -0.21683,0.012 0,0 z m 3.95811,-0.0728 c -0.0712,-0.21169 0.0163,0.28876 0,0 z m 4.91566,-0.0223 c 0.65218,-0.87916 -0.66185,-0.0188 0,0 z m 1.01075,0.031 c 0.25521,-0.36706 -0.28909,0.0541 0,0 z m 7.17789,-0.0889 c -0.0283,-0.2925 -0.11248,0.25476 0,0 z m -15.07639,-0.17668 c -0.31987,-0.71892 -0.0897,0.57749 0,0 z m 5.84182,0.0363 c 0.0633,-0.80244 -0.13827,0.24504 0,0 z m 3.0641,0.0749 c 0.37167,-1.132487 -0.55111,-0.57208 0,0 z m -6.05913,-0.20205 c -0.24652,-1.221227 -0.30886,0.57011 0,0 z m -3.83947,0.1048 c -0.0506,-0.25894 -0.0498,0.25922 0,0 z m 5.9457,0.009 c 0.28588,-0.73771 -0.28897,-0.15683 0,0 z m 2.75429,-0.005 -0.0633,0.0332 z m -9.39662,-0.11433 c 0.15061,-1.610477 -0.22043,0.52021 0,0 z m 1.35153,-0.009 c -0.0658,-1.132427 -0.22689,0.23344 0,0 z m 8.37353,-0.0197 0.0114,-0.11367 z m 8.93849,-7.9e-4 c -0.0975,-0.3075 -0.0675,0.22468 0,0 z m -19.1636,-0.023 -0.0139,0.0671 z m 9.80914,-0.0721 c -0.17603,-1.022487 -0.39948,-0.11029 0,0 z m -5.71333,-0.14654 c -0.0733,-0.658547 -0.0967,0.6213 0,0 z m -4.22383,0.12537 c -0.0885,-0.2249 -0.0772,0.13966 0,0 z m 10.69069,-0.14882 c -0.15417,-0.575787 -0.0654,0.56361 0,0 z m -6.0027,0.0885 c 0.2084,-0.530197 -0.21354,-0.15879 0,0 z m 1.315531,-0.10954 c -0.08597,-0.555517 -0.08548,0.47793 0,0 z m -2.052811,-0.0471 c 0.52723,-1.936587 -0.49397,0.0652 0,0 z m -10.10913,0.0932 -0.077,-0.0514 z m 7.96793,-0.2131 c 0.0186,-1.100467 -0.4538,-0.23862 0,0 z m -8.20115,0.0403 c 0.014,-0.307047 -0.23961,0.0942 0,0 z m 7.2505,-0.0242 -0.15494,-0.1532 z m -0.97426,-0.19027 c 0.019,-0.624117 -0.23375,0.26134 0,0 z m 5.1295,-0.01 c 0.13105,-0.753017 -0.26771,0.28989 0,0 z m 2.26187,-0.0243 c -0.0457,-0.230947 -0.12045,0.32246 0,0 z m 1.92759,5.5e-4 c -0.18726,-0.645177 -0.1587,0.36131 0,0 z m 1.48997,0.045 c 0.72368,-2.729437 4e-5,-0.260427 0,0 z m -9.68955,-0.127387 -0.0518,0.113547 z m 5.230471,0.0455 c 0.01631,-0.647933 -0.207197,0.23033 0,0 z m 0.717649,-0.004 c 0.33312,-0.492643 -0.54159,0.0444 0,0 z m 4.29695,0.0412 c 0.30738,-1.159893 -0.36128,-1.343773 0,0 z m -1.20998,-0.0593 c 0.85027,-1.39454 -0.6192,-0.0928 0,0 z m 8.22516,-0.0536 c -0.0572,-0.42907 -0.13517,0.178717 0,0 z m -11.679476,-0.0488 c 0.03742,-0.67506 -0.133179,0.356037 0,0 z m 11.792896,0.0582 c 0.29881,-0.20641 -0.23148,-0.014 0,0 z m -6.56322,-0.10072 c 0.0115,-1.08528 -0.18026,0.389077 0,0 z m -4.64185,-0.0302 c 0.74752,-0.0777 -0.44445,-0.30375 0,0 z m -6.26089,0.0125 c 0.11654,-0.32187 -0.14768,0.13717 0,0 z m 3.23302,-0.10756 c -0.14848,-0.29554 -0.006,0.321017 0,0 z m -3.35577,-0.0517 c -0.17717,-0.27309 -0.0244,0.360167 0,0 z m 2.0572,-0.007 c -0.0674,-0.47683 -0.0807,0.478647 0,0 z m 2.974147,0.0797 -0.08964,-0.068 z m -1.401487,-0.098 c -0.10032,-0.6524 -0.3639,0.003 0,0 z m 1.552116,-0.0534 -0.03433,0.0659 z m 3.285654,0.0319 c 0.86575,-2.14665 -0.17358,-1.09994 0,0 z m -4.43426,-0.0913 c 0.002,-0.2465 -0.1488,0.32497 0,0 z m 4.00768,-0.10603 -0.0588,0.1538 z m -3.398265,0.0229 c -0.03566,-0.3682 -0.153935,0.33172 0,0 z m 0.37806,-0.0109 c 0.269048,-1.26805 -0.458942,-0.0125 0,0 z m 1.017965,0.003 c 0.0891,-0.31843 -0.211252,0.0988 0,0 z m 3.03204,-0.0222 c -0.25744,-0.64648 -0.0936,0.22161 0,0 z m 0.5127,-0.0685 c -0.0855,-0.68116 -0.11073,0.46124 0,0 z m -9.09799,0.0259 c -0.0454,-0.28126 -0.089,0.32281 0,0 z m 9.44255,0.0111 c 0.29312,-0.56419 -0.25021,-0.0196 0,0 z m -1.58069,-0.0946 c -0.0184,-0.99178 -0.17565,0.27385 0,0 z m 2.40594,0.0329 -0.0359,-0.0197 z m -8.65758,-0.0118 c 0.28765,-0.50726 -0.23435,0.12795 0,0 z m 1.61197,-0.0396 c 0.15314,-0.54965 -0.26936,0.31603 0,0 z m 0.31347,0.0434 -0.0512,0.003 z m -0.72547,-0.21257 c -0.0604,-0.40986 -0.13692,0.63805 0,0 z m -0.72321,0.1162 c 0.13093,-1.40866 -0.15568,-1.27665 0,0 z m -11.4446,-0.0595 c -0.2598,-0.5223 0.0282,0.5096 0,0 z m 13.568519,0.0762 c 0.816469,-1.82428 -0.840229,-0.54842 2.78e-4,2e-5 z m -5.228859,-0.11096 c -0.10629,-0.31395 -0.0476,0.38774 0,0 z m 19.37142,-0.0993 c -0.0879,-0.83896 -0.0124,0.67653 0,0 z m -14.73669,-0.0649 c -0.0493,-0.49643 -0.12121,0.61567 0,0 z m 5.23981,0.0249 -0.016,-0.32037 z m 9.95294,0.073 c 0.32093,-0.34243 -0.23055,0.059 0,0 z m -19.00453,-0.0228 -0.0398,0.0129 z m 5.252969,-0.23889 c -0.182945,-0.55736 -0.04318,0.94785 0,0 z m 1.850141,0.17354 c -0.0808,-0.46552 -0.17853,0.34778 0,0 z m 10.68736,0.0265 -0.10105,-0.0117 z m -15.07672,-0.0119 c 0.18703,-0.4849 -0.23585,0.0344 0,0 z m -2.55934,-0.0261 -0.23423,-0.23651 z m 5.43645,-0.0852 c 0.0449,-0.56907 -0.177136,0.31977 0,0 z m 5.66199,-4.4e-4 0.16338,-0.69448 z m -1.83687,-0.0153 0.0196,0.0671 z m -7.7649,-0.0123 c -0.0246,-0.30669 -0.12586,0.23222 0,0 z m -2.71086,-0.0382 c -0.14561,-0.47482 -0.10727,0.19415 0,0 z m 5.914445,-0.056 c 0.326772,-1.57399 -0.400308,-0.0717 0,0 z m -1.644775,0.0127 c -0.12114,-0.14594 -0.0325,0.17109 0,0 z m -11.4418,0.0518 c 0.22805,-0.3907 -0.29468,0.0796 0,0 z m 7.55428,-0.008 c 0.42612,-1.15491 -0.3272,-0.36641 0,0 z m 7.71842,-0.064 -0.006,-0.056 z m -4.02789,0.005 c -0.0293,-0.48978 -0.82422,-0.0979 0,0 z m 6.36723,-0.0164 c 0.13004,-0.61319 -0.31956,-0.0285 0,0 z m 0.30553,-0.108 c 0.16322,-1.34631 -0.58209,0.16942 0,0 z m 0.88098,-0.0317 c 0.32483,-1.00136 -0.38805,0.38218 0,0 z m 8.93959,0.1139 c 0.1578,-0.24672 -0.3099,0.0869 0,0 z m -20.31456,-0.22845 c -0.25746,-0.0496 0.12559,0.62923 0,0 z m 4.36265,0.078 c 0.17507,-0.64507 -0.29544,0.266 0,0 z m 6.42626,-0.0831 c 0.20597,-1.41443 -0.21821,0.28573 0,0 z m -8.50602,0.0598 c 0.57592,-1.05376 -0.57031,-0.39482 0,0 z m 1.53876,-0.17392 c 0.21851,-0.91861 -0.42241,0.24869 0,0 z m 2.52595,0.0867 -0.120921,-0.0966 z m -1.68772,-0.0874 c -0.004,-1.18748 -0.23918,0.41772 0,0 z m 1.95274,0.0429 c -0.01,-0.56297 -0.273794,-0.10409 0,0 z m 3.28436,-0.0499 c 0.12041,-1.15843 -0.18421,-1.50925 0,0 z m -6.3645,-0.0835 c 0.14241,-0.97477 -0.39575,0.36773 0,0 z m 7.47943,-0.10058 c 0.7362,-1.66632 -0.56357,0.19802 0,0 z m -10.4275,0.0662 -0.24397,-0.25425 z m 6.6869,-0.0408 c 0.25171,-0.62677 -0.40945,0.1639 0,0 z m -0.957757,-0.0449 c -0.212013,-0.42514 -0.109644,0.24378 0,0 z m -7.360543,-0.0542 c -0.16268,-0.34882 -0.35364,0.45104 0,0 z m 0.68672,0.0435 c 0.47725,-0.46894 -0.44445,0.0969 0,0 z m 0.34958,0.0165 c 0.17827,-0.36223 -0.26549,-0.1221 0,0 z m 2.49534,-0.0397 c 0.46017,-0.74274 -0.1774,-1.44968 0,0 z m 7.71503,-0.15291 c 0.35303,-1.0236 -0.26886,0.40888 0,0 z m 1.53275,-0.0776 c 0.11727,-1.05645 -0.20587,0.6012 0,0 z m -2.43156,0.0545 c -0.0643,-0.34379 -0.0304,0.47995 0,0 z m 11.24897,0.0628 c 0.78104,-3.825218 2.86421,-7.383848 4.26212,-11.042583 2.57968,-4.301023 -2.64825,-8.348727 -3.25283,-12.614447 -1.62864,-1.708053 -1.15232,-7.93158 -3.77485,-3.298384 -4.61253,3.105394 0.38051,7.770803 1.41737,11.64445 1.22814,2.46372 -1.27397,4.74441 -2.09319,7.437877 -2.83053,2.926438 0.92488,5.769587 3.19543,7.317017 l 0.22856,0.003 z m -0.64518,-14.337802 0.0344,-0.06382 z m 1.43933,-7.06634 c -0.34439,-0.603069 0.29712,-0.178687 0,0 z M 99.715758,97.894093 c -0.225037,-0.37586 -0.01936,0.43364 0,0 z m -5.050418,-0.25711 -0.0163,0.38064 z m 4.369624,0.26138 c -0.133184,-0.288 -0.227791,0.41521 0,0 z m 7.114286,0.0377 c 0.39682,-0.61003 -0.58383,0.0239 0,0 z m -7.81496,-0.006 c -0.0518,-0.17429 -0.0513,0.17454 0,0 z m 1.619985,0.008 0.03792,-0.5509 z m 14.038935,-0.0226 c 0.21717,-0.29436 -0.2253,-0.0669 0,0 z m -16.68538,-0.008 c 0.0136,-0.34513 -0.13297,0.16991 0,0 z m 1.24922,-0.13281 -0.12439,0.0489 z m -12.17362,-0.0159 c 2.10979,-2.15539 4.55456,-4.05608 1.88301,-6.842413 -0.83962,-3.389593 -3.57088,-7.400469 -1.58002,-10.449949 1.3161,-3.383152 4.38697,-6.611202 -0.12298,-8.949178 -1.75943,-3.010106 -2.96979,4.151722 -4.46735,5.553821 -1.52607,2.889958 -2.99591,5.631265 -1.0481,8.587989 0.41399,1.605688 1.60041,3.516706 2.49252,6.28703 1.08661,1.766894 1.90639,4.39587 2.84292,5.8127 z m -4.63892,-9.96494 0.0969,-1.82e-4 z m 0.19845,-0.158459 c -0.10138,-0.203215 0.21334,0.07368 0,0 z m -0.36293,-0.524993 c -0.1508,-1.076902 0.56085,0.287721 0,0 z m -0.3016,-0.955411 c -0.22522,-0.857734 0.26345,-0.529168 0,0 z m 4.31307,-3.172761 c -0.10605,-0.186287 0.26237,0.182287 0,0 z m -2.41407,-7.810093 0.23548,-0.159495 z m 9.15514,22.536527 c -0.13389,-0.94003 -0.28632,0.30075 0,0 z m 5.3393,0.0376 c 0.1802,-0.87433 -0.29195,-0.4182 0,0 z m 0.6622,0.005 c 0.20679,-0.70506 -0.39563,-0.34241 0,0 z m -1.10795,-0.24125 -0.0103,0.16547 z m 6.07409,0.10249 c -0.0688,-0.13994 -0.0699,0.19264 0,0 z m -7.92556,-0.061 c 0.62603,-3.404711 2.91084,-9.562514 2.60348,-11.02782 -2.96106,2.881378 -6.39138,6.124351 -3.1864,10.0514 0.22094,0.20285 0.14684,0.88943 0.58292,0.97642 z m -0.45993,-7.326478 c -0.46083,-0.176129 0.34352,-0.206086 0,0 z m 3.05336,-2.537895 0.0275,-0.03325 z m -1.64287,9.876623 c -0.0793,-0.18062 -0.0788,0.18084 0,0 z m 7.54235,-0.0616 c 0.2643,-0.31901 -0.37144,-0.002 0,0 z M 98.444,97.424933 c -0.051,-0.39096 -0.0356,0.39014 0,0 z m 7.24919,-0.028 c 0.31357,-1.43929 -0.34771,0.31829 0,0 z m -2.72473,-0.0363 -0.0441,0.0451 z m -8.74037,0.0327 -0.0636,9.2e-4 z m 4.766849,-0.10173 -0.0358,0.0629 z m -4.881869,-0.0772 c 0.2335,-0.66923 -0.50227,0.50754 0,0 z m 5.103364,0.12708 -0.0459,-0.0213 z m -5.811994,-0.0866 -10e-4,0.073 z m 9.06528,0.0382 c 0.60187,-3.417519 5.08468,-6.833972 0.21073,-9.028966 -3.170743,-4.486828 -1.01897,2.704791 -0.92274,4.611517 0.1339,1.495124 0.54384,2.924509 0.71201,4.417449 z m -3.608077,-0.10595 c -0.437343,-0.50616 -0.261313,0.34056 0,0 z m 1.193397,0.0489 c -0.067,-0.18126 -0.07544,0.2325 0,0 z m 3.72733,-0.0621 c 0.54428,-2.36485 -0.67563,0.44341 0,0 z m -0.82912,0.003 c -0.075,-0.25079 -0.0395,0.32387 0,0 z m 8.75608,0.0157 -0.0561,0.0328 z m -6.522,-0.12948 c -0.12775,-0.32802 0.0959,0.51803 0,0 z m -11.59962,0.12289 c -0.13289,-0.0972 0.0863,0.15923 0,0 z m -0.17665,-0.0493 c 0.11878,-0.84266 -0.9146,-1.38109 0,0 z m 3.18124,-0.13086 c 0.5924,-0.77795 -0.60226,-0.32651 0,0 z m 3.55218,-0.14937 c -0.311801,-2.336377 -0.581387,0.0589 0,0 z m -1.169901,0.11433 -0.03776,-0.0741 z m 5.653811,-0.14089 c 0.37704,-1.5076 -0.56471,-0.10596 0,0 z m 1.97078,0.0885 c -0.0629,-0.36713 -0.0621,0.36735 0,0 z m -4.90023,-0.079 c -0.18628,-0.11775 -0.11458,0.30346 0,0 z m -3.87363,0.0442 c 0.49305,-1.19413 -0.44898,-0.31737 0,0 z m 0.5187,-0.033 c 0.803365,-0.65812 -0.31488,-0.31346 0,0 z m -4.60906,-0.0399 -0.001,0.073 z m 0.24959,0.009 c -0.10604,-0.24451 -0.25773,0.14557 0,0 z m 6.99683,-0.13096 c -0.0313,-0.75351 -0.22732,0.48713 0,0 z m -8.65449,0.09 c 0.24988,-0.85258 -0.44243,0.0353 0,0 z m 11.74849,-0.0563 c 0.17084,-0.56352 -0.27416,-0.0375 0,0 z m -4.506725,-0.10182 c -0.142484,-0.40152 -0.170367,0.33914 0,0 z m 0.829055,-0.16135 c -0.16145,-0.21588 0.0649,0.35713 0,0 z m -2.22868,-0.004 c 0.666703,-1.69866 -0.59341,-1.14337 0,0 z m 8.66127,-0.0196 c 0.4936,-0.35507 -0.29725,0.0504 0,0 z m -2.59387,-0.0326 c 0.041,-0.63423 -1.29116,-0.37286 0,0 z m -2.58955,-0.0174 c 0.20154,-0.84768 -0.31994,0.23298 0,0 z m -2.795979,-0.0512 -0.02486,-0.0876 z m 7.750629,-0.13639 c -0.30434,-0.0875 0.19051,0.38287 0,0 z m -9.95478,0.0673 c 0.0484,-1.03688 -0.3215,0.229 0,0 z m 4.2017,0.0375 c 0.91309,-0.86627 -0.28924,-0.41456 0,0 z m -2.36232,-0.16443 -0.0282,0.0333 z m 1.6778,-0.0378 c -0.1122,-0.41784 -0.30045,0.28947 0,0 z m -2.31611,-0.0271 c 0.21918,-1.820732 -0.3838,-0.50975 0,0 z m 5.00822,7.6e-4 c -0.22596,-0.17752 0.0558,0.20438 0,0 z m -5.82256,-0.0567 c 0.36676,-1.2244 -0.23712,-0.32661 0,0 z m -4.03886,-0.039 c -0.6318,-2.424352 -1.27545,-1.719147 0,0 z m -0.52135,-0.93316 0.0387,-0.0884 z m 11.84213,0.67358 c -0.017,-1.703574 -0.37368,0.79533 0,0 z m 0.31004,0.12409 c 0.42475,-0.58409 -0.19879,-0.50581 0,0 z m 2.37035,-0.24582 c -0.0712,-1.598675 -0.11953,0.92056 0,0 z m -8.46547,0.31304 -0.11366,-0.15611 z m 1.5274,-0.24376 c -0.20369,-0.22441 0.0883,0.70167 0,0 z m 0.37351,0.17906 c 0.53398,-0.29892 -0.32082,-0.26096 0,0 z m 5.2059,-0.0516 c 0.85382,-0.63915 -0.64148,-0.29691 0,0 z m -13.653,-0.0625 c 0.16154,-0.81841 -0.35891,-0.10894 0,0 z m 8.92248,-0.0223 c 0.26079,-1.368425 -0.2931,0.05 0,0 z m 1.30943,-0.10051 c -0.0518,-0.17429 -0.0513,0.17454 0,0 z m -9.27749,-0.17534 -0.001,0.073 z m 13.7132,0.0264 c 0.0375,-0.27824 -0.16259,0.10408 0,0 z m -7.375597,-0.047 -0.09601,-0.0798 z m 8.013627,-0.0772 -0.0261,0.0674 z m -2.78108,0.0538 -0.0327,-0.0698 z m -5.361425,-0.0404 -0.07336,-0.0487 z m 0.419613,-0.0822 c -0.03537,-0.25873 -0.128965,0.26401 0,0 z m 15.548062,-0.007 c 0.0184,-0.24224 -0.16428,0.19825 0,0 z m -5.54727,-0.11475 0.007,0.0638 z m -9.46315,0.06 c 0.38968,-0.13617 -0.413458,-0.23992 0,0 z m -1.161846,-0.13361 c -0.383174,-0.764345 -0.179503,0.53677 0,0 z m 0.288522,0.0331 c -0.253051,-0.644445 -0.273979,0.41439 0,0 z m 1.166674,0.0518 -0.10377,-0.0175 z m -6.94519,0.0395 c -0.13723,-0.832212 -0.5011,-0.22537 0,0 z m -1.35101,-0.20568 c -0.0656,-0.410529 -0.0645,0.41074 0,0 z m 9.30587,0.0711 c 0.25182,-0.841932 -0.59352,-1.588274 0,0 z m -10.10773,-0.0418 c 0.41265,-0.786672 -0.37028,-0.0761 0,0 z m 5.81227,8.2e-4 c 0.17168,-0.29971 -0.33553,0.0949 0,0 z m 2.819057,-0.0305 c 0.04348,-0.490963 -0.275521,0.10156 0,0 z m -8.759227,-0.12152 c -0.0879,-0.415065 -0.0942,0.5386 0,0 z m 14.3274,-0.0886 c -0.2802,-0.156146 0.0684,0.41404 0,0 z m -6.321629,0.0305 c 0.09666,-0.497503 -0.273303,0.17908 0,0 z m 1.776889,-0.0562 -0.0263,0.0562 z m -2.66861,-0.0264 c -0.0505,-0.302421 -0.0494,0.30266 0,0 z m -0.17655,0.0296 c 0.677859,-1.222379 -0.64696,-0.09834 0,0 z m 2.18518,-0.005 c 0.24075,-0.713596 -0.1358,-0.462615 0,0 z m -2.95782,-0.07242 c -0.0518,-0.174289 -0.0513,0.17454 0,0 z m 9.12604,-0.04106 c 0.44732,-0.0683 0.0157,-0.241838 0,0 z m -13.30235,-0.05112 c 0.15684,-0.157226 -0.31617,0.13881 0,0 z m -2.02539,-0.0287 c -0.45993,-1.230008 -0.84175,-0.425188 0,0 z m -0.1685,-0.07546 0.046,-0.0252 z m 8.533433,-0.10321 -0.0066,0.06162 z M 93.06736,94.277266 c -0.44685,-0.590294 0.0394,0.582877 0,0 z m 6.784983,0.120878 c -0.185352,-0.13751 -0.04774,0.197711 0,0 z m 4.876637,-0.152909 c 0.43015,-1.099604 -0.46389,0.537628 0,0 z m -4.799888,-0.04908 c 0.294988,-0.92362 -0.265744,-0.154103 0,0 z m 5.441428,-0.0384 c -0.009,-0.356127 -0.13179,0.308958 0,0 z m 1.125,-0.0048 c -0.14891,-0.122198 0.005,0.253858 0,0 z m -7.541042,-0.0048 c 0.508014,-0.742331 -0.200638,-0.635651 0,0 z m -0.344858,0.02405 c 0.192547,-0.325707 -0.29796,-0.548077 0,0 z m 0.874578,-0.05322 -0.07549,0.01811 z m 6.826722,-0.01426 c 0.25121,-0.428137 -0.25373,0.0764 0,0 z m 0.54613,-0.09931 -0.0307,0.08277 z m 0.25661,-0.04981 -0.0282,0.03328 z m -7.61472,-0.0057 c 0.415908,-0.07529 -0.531681,-0.132023 0,0 z m -6.66991,-0.0086 c 0.0325,-0.310745 -0.24436,0.09775 0,0 z m 15.13854,-0.02387 c 0.412,-1.290383 -0.39797,-1.060672 0,0 z m -3.01532,-0.01445 c 0.23855,-0.385194 -0.34508,-0.03656 0,0 z m -13.90718,0.0019 c -0.0551,-0.605168 -0.60782,-0.649041 0,0 z m 0.55741,-0.157917 c -0.18605,-0.02196 0.0905,0.267939 0,0 z m 6.62777,0.01692 c -0.0418,-0.32052 -0.0798,0.32887 0,0 z m 2.91952,0.04267 c 0.10303,-0.25689 -0.14946,0.123932 0,0 z m 4.15104,-0.05864 -0.0362,-0.04378 z m -4.30143,-0.260224 c -0.0247,-0.878746 -0.0492,0.780916 0,0 z m 5.24065,0.25129 c 0.0674,-0.46491 -0.48709,-0.238635 0,0 z m 1.12098,-0.177821 c -0.0474,-0.724536 -0.0558,0.681582 0,0 z m -9.7098,0.114843 c 0.51,-0.858737 -0.4224,-0.236252 0,0 z m 1.96966,-0.12773 -0.04036,0.12231 z m 1.62715,-0.092 c 0.25866,-1.626784 -0.36633,0.589068 0,0 z m -2.81275,0.116697 c 0.0675,-0.61551 -0.22818,0.189901 0,0 z m 0.356707,-0.111383 c 0.188408,-0.848881 -0.428737,0.02736 0,0 z m 6.873473,0.05104 -0.14787,0.612624 z m 0.69741,-0.06825 c -0.0388,-0.219994 -0.0851,0.28698 0,0 z m -9.13659,-0.176393 -0.0734,0.286592 z m -4.67269,0.0965 c -0.25129,-0.149033 0.0244,0.286633 0,0 z m 8.03252,-0.0211 c 0.19249,-0.858263 -0.37828,0.229955 0,0 z m 6.57111,-0.09883 c -0.0936,-0.174264 -0.004,0.271615 0,0 z m -7.901961,0.02813 -0.05949,6.28e-4 z m 6.687121,-0.127931 c -0.10105,-0.344641 -0.0129,0.513953 0,0 z m -13.47618,0.0882 c -0.11043,-1.14762 -0.58049,-0.483754 0,0 z m 14.33221,-0.108114 c -0.0405,-0.348893 -0.0271,0.397836 0,0 z m -9.31519,-0.09603 c 0.047,-0.915414 -0.19857,0.473297 0,0 z m 7.89657,-0.229515 c -0.28438,0.0365 0.28608,0.761633 0,0 z m -5.437208,0.256727 c 0.276978,-0.775874 -0.208966,-0.249052 0,0 z m -9.390622,-0.03251 c -4.6e-4,-1.285133 -0.62875,-0.06321 0,0 z m 15.14554,-0.143195 -0.0506,0.112555 z m -5.979141,0.06026 c 0.137428,-0.413817 -0.147373,0.184352 0,0 z m -7.846409,-0.09658 c -0.0208,-1.273704 -0.46065,0.296002 0,0 z m -0.11178,0.02043 0.0621,-0.01729 z m 8.92887,0.07404 c 0.0415,-0.233607 -0.22312,0.114318 0,0 z m -1.609236,-0.239894 0.0032,0.216378 z m 6.881486,0.05929 c 0.45062,-1.4199 -0.66577,0.02397 0,0 z m -5.66311,-0.0033 c -0.0154,-2.333203 -0.22872,-0.730895 0,0 z m 6.52895,-0.173647 c -0.17044,-1.077852 -0.17902,0.37373 0,0 z m -7.477946,0.02034 c 0.475455,-1.212395 -0.293934,-0.463414 0,-3.8e-5 z m 0.432683,-0.01673 c 0.164784,-0.417256 -0.422949,0.389331 0,0 z m 0.598243,0.03498 -0.0449,-0.02257 z m 0.7473,-0.32555 c -0.17686,-0.850633 -0.0778,1.008462 0,0 z m -0.42112,0.144935 c 0.41002,-1.323502 -0.25412,-0.415163 0,0 z m -0.26026,-0.04267 c -0.0506,-0.258948 -0.0498,0.259207 0,0 z m -10.26865,0.0153 c 0.20376,-0.940089 -0.5841,-0.874872 0,0 z m 8.944105,-0.166291 c -0.126295,-0.205134 0.01028,0.303215 0,0 z m -0.220692,0.02927 -0.131365,-0.154792 z m 7.566457,-0.02851 c 0.22108,-0.370942 -0.34191,0.09735 0,0 z m 2.46467,-0.104302 c -0.28032,-0.446774 -0.14048,0.40148 0,0 z m -18.5667,-0.05541 c -0.0591,-0.334331 -0.0193,0.319878 0,0 z m 18.21409,-0.05484 c 0.62607,-1.064704 0.20134,-0.934959 0,0 z m -2.44746,-0.03753 c -0.0306,-0.218087 -0.0872,0.143953 0,0 z m -7.144763,-0.09809 c 0.13103,-0.80999 -0.420937,-0.122134 0,0 z m 18.362393,-0.0823 -0.0408,0.03968 z m -11.06201,0.02956 -0.1483,-0.04324 z m 2.76977,-0.07613 c 0.0531,-0.3414 -0.2044,0.17464 0,0 z m -9.163952,-0.07937 c 0.05886,-0.845918 -0.408635,-0.117869 0,0 z m 8.327642,-0.178893 c 0.25403,-1.605893 -0.334,-1.30255 0,0 z M 98.6183,91.283995 c 0.289061,-2.074235 -0.39071,0.907836 0,0 z m 10.43873,0.19277 c 0.88312,-0.516448 -0.39404,-0.432965 0,0 z m 8.33006,-0.01796 -0.0326,-0.04925 z m -24.65536,-0.06996 c 0.80876,-3.204235 4.94536,-4.836567 5.82791,-7.986304 -2.32937,-1.158466 -4.17948,-6.336426 -6.74867,-5.012666 -2.54304,3.281925 -1.94515,6.483036 -0.31009,9.996216 0.33202,0.970566 0.80478,2.311501 1.23085,3.002754 z m 13.79261,-0.07968 c 0.19737,-0.43374 -0.25362,0.170424 0,0 z m -16.87373,0.03916 c 0.0376,-1.007609 -0.48295,-0.384287 0,0 z m 8.22368,-0.196791 c 0.0264,-0.254931 -0.21331,0.259387 0,0 z m 1.687109,-0.07338 c -0.07168,-0.215679 -0.02866,0.264685 0,0 z m 8.475911,0.02462 -0.0745,-0.01549 z m -16.85779,-0.12642 c -0.0581,-0.957552 -0.32165,-0.146706 0,0 z m 9.39071,-0.06159 c 0.0526,-1.027074 -0.48292,-0.0449 0,0 z m 8.15028,-0.06549 c -0.1531,-0.622545 -0.0995,0.337403 0,0 z m -8.784321,-0.106536 c -0.175912,-0.344817 0.02442,0.487111 0,0 z M 98.57395,90.535673 c -0.002,-0.292911 -0.10898,0.194217 0,0 z m -8.96813,-0.09258 c -0.14244,-0.340867 -0.004,0.45126 0,0 z m 17.5086,-0.11481 c 1.31279,-3.065643 -0.85613,-0.999241 0,0 z m 0.62016,-0.142681 c 0.0141,-1.087034 -0.18589,0.493168 0,0 z m -7.18534,0.123815 c 0.19594,-0.420792 -0.37186,-0.06886 0,0 z m 8.35324,-0.16515 c -0.1138,-0.186957 -0.008,0.496022 0,0 z m -27.17971,0.08802 c 0.47583,-0.635357 -0.37956,0.0069 0,0 z m 16.6564,-0.1778 c 0.451903,-1.968931 -0.49699,-0.337031 -7.4e-4,-4.7e-5 z m 9.89859,0.01464 c 0.41671,-0.269685 -0.40331,-0.03182 0,0 z m -8.280346,-0.04135 c -0.06412,-0.269446 -0.0806,0.237258 0,0 z m 8.601026,-0.144716 c 0.18611,-0.654593 -0.24332,-0.02405 0,0 z m 0.21858,-0.07014 c 0.0211,-0.417227 -0.123,0.255336 0,0 z m -27.06215,0.0029 c 0.0143,-0.172426 -0.19593,0.15379 0,0 z m 24.43623,-0.109159 c 2.69687,-3.645267 3.6591,-7.657098 1.09079,-11.596962 -1.19628,-3.428137 -3.63772,2.812223 -5.18798,3.709748 -3.293769,2.524916 1.77588,4.699081 3.05945,6.879244 0.3001,0.109354 0.77823,1.228627 1.03774,1.00797 z m 0.25383,-1.020091 0.0282,0.05764 z m -3.52541,-7.622047 0.0593,-0.02148 z m 4.78687,-0.08976 c -0.0794,-0.476255 0.16614,0.119653 0,0 z m 0.008,-0.440096 c 0.0328,-0.353076 0.0663,0.300573 0,0 z m -3.9374,-0.492378 c 0.35507,-1.072177 -0.29753,0.256911 0,0 z m 0.59002,-0.630844 c 0.006,-0.413386 0.15933,0.09704 0,0 z m 4.00093,10.267596 c 0.008,-0.453366 -0.22234,0.442055 0,0 z m 0.99157,-0.122275 c 0.21064,-1.652579 -0.58111,0.513613 0,0 z m 0.51768,0.03764 c 0.13881,-1.739235 -0.34535,-1.329227 -0.10418,0.02743 z M 88.9647,89.397041 c 0.3837,-1.983039 -0.44329,0.17323 0,0 z m 15.86186,0.02918 c -0.14767,-0.699029 -0.0556,0.33544 0,0 z m 3.49217,0.0067 c 0.3856,-0.804491 -0.4152,0.10823 0,0 z m 0.49607,0.03897 -0.0121,-0.246128 0.0122,0.246118 z m 9.59319,-0.350555 c -0.16107,-0.203693 0.0224,0.399987 0,0 z m -8.87235,0.09523 -0.0554,-0.02426 z m -0.89016,-0.120242 c 0.50741,-0.276811 -0.19264,-0.255222 0,0 z m -8.54008,-0.255908 c -0.066,-0.818275 -0.0536,0.926836 0,0 z m 10.04448,0.134574 c 0.19173,-0.624239 -0.29407,0.250231 0,0 z m -2.28279,0.0308 c 0.28301,-0.625294 -0.39722,-0.107 0,0 z M 90.52679,88.9462 c -0.14528,-0.150152 0.0155,0.177251 0,0 z m 18.03723,-0.06216 c -0.15856,-0.216951 0.005,0.294673 0,0 z m 0.67465,-0.01026 c 0.82492,-1.154932 -0.34978,-0.562492 0,0 z m -0.21146,-0.126647 c -0.64746,-1.081846 -0.0751,0.639743 0,0 z m 0.53004,0.116173 -0.10042,-0.109058 z M 88.25382,88.660024 c -0.13711,-0.201691 0.0848,0.52476 0,0 z m 19.88799,0.105851 c 0.11906,-0.511693 -0.42348,0.07544 0,0 z m 2.03319,-0.130867 0.0353,-0.643032 z m 0.28194,-0.136418 c -0.0426,-0.219692 -0.083,0.293759 0,0 z m -2.57784,-0.123255 c 1.23854,-2.661974 -0.70563,-0.248505 0,0 z m 1.04097,0.0152 c -0.046,-0.388247 -0.17367,0.290138 0,0 z m 9.59857,-0.01711 c 0.0835,-0.318164 -0.21499,0.146198 0,0 z m -10.11555,-0.179036 c -0.1478,-0.117375 0.0607,0.190025 0,0 z m 1.20713,-0.138909 c -0.23579,-0.124292 0.16202,0.21333 0,0 z m 1.06622,-0.01844 c -0.007,-0.583105 -0.28017,0.320886 0,0 z M 90.63981,87.927615 c 0.009,-0.301278 -0.0932,0.175286 0,0 z m 18.14345,-0.183827 c -0.23387,-0.253129 -0.056,0.632111 0,0 z m -0.60667,0.167337 c 0.0697,-0.239934 -0.21512,0.06759 0,0 z m -18.59826,-0.0095 -0.13457,-0.146897 z m 10.69699,-0.03754 c 0.23822,-1.112935 -0.425618,-0.257804 0,0 z m 8.96531,-0.02272 c 0.58075,-0.806463 -0.37296,-0.532585 0,0 z m 0.76758,-0.155295 c 0.96277,-0.552824 -0.57386,-0.758718 0,0 z M 89.36046,87.61061 c 0.0706,-1.2237 -0.45436,0.318652 0,0 z m 11.44053,-0.01416 c -0.0564,-0.390689 -0.0111,0.369977 0,0 z m 7.65101,0.01834 c -0.13367,-0.20375 0.009,0.252842 0,0 z m -18.64262,0.023 c 0.22783,-0.490338 -0.24449,0.0055 0,0 z m -1.41432,-0.141671 c -0.70328,-2.791654 -0.89709,-0.986136 0,0 z m 22.55869,0.0222 c 0.60211,-0.828289 -0.0691,-0.89048 0,0 z m -29.2326,-0.04577 c -0.20935,-0.02171 0.0647,0.216295 0,0 z m 26.73279,-0.0857 c 0.0784,-0.891665 -0.15871,0.217847 0,0 z M 89.70146,87.214421 c -0.28613,-0.502131 0.10769,0.720095 0,0 z m 20.07435,0.145907 c 0.0107,-0.231417 -0.10442,0.119336 0,0 z m -0.82068,-0.172712 c 0.5895,-0.952984 -0.26,-0.73195 0,0 z m 10.15582,-0.105027 -0.0721,-0.0969 z m -10.32003,0.08295 c 0.30774,-1.444102 2.64086,-6.269849 0.57139,-2.464127 -0.67781,1.127988 -0.96797,1.672624 -0.57139,2.464127 z m 1.30675,-3.131446 c -0.34889,-0.674781 0.35727,-0.205723 0,0 z m 0.13673,-0.70764 c 0.10631,-0.216545 0.0727,0.1854 0,0 z m -0.67911,3.656558 c 0.74386,-1.326571 -0.43209,-0.274336 0,0 z m -19.72405,-0.0899 c -0.15821,-0.378856 0.0532,0.498733 0,0 z m 19.9885,0.03362 -0.0525,-0.05461 z m -21.03564,-0.07425 -0.039,0.03266 z m 1.4571,-0.02496 c -0.0241,-0.231175 -0.0457,0.282216 0,0 z m -0.74449,-0.016 -0.0249,-0.0049 z m 10.87499,-0.01942 c 0.15894,-0.376971 -0.30336,0.107109 0,0 z m 9.68513,-0.0025 -0.046,-0.04442 z m 0.53437,-0.236648 -0.0708,0.175059 z m -20.67492,0.10669 c -0.0896,-0.222044 -0.0567,0.184069 0,0 z m -0.51415,-0.0688 c -0.31208,-1.32692 -0.67162,-0.937435 0,0 z m 22.03371,-0.06117 c 0.26175,-0.461951 -0.33946,0.369442 0,0 z m -22.51469,-0.07974 c -0.1401,-0.535594 -0.70149,-0.342396 0,0 z m 21.42789,-0.219104 c 0.12223,-0.519958 -0.58009,-0.83592 0,0 z m 0.36844,0.03632 c 0.38132,-1.040402 -0.37079,-0.489676 0,0 z m 0.28862,-0.05269 c 1.02218,-1.648612 -0.30255,-0.08141 0,0 z m -1.2407,-0.141649 0.13147,-0.329914 z m 0.72884,-0.139922 c -0.19456,0.0031 0.23957,0.452099 0,0 z m 1.26662,0.03656 c -0.22692,-0.05725 -0.0215,0.269463 0,0 z m -32.08022,0.0316 c 0.34403,-0.989728 -0.7431,-0.820746 0,0 z m 31.81291,-0.220435 c -0.15803,-0.15809 0.0352,0.493921 0,0 z m -23.81889,0.09233 -0.0385,0.05259 z m 21.73212,-0.03418 c 0.0392,-0.614145 -0.21329,0.216212 0,0 z m 1.07184,-0.239825 c 0.002,-1.017708 -0.28314,0.572248 0,0 z m 1.4541,0.06884 c -0.10389,-0.257277 -0.0505,0.270965 0,0 z m -31.07915,-0.04864 c 0.0632,-1.517949 -0.75873,-0.974723 0,0 z m 7.37998,-0.136241 c -0.0204,-0.816382 -0.15151,0.664782 0,0 z m 1.13068,0.110198 c 0.17008,-0.714287 -0.41371,-0.532325 0,0 z m 10.631228,-0.158723 c -0.09003,-0.426953 -0.126767,0.444443 0,0 z m 9.532472,0.0093 c -0.0518,-0.504451 -0.0151,0.418897 0,0 z m -21.93714,0.08398 c -0.014,-0.233182 -0.25571,0.207818 0,0 z m 1.35655,0.02649 -0.0994,-0.138245 z m 20.40703,-0.03295 -0.0153,-0.05555 z m 1.64606,-0.09715 -0.008,0.12768 z m 0.72838,-0.06887 c 0.32303,-0.801869 -0.56092,0.346515 0,0 z m 0.97076,-0.06351 c -0.0565,-0.3807 -0.0981,0.615979 0,0 z m -23.86655,0.0085 c -0.43181,-1.465292 -0.93232,-1.33476 0,0 z m 22.09655,-0.102008 c 0.59284,-1.355301 -0.60119,-0.224789 0,0 z m 0.36604,0.04853 c 0.33115,-0.63001 -0.33797,0.08151 0,0 z m -0.94874,-0.309409 c -0.0779,-0.302614 -0.0874,0.350849 0,0 z m 1.39544,0.01258 c -0.0595,-0.255891 9.9e-4,0.312254 0,0 z m 0.26004,0.02165 c 0.0373,-0.445986 -0.25912,0.154068 0,0 z M 88.06428,84.71197 c -0.0834,-0.823078 -0.0671,0.767984 0,0 z m -0.84986,0.116678 c 0.009,-0.180107 -0.20262,0.170121 0,0 z m 24.48432,-0.129163 c -0.0951,-0.178734 -0.0118,0.309528 0,0 z m -1.08211,0.01849 c 0.33645,-0.818114 -0.51493,0.239976 0,0 z m 0.78944,0.0093 -0.0845,0.0055 z m 0.758,-0.170951 c 0.13862,-0.725709 -0.31474,0.34135 0,0 z m -25.18423,0.0075 c -0.0102,-0.508955 -0.11572,0.315527 0,0 z m 2.02243,0.07677 -0.0845,0.0055 z m 0.27637,-0.353786 c -0.53827,-1.763346 -0.0993,0.506092 0,0 z m -0.25462,0.107363 c -0.10672,-0.157593 -0.01,0.171104 0,0 z m -8.58635,-0.08456 c 0.016,-0.342972 -0.11544,0.240301 0,0 z m 30.81972,-0.0256 c -0.10261,-0.27379 -0.28391,0.143254 0,0 z m -22.41017,-0.06058 c -0.0326,-0.216886 -0.24063,0.235802 0,0 z m -9.77862,-0.0902 c -0.0654,-0.256904 -0.0568,0.444515 0,0 z m 1.17624,-0.01421 c -0.0745,-0.337676 -0.0323,0.421949 0,0 z m 7.58689,-0.0063 c 7e-5,-0.392033 -0.0875,0.261421 0,0 z m 24.30182,-0.08687 c 0.099,-0.259765 -0.16526,0.123433 0,0 z m 0.33575,-0.0351 c 0.0821,-0.197303 -0.22928,0.09216 0,0 z m -1.43082,-0.06985 c 0.27922,-0.814417 -0.23258,-1.081011 0,0 z m 0.38851,-0.09112 c 0.4022,-1.054416 -0.39464,-0.250548 0,0 z m -23.60895,0.05919 c 0.0816,-0.362783 -0.28381,-0.09584 0,0 z m 24.15066,-0.08046 c 0.0814,-0.954431 -0.29008,-0.175915 0,0 z m -1.45415,-0.0054 c -0.0564,-0.259771 -0.16996,0.165847 0,0 z m -22.46267,-0.13679 c -0.13298,-0.869249 -0.32433,0.01648 0,0 z m 23.63976,0.006 c -0.0406,-0.267617 -0.23824,0.05758 0,0 z m -31.45734,0.01351 c -0.13028,-0.184023 -0.0781,0.190576 0,0 z m 30.39683,-0.212195 c 0.44169,-0.716525 -0.45974,-0.01045 0,0 z m -23.64891,-0.03083 c 0.17328,-0.736963 -0.31008,-0.0206 0,0 z m 23.93659,-0.04505 c 0.007,-0.548425 -0.13066,0.171979 0,0 z m 0.79094,-0.163369 c 0.35081,-0.426358 -0.44185,0.04335 0,0 z M 79.87443,83.085584 c -0.23702,0.04664 0.16473,0.314985 0,0 z m 31.5578,-0.127784 c 0.0827,-0.497689 -0.34425,0.500691 0,0 z m -24.70559,0.03264 c 1.30008,2.409974 -0.30253,-1.744229 0,0 z m 0.88279,-0.08155 c -0.0784,-0.419214 -0.12324,0.194722 0,0 z m 23.20862,-0.210888 c 0.0738,-2.186766 -0.38185,0.58783 0,0 z M 88.7868,82.817718 c 1.22581,-1.236814 -0.72436,-0.262308 0,0 z m 21.04207,-0.05324 c 0.0187,-2.30691 -0.52675,-1.390582 0,0 z M 99.666872,82.633487 c 0.003,-0.745802 -0.602092,0.334879 0,0 z m 10.647858,-0.0089 c 0.26724,-0.789655 -0.3678,0.02888 0,0 z m -22.83636,0.06527 c 0.0834,-0.838161 -0.8756,-0.554971 0,0 z m 23.6724,-0.07547 c 0.93092,-0.922173 -0.37405,-0.09932 0,0 z M 99.174949,82.503698 c -0.07474,-0.174162 -0.0264,0.220487 0,0 z m 10.908281,0.0083 c 0.17062,-0.597711 -0.27802,0.115919 0,0 z m -22.07845,-0.33811 c -0.47255,-1.181129 -0.0845,0.798699 0,0 z m 11.295952,0.164717 c 0.382091,-0.403294 -0.378651,-0.279676 0,0 z m -0.504904,-0.09274 c 0.03065,-3.003309 -1.199338,-6.118133 -1.585068,-8.887162 -0.67365,0.800199 -0.89977,-4.997613 -2.05656,-1.131653 -1.32566,2.4994 -3.03306,4.784066 0.19553,6.456978 0.96605,1.461339 2.89351,2.234525 3.446098,3.561837 z m 11.407662,0.0102 c 0.7701,-0.868028 -0.25034,-0.671989 0,0 z m 9.42721,-0.0019 c 0.18679,-0.411542 -0.26527,0.01624 0,0 z m -9.2135,-0.142859 -0.0334,0.07715 z m -0.89991,-0.144772 c -0.33233,-0.455151 0.0865,0.461725 0,0 z m -8.83778,-0.086 c 1.68452,-3.187656 7.33883,-5.647015 4.01078,-9.423139 -1.30807,-3.443889 -2.42247,3.407298 -2.51019,4.865278 -0.26086,1.792006 -2.191352,3.665531 -1.50059,4.557861 z m -0.0874,-0.157848 c -0.19966,-0.51244 0.38637,0.0585 0,0 z m 1.71823,-2.183543 0.0845,-0.01155 z m 2.46909,-6.259658 0.0581,-0.01826 z m 0.14429,-0.05873 0.0398,-0.01292 z m -1.26931,-1.10212 c 0.0823,-0.234449 0.0458,0.154809 0,0 z m -14.29092,9.733683 c -0.0921,-0.530157 -0.13669,0.394393 0,0 z m 10.91417,-0.02328 c 0.2388,-1.021274 -0.282063,0.460749 0,0 z m -11.21273,0.11503 -0.0448,-0.02267 z m 30.59237,-0.194223 c -0.0355,-0.504873 -0.22194,0.357657 0,0 z m -19.703592,-0.05288 c -0.01489,-0.282434 -0.05142,0.308719 0,0 z m 9.462702,0.05187 c 0.19224,-0.934295 -0.88629,-1.300329 0,0 z m 1.34109,-0.129734 c -0.12105,-0.786529 -0.18702,0.702303 0,0 z m -0.32721,-0.381262 c -0.0876,-0.865204 -0.53504,0.754991 0,0 z m -0.50908,0.121129 c -0.11809,-0.159985 0.0396,0.382288 0,0 z m -20.44525,0.114122 0.22626,-0.521961 z m 21.28806,-0.33401 c 0.31915,-1.646792 -0.46001,0.441896 0,0 z m -21.41957,0.03773 c 0.0965,-0.197547 -0.19526,0.117044 0,0 z m -1.27423,-0.111326 c 0.56981,-0.590569 -0.26032,-0.189458 0,0 z m 20.92479,-0.2887 c -0.0708,-0.310198 -0.0529,0.303074 0,0 z m 1.1257,-0.0018 c -0.10054,-1.019198 -0.64371,-0.703875 0,0 z m 0.30903,0.01182 c 0.52335,-0.09022 -0.51917,-0.71751 0,0 z m -1.03773,-0.243513 c -0.20792,-0.299013 -0.0353,0.283399 0,0 z m 9.66788,0.05843 -0.0554,-0.02433 z m -19.34435,-0.05816 c 0.03117,-0.281579 -0.174592,0.103997 0,0 z m -10.95848,-0.08391 -0.0318,0.05458 z m 0.95051,0.01601 c 0.045,-0.409106 -0.26885,0.171985 0,0 z m 20.03849,-0.186965 c 0.0198,-0.470533 -0.0996,0.537036 0,0 z m 0.35185,-0.05719 -0.0448,0.02282 z m -20.18565,-0.0233 c -0.11716,-0.460784 -0.35649,0.144303 0,0 z m 19.22879,-0.197002 c 0.12888,-1.161476 -0.57746,-0.781413 0,0 z m -0.29818,-0.13341 c -0.0906,-0.519175 -0.0604,0.522859 0,0 z m -20.62325,0.02538 -0.0393,0.02349 z m 29.29396,-0.224427 c -0.0785,-0.220552 -0.0779,0.220814 0,0 z m -8.79539,-0.152024 c -0.19141,-0.774839 -0.10014,0.626199 0,0 z m 1.40102,0.1148 c 0.56464,-0.241231 -0.42792,-0.339256 0,0 z m -21.60918,-0.07564 c -0.057,-0.338428 -0.0698,0.351269 0,0 z m 10.170267,-0.06585 c -0.172097,-0.219629 -0.01997,0.178899 0,0 z m 1.464733,-0.02086 c 0.53879,-1.482646 0.22451,-1.652329 0,0 z m -10.80975,-0.0029 -0.0444,-0.01728 z m 20.2848,-0.01466 c 0.16639,-0.523536 -0.32634,0.01785 0,0 z m 1.62449,-0.08062 c -0.0175,-0.171756 -0.0485,0.174944 0,0 z m -20.99106,-0.01013 c -0.13082,-0.504619 -0.14626,0.255974 0,0 z m 19.93152,-0.03708 c 0.33723,-1.519852 -0.65563,-0.687731 0,0 z m -1.63639,-0.369021 c -0.35117,-3.231323 -0.77183,-1.688235 0,0 z m 9.7585,0.13841 -0.0258,0.04611 z m -8.56534,-0.07279 c 0.24181,-1.586108 -0.34867,-0.757608 0,0 z m -0.32309,0.02339 c -0.15828,-0.18653 0.12546,0.201476 0,0 z m -8.87977,-0.0249 c 0.0336,-0.475552 -0.21528,0.07084 0,0 z m 0.75046,-0.0012 c -0.002,-0.166033 -0.12144,0.13616 0,0 z m 7.61474,-0.01857 c 0.10735,-0.410071 -0.22133,0.0507 0,0 z m 0.38705,-0.187855 c -0.22268,-0.203016 0.0287,0.352891 0,0 z m -0.63031,0.04122 c 0.43591,-0.45063 -0.26638,0.04391 0,0 z m -7.79119,-0.0682 c -0.009,-0.256952 -0.12303,0.243182 0,0 z m 8.25113,-0.01987 c -0.14471,-0.09445 2.7e-4,0.207835 0,0 z M 101.333,78.633349 c -0.044,-0.249915 -0.0988,0.271886 0,0 z m 6.84249,-0.0092 c 0.089,-0.331493 -0.1447,0.14244 0,0 z M 91.14042,78.441165 c 0.0367,-0.377732 -0.16082,0.360919 0,0 z m 17.82042,0.02835 c 0.2195,-0.585039 -0.53136,-0.161469 0,0 z m 0.40631,-0.04639 -0.10866,1.72e-4 z m 7.70319,-0.112564 -0.0519,0.01413 z m -9.03841,-0.129145 c -0.15853,-0.224613 0.0442,0.404323 0,0 z m 1.26161,0.09948 c 0.46092,-0.567342 -0.48733,-0.219218 0,0 z m -20.18859,-0.03509 c 0.62037,-1.073762 -0.3338,-0.404054 0,0 z m 12.71431,-0.06293 c 0.52055,-1.320241 -0.53192,-0.891403 0,0 z m -11.66851,-0.06377 c 0.29245,-0.488465 -0.24612,-0.172752 0,0 z m 18.61988,-0.126267 c -0.0845,-0.270353 -0.10016,0.274354 0,0 z m -8.81702,-0.0092 c 0.05052,-0.753041 -0.341872,-0.03112 0,0 z m 0.25276,-0.0676 c -0.0768,-0.267446 -0.0832,0.383858 0,0 z m 0.7763,0.06215 c -0.075,-1.917468 -0.44605,-0.199812 0,0 z m 7.03622,-0.05652 c 0.091,-1.07204 -0.32658,-0.269688 0,0 z m 1.61356,-0.0658 c -0.97487,-2.884783 -1.2904,-1.299046 0,0 z m -0.0661,-0.120189 0.0594,-0.183989 z m -0.88563,-1.023956 c -0.35033,-0.385125 0.47846,-0.006 0,0 z m 0.4504,1.015609 c 0.51409,-2.18415 -0.52122,0.333185 0,0 z m -18.4902,0.0072 c 0.0703,-0.430148 -0.4904,0.09094 0,0 z m 17.92707,-0.01655 c 0.54843,-0.962456 -0.53529,-0.293544 0,0 z m 9.07548,-0.03535 -0.0391,-7.07e-4 z m -17.29721,-0.09296 c 0.0915,-1.231206 -0.560046,-0.544524 0,0 z m 16.4435,-0.04733 c -0.0522,-0.308387 -0.014,0.282602 0,0 z m -9.11407,-0.0098 c 0.32038,-2.39627 -0.71084,-2.842868 -0.0473,-0.571458 z M 81.53574,77.35877 c 0.15967,-0.737096 -0.27216,0.322277 0,0 z m 19.46004,-0.114701 c -0.0279,-0.598769 -0.11536,0.549993 0,0 z m 6.91307,0.02336 c -0.0183,-0.259097 -0.13046,0.22593 0,0 z m -6.51558,-0.334556 c 0.0251,-1.337425 -0.23543,0.443421 0,0 z m -0.53479,-0.09066 c 0.0302,-0.761993 -0.19243,0.575148 0,0 z m -2.5296,0.114488 -0.12948,-0.05939 z m 1.118392,-0.064 c 0.169818,-0.665075 -0.251133,0.315876 0,0 z m 2.465308,0.01492 c 0.36155,-0.721163 -0.3232,0.131539 0,0 z m 5.61628,-0.109197 -0.0772,0.08654 z m -5.31413,-0.134156 c 0.23044,-0.553172 -0.22008,0.0567 0,0 z m -11.34148,-0.05895 c 0.40706,-0.722728 -0.43594,0.233038 0,0 z m 8.81938,0.05462 c 0.164934,-0.375673 -0.339976,-0.04665 0,0 z m 1.00641,-0.01126 c 0.05,-0.230909 -0.19274,0.05324 0,0 z m 7.25286,-0.218432 c -0.10957,-1.206933 -0.17304,0.810535 0,0 z m -9.156201,-0.03555 c -0.127098,-0.363536 -0.0046,0.44377 0,0 z m 10.442771,-0.07185 c -0.0472,-0.547059 -0.14797,0.632247 0,0 z m -7.68773,0.03594 c 0.20243,-1.394783 -0.29437,-1.392507 0,0 z m 6.66592,-0.0158 c -0.004,-0.477183 -0.15034,0.396119 0,0 z m 0.25473,-0.154172 c -3.5e-4,-1.700066 -0.31961,0.692164 0,0 z M 98.26695,76.33705 c -0.15511,-0.141429 0.13759,0.270167 0,0 z m 1.164736,-0.05097 c 0.02534,-0.50388 -0.446093,0.156946 0,0 z m 0.871824,-0.02869 c -0.0652,-0.197347 -0.0645,0.197547 0,0 z m -9.39607,-0.05054 c -0.0995,-0.298918 -0.0707,0.256837 0,0 z m 18.03744,0.0095 c 0.12428,-0.58766 -0.24221,-0.214687 0,0 z m -9.710389,-0.163153 c 0.02367,-0.338507 -0.248237,0.152943 0,0 z m 0.130606,-0.05293 c -0.05179,-0.174314 -0.05136,0.174483 0,0 z m 1.309773,-0.05757 c 0.0157,-0.694136 -0.21126,0.187363 0,0 z m 0.53374,-0.02223 c 0.0294,-0.484869 -0.22126,0.200514 0,0 z m -2.33704,-0.275145 c -0.246079,0.128042 0.170701,0.423835 0,0 z m 8.28487,0.14514 c -0.0394,-0.47417 -0.0997,0.430315 0,0 z m -7.195604,0.04868 c -0.01459,-0.219726 -0.07048,0.171501 0,0 z m 15.926434,-0.114382 -0.0596,-0.02907 z m -7.71571,-0.103543 c 0.45483,-1.18463 -0.43636,-0.439127 0,0 z m 0.44168,0.08597 c 0.30038,-1.219632 -0.99892,-1.431954 0,0 z m -8.57576,-0.126421 c 0.27119,-0.703506 -0.412108,0.174044 0,0 z m -0.852742,-0.01758 c 0.266221,-0.876692 -0.370922,0.290355 0,0 z m 7.783692,0.03658 c 0.27532,-0.967439 -0.43028,-0.21878 0,0 z M 90.27036,75.371522 c -0.0888,-0.217381 -0.009,0.317902 0,0 z m 10.84723,-0.143452 c 0.14979,-0.362584 -0.24493,0.187568 0,0 z m -9.09994,-0.102896 -0.25131,0.393511 z m 7.951742,0.02224 c 0.122948,-0.301417 -0.225394,0.07858 0,0 z m 1.910748,-0.08614 c 0.44428,-1.227089 -0.38633,-2.090027 0,0 z m 5.30238,-0.09016 c 0.58353,-1.218835 -0.60669,-0.104964 0,0 z m 0.82741,-0.04294 c 0.11913,-0.422303 -0.30786,0.217076 0,0 z m -9.01249,0.03814 c -0.161362,-0.428847 -0.39235,0.01743 0,0 z m 1.42569,-0.07508 c 0.0617,-0.66652 -0.438501,-0.311321 0,0 z m 6.465,-0.0551 c 0.0945,-0.354962 -0.21569,0.06999 0,0 z m -9.2891,-0.08454 c 0.25959,-0.706227 -0.5405,0.0127 0,0 z m 2.272172,0.05566 c 0.04983,-0.395582 -0.373643,-0.222176 0,0 z m -8.146422,-0.112731 -0.0638,0.10792 z m 14.73621,-0.152864 c 0.062,-0.87078 -0.20012,0.611667 0,0 z m 0.23016,0.159261 -0.0275,0.0332 z m 1.25723,-0.126899 c -0.25613,-0.133957 -0.23955,0.518041 0,0 z m -9.070735,0.008 c 0.536137,-0.599338 -0.464615,0.09215 0,0 z m 2.640295,0.06536 c 0.43777,-0.227512 -0.41286,-0.540236 0,0 z m 0.75123,-0.294415 c -0.22466,-0.316991 0.0253,0.692048 0,0 z m -4.00985,0.0092 c -0.0168,-0.389459 -0.11431,0.422972 0,0 z m 9.84084,0.05317 c 0.47196,-0.01774 -0.19989,-0.265581 0,0 z m -7.10386,-0.07279 c -0.19734,-0.447856 -0.1771,0.445014 0,0 z m -0.54003,0.04462 c 1.53714,-1.542657 -1.247485,0.03948 0,0 z m 5.85951,-0.05749 c -0.0147,-0.394349 -0.22447,0.08863 0,0 z m -7.333171,-0.11314 c 0.529891,-0.909027 -0.582189,-0.414582 0,0 z m 2.341301,0.06942 c -0.0921,-0.130362 -0.0446,0.193827 0,0 z m 6.15116,0.03143 c 0.48848,-0.41287 -0.37083,0.01313 0,0 z m -0.47863,-0.191692 c 0.53529,-1.819088 -0.66274,0.109739 0,0 z m 0.71638,-0.0239 c 0.0564,-2.01227 -0.73181,-0.978694 0,0 z m 0.28002,-0.111334 c -0.004,-0.436523 -0.0834,0.304875 0,0 z m -1.72654,-0.04261 c 0.20454,-0.295512 -0.28055,0.0826 0,0 z M 89.33718,73.89296 c -0.06,-0.322758 -0.13688,0.271995 0,0 z m 17.12228,-0.06234 c 0.42817,-1.349651 -0.42248,-1.187268 0,0 z m -0.40936,-0.120946 c 0.59739,-1.65726 -0.57165,0.328103 0,0 z m 1.88725,-0.06299 c -0.11916,-0.416872 -0.0586,0.545796 0,0 z m -18.88311,0.103622 c -0.0131,-0.262861 -0.10365,0.175475 0,0 z m 9.54846,-0.02906 c -0.26969,-0.156097 0.02533,0.198509 0,0 z m 4.0009,-0.134697 c -0.0907,-0.377861 0.006,0.606799 0,0 z m -9.42956,0.05897 c 0.43483,-1.192642 -0.0382,-1.337785 0,0 z m 9.10306,-0.08308 c 0.36147,-1.552159 -0.50008,0.154692 0,0 z m 4.91069,-0.03337 -0.0249,0.123824 z m -5.53711,0.03486 -10e-4,0.07304 z m -10.28322,-0.07621 c -0.15054,-0.17993 0.0484,0.257787 0,0 z m 8.74482,0.0091 -0.0398,0.01292 z m 0.64525,0.01271 c 0.40387,-0.796993 -0.33421,-2.712481 0,0 z m 0.72321,-0.05046 c 0.44594,-0.86281 -0.36166,0.13846 0,0 z m 1.17753,-0.06994 -0.0639,-0.095 z m 4.78184,-0.09992 c -0.14295,-0.258728 -0.0157,0.302166 0,0 z m -17.28288,-0.04578 c 1.44087,-3.938665 3.7198,-7.546414 5.83938,-11.183729 1.81475,-1.352491 1.67087,-5.511921 0.54445,-6.173679 -2.05609,2.797725 -4.60937,5.429244 -6.71951,8.141398 -2.613,2.423542 -5.15483,5.868599 -0.94835,8.280449 0.3719,0.09241 0.9078,1.276244 1.28403,0.935561 z m -2.89307,-2.936844 c -0.0322,-0.380734 0.60395,0.04929 0,0 z m -0.63607,-2.176074 c 0.0368,-0.248735 0.21064,0.125462 0,0 z m 7.04358,-1.919593 0.0285,-0.09818 z m -3.72189,-2.281912 c 0.0447,-0.193863 0.0921,0.130375 0,0 z m 7.03252,-7.489013 c 0.008,-0.255299 0.12458,0.206552 0,0 z m 4.3378,16.766687 c 0.0875,-0.470402 -0.17668,0.283792 0,0 z m 5.32534,-0.02716 c -0.11915,-0.470469 -0.0352,0.449654 0,0 z m -4.92234,-0.108525 c 0.64375,-1.245124 -0.45923,0.223302 0,0 z m 5.30087,-0.04699 c -0.0468,-1.090439 -0.36275,-0.186481 0,0 z m -5.81268,-0.08125 c -0.24673,-0.381814 -0.0387,0.649337 0,0 z m -2.493427,-0.003 c 0.0017,-0.644576 -0.313553,0.516899 0,0 z m -15.050243,0.05686 c -0.093,-0.274663 -0.0539,0.180041 0,0 z m 22.61099,-0.02801 -0.0225,-0.165062 z m -7.84686,-0.02801 c 0.0648,-0.301109 -0.30048,0.103221 0,0 z m 2.97959,-0.03253 -0.0617,-0.210485 z m 7.30449,-0.17584 c 2.37276,-2.421828 5.91573,-5.92431 1.30753,-8.194389 -2.61017,-1.810796 -4.75238,-6.871336 -7.48898,-6.778893 0.37546,4.081201 3.01794,7.643178 4.55112,11.417165 0.44641,1.221407 1.06265,2.383546 1.63033,3.556117 z m -0.79766,-5.269558 0.19101,-0.332482 z m -2.3665,5.135487 c -0.21997,-0.301348 0.1411,0.390236 0,0 z m -3.37948,0.01574 c 0.56941,-0.836324 -0.4017,-0.42554 0,0 z m 4.38042,-0.02509 c 0.10566,-0.580537 -0.16851,0.18084 0,0 z m -22.1904,-0.08109 c 0.2435,-1.071424 -0.41167,0.457642 0,0 z m 22.96914,0.07314 c 0.26286,-0.522159 -0.62003,-0.285346 0,0 z m 0.18762,-0.08183 c -0.22139,-0.09342 0.1117,0.227213 0,0 z m 1.42113,5.77e-4 -0.047,-0.01581 z m 6.29628,-0.0748 c 0.30061,-0.475277 -0.41116,-0.01712 0,0 z M 94.25214,72.322856 c 0.063,-0.678366 -0.25848,0.513504 0,0 z m 4.22114,0.0012 c -0.0119,-0.694682 -0.25965,0.367517 0,0 z m 7.62824,-0.01224 c 0.32104,-0.537235 -0.23406,0.06184 0,0 z m -14.07944,-0.11113 c 0.0314,-0.499676 -0.13588,0.544706 0,0 z m 14.58306,0.06474 c 0.75672,-2.29958 -0.82693,-0.86419 -0.0737,-0.01334 z m 0.23374,-0.04305 c -0.13316,-0.216428 -0.12226,0.209515 0,0 z m 0.23987,-0.09921 c 0.0617,-0.811196 -0.37387,0.451478 0,0 z m -13.65285,0.0036 c -0.13293,-0.700223 -0.0707,0.531705 0,0 z m 12.93129,0.05527 c -0.009,-0.307112 -0.0738,0.249624 0,0 z m -0.95335,-0.01533 c 0.28321,0.0804 -0.93152,-1.340575 0,0 z m -8.30477,-0.14006 c 0.0929,-0.392132 -0.1828,0.212361 0,0 z m -0.29701,-0.08154 c 0.22515,-1.757632 -0.72953,-1.071729 -9e-5,1.8e-5 z m 5.69199,-0.10239 c -0.19924,-0.262697 -0.38946,0.362513 0,0 z m -2.29752,-0.09189 c 0.31548,-0.45089 -0.380706,0.192922 0,0 z m -7.80635,-0.01145 c 0.57417,-0.800943 -0.17041,-0.507378 0,0 z m 4.66938,-0.05216 c 0.28791,-0.631802 -0.46042,0.07368 0,0 z m 2.98413,-0.07239 c 0.0346,-0.590556 -0.514629,-0.03624 0,0 z m 6.24646,-0.08593 -0.0458,-0.03903 z m 0.57649,-0.0763 c 0.22949,-0.892458 -0.25619,0.118956 0,0 z M 85.01143,71.45226 c -0.20019,-0.06671 0.12484,0.164067 0,0 z m 16.15713,-0.142732 c 0.37516,-1.118964 -0.30236,0.23672 0,0 z m -4.2596,0.04652 c -0.16973,-0.137994 -0.0341,0.250032 0,0 z m 6.39116,0.01883 c 0.23083,-0.904862 -0.2405,0.141304 0,0 z m 1.82813,-0.114645 c -0.10486,-0.794866 -0.13119,0.624166 0,0 z m -2.02534,-0.183486 c -0.0394,-0.650275 -0.063,0.921891 0,0 z m -6.12817,0.202936 -0.0529,-0.05181 z m 1.38715,-0.05597 c 0.16236,-0.509679 -0.27922,0.0964 0,0 z m 7.88368,-0.05134 -0.0336,0.07354 z m -4.48082,0.04262 -0.0519,0.01413 z m -16.48392,-0.0918 c -0.21526,-0.499189 -0.12659,0.194709 0,0 z m 14.78417,-0.02716 c -0.0418,-0.259257 -0.0411,0.259399 0,0 z m -5.56245,-0.118837 c -0.21424,-0.208139 0.0748,0.474689 0,0 z m 7.94198,-0.02692 c 0.40604,-0.49755 -0.2645,-0.10851 0,0 z m -1.8736,0.0032 -0.0264,0.04482 z m 1.24597,-0.002 c -0.0995,-0.277451 0.004,0.241407 0,0 z m 1.51201,-0.07638 -0.0265,0.09052 z m 3.07033,0.1003 c 0.18518,-1.052385 -0.33604,-0.555316 0,0 z m -5.95785,-0.131311 c 0.0277,-0.527175 -0.16012,0.330863 0,0 z m 2.52269,-0.09783 c 0.0311,-1.049991 -0.19207,0.671749 0,0 z m 1.94001,0.163234 -0.13019,-0.347733 z m -19.56566,-0.0031 -0.0541,0.01374 z m 19.8912,-0.08682 c 0.12034,-0.601419 -0.22685,0.051 0,0 z m 0.80321,-0.01857 c 0.58843,-0.154381 -0.47045,-0.134949 0,0 z m -8.68478,-0.05318 -0.0249,0.05831 z m 8.30087,0.0088 c 0.4639,-1.125863 -0.36833,-1.357565 0,0 z M 97.7468,70.653903 c -0.0419,-1.029105 -0.27562,0.488543 0,0 z m 3.68599,-0.103209 c -0.0798,-0.552172 -0.34162,0.605831 0,0 z m -5.18737,0.01898 c 0.97303,-0.658035 -0.22515,-0.800208 0,0 z m 9.04983,-0.195321 c -0.1931,-0.334622 -0.0378,0.570106 0,0 z m -2.07883,0.09436 c -0.10767,-0.176 -0.20263,0.248083 0,0 z m -2.04023,-0.114103 c 0.70546,-0.617956 -0.1664,-0.388375 0,0 z m 2.3687,-0.01992 c 0.13028,-0.763907 -0.18773,0.371046 0,0 z m -4.182056,-0.105475 c -0.257106,-6.1e-5 0.189632,0.409002 0,0 z m 3.661596,-0.02651 c 0.62802,-0.501908 -0.51236,-0.528546 0,0 z m -0.53233,0.107059 c 0.38993,-0.551697 -0.035,-0.957168 0,0 z m 2.42765,-0.145629 c -0.15126,-0.564084 -0.0815,0.562667 0,0 z m -11.38936,0.07954 c 0.0178,-0.332319 -0.15977,0.129884 0,0 z m 12.44855,-0.05047 -0.0275,0.03322 z m -4.24852,-0.07008 c 0.23732,-1.615009 -0.28623,-0.816813 0,0 z m 2.73887,-0.135465 -0.0222,0.06755 z m 1.45715,0.04394 0.003,0.05048 z m -6.255012,0.02393 c 0.498852,-0.725545 -0.557242,0.04659 0,0 z m 1.414052,-0.110763 -0.0476,0.0557 z m -8.50461,-0.007 c 0.27383,-0.271059 -0.19766,-0.10747 0,0 z m 9.47167,-0.07088 0.0803,-0.486766 z m -4.34583,-0.03443 c -0.032,-0.250395 -0.0731,0.259482 0,0 z m 5.21387,-0.246421 c -0.11128,-1.807489 -0.1431,0.898041 0,0 z m -2.936894,0.214457 c 0.368734,-0.740804 -0.373003,-0.02035 0,0 z m 1.367684,-0.08574 c 0.004,-1.101211 -0.18937,0.363481 0,0 z m 3.45667,0.03169 c -0.0704,-0.407881 -0.35369,0.128105 0,0 z m -7.39373,-0.161497 c 0.0115,-0.600539 -0.15312,0.562951 0,0 z m 3.13165,0.06265 c 0.34912,-1.127138 -0.37153,0.199887 0,0 z m -2.58794,0.03574 c 0.0744,-0.403824 -0.23184,0.08201 0,0 z m -3.38236,-0.07114 c 0.18714,-0.354342 -0.20963,0.02618 0,0 z m 6.40345,-0.06912 c 0.45358,-1.144862 -0.32269,-0.386181 0,0 z m 3.55291,-0.04981 c 0.0177,-1.072769 -0.44561,0.174034 0,0 z m 0.50457,-0.199548 c 0.14272,-0.69413 -0.24409,0.458619 0,0 z m 0.85311,0.05651 c -0.22326,-0.304208 -0.17406,0.38239 0,0 z m -21.03503,-0.02076 c -0.0712,-0.247437 -0.0492,0.32949 0,0 z m 8.72851,-0.07915 c 0.113,-0.523084 -0.28646,0.391817 0,0 z m 3.83804,-0.06764 c -0.14528,-0.503352 -6.7e-4,0.532412 0,0 z m 1.979257,0.117141 c -0.08284,-0.244006 -0.04266,0.177266 0,0 z m 3.279413,-0.0038 -0.0963,-0.02132 z m -5.36654,-0.0094 -0.03,-0.04662 z m -4.50832,-0.303535 c -0.19043,-0.378537 0.13652,0.803988 0,0 z m 8.80059,0.121597 -0.0881,0.03269 z m -2.121541,-0.0085 c 0.22357,-0.67509 -0.397246,-0.152624 0,0 z m -13.330999,-0.1289 c 0.47416,-1.904141 -0.50355,0.531722 0,0 z m 9.34011,0.004 c -0.16094,-0.410096 -0.0126,0.467817 0,0 z m 2.30032,0.07719 c 0.21188,-0.692726 -0.33621,0.09928 0,0 z m 5.48389,-0.0479 c -0.19072,-0.147655 0.0345,0.250852 0,0 z m -2.97113,-0.03921 c 0.23205,-1.076584 -0.373089,0.378674 0,0 z m 2.31088,-1.8e-4 c 0.34992,-1.129807 -0.41593,-0.332084 0,0 z m -3.446031,9.96e-4 c 0.01049,-1.539552 -0.508202,-0.623198 0,0 z m 3.614531,-0.322278 c -0.28739,-0.526052 0.10234,0.900361 0,0 z m -2.20347,0.200887 c -0.0196,-0.481058 -0.1007,0.312447 0,0 z m 4.22578,-0.108014 c 0.0163,-1.408931 -0.20194,-1.085742 0,0 z m -8.922,0.147513 c 0.22477,-0.397712 -0.27807,-0.635689 0,0 z m 4.20701,-0.02042 c 0.17045,-0.414454 -0.302348,0.153998 0,0 z m 3.98619,-0.09889 c 0.16598,-0.653859 -0.34637,0.313405 0,0 z m -11.10379,-0.08661 c 0.44088,-0.702232 -0.25391,0.139262 0,0 z m 9.37354,-0.137482 -0.0345,0.175202 z m 0.70567,0.102629 c 0.0326,-0.354039 -0.23104,0.156077 0,0 z m -3.421814,-0.02528 c 0.242546,-0.643763 -0.287064,0.06904 0,0 z m 1.497674,0.03293 c 0.25747,-1.520462 -0.42756,-0.480922 0,0 z m 0.29964,-0.17044 c 0.0659,-0.838835 -0.25509,0.217342 0,0 z m -6.96317,-0.02995 c -0.14715,-0.183064 0.026,0.307882 0,0 z m 11.00239,-0.01597 c -0.0843,-0.462569 -0.11356,0.155414 0,0 z m -3.16145,-0.01959 -0.0586,0.01747 z m -2.22875,-0.03054 c 0.1898,-0.391037 -0.357555,-0.06884 0,0 z m -1.399724,-0.130336 c 0.251092,-0.511559 -0.333756,0.05899 0,0 z m 3.575034,-0.05979 c -0.011,-0.477881 -0.18986,0.309446 0,0 z m -8.79301,-0.06664 -0.0398,0.01292 z m 7.12931,-0.108722 c -0.1,-0.479688 -0.0695,0.446968 0,0 z m 0.22069,-0.02705 c -0.005,-0.406481 -0.0937,0.254137 0,0 z m -0.64576,0.0244 c 0.14112,-0.590098 -0.475253,0.296387 0,0 z m 1.6237,-0.06918 c 0.2804,-1.113521 -0.28482,0.243398 0,0 z m -3.05618,-0.153052 c 0.320489,-1.187277 -0.20468,-0.333726 0,0 z m 5.76401,-0.07049 -0.0649,0.04126 z m -3.16969,-0.01998 c -0.18792,-0.437822 -0.31569,0.110745 0,0 z m 2.45956,-0.0061 c -0.0206,-0.391004 -0.1705,0.246286 0,0 z m -1.28045,-0.143712 c 0.0395,-1.216835 -0.20759,0.631739 0,0 z m 0.92892,0.03066 c -0.11501,-1.251642 -0.51533,-0.869786 -0.21579,-0.01461 z m -0.24821,-0.324973 0.0183,-0.09424 z m -3.00833,0.304042 c 0.2065,-1.199296 -0.288779,0.253446 0,0 z m 12.77185,0.04402 -0.0789,-0.05058 z m -12.20621,-0.05849 c -0.0503,-0.225617 0.004,0.268251 0,0 z m 3.1741,0.04063 c 0.18583,-0.295619 -0.23225,-0.08921 0,0 z m 0.92215,-0.419677 c -0.29827,-2.072038 -0.26941,1.068416 0,0 z m -5.302601,0.246228 c -0.283734,-0.07733 0.161975,0.171655 0,0 z m 4.187971,-0.146717 c -0.28028,-0.128849 0.26197,0.338807 0,0 z m 1.45291,-0.115752 c -0.065,-0.431023 -0.005,0.65781 0,0 z m -3.59616,0.110573 -0.0398,0.01292 z m 2.43739,-0.01862 c 0.19932,-0.601922 -0.33318,0.256316 0,0 z M 97.9833,67.02853 c 0.34069,-0.971096 -0.41103,0.412701 0,0 z m 3.38596,0.07109 c 0.2013,-0.698217 -0.20604,0.352544 0,0 z m -0.95698,0.01033 -0.0353,0.0183 z m -1.389973,-0.05317 c -0.02535,-0.177813 -0.04971,0.160792 0,0 z m 2.125123,-0.04525 c 0.007,-0.472424 -0.19968,0.222945 0,0 z m -2.70086,0.01167 c 0.13365,-0.732183 -0.40258,0.07091 0,0 z m 1.138455,-0.01639 c -0.135347,-0.436264 -0.276969,0.209628 0,0 z m 5.507125,-0.0476 -0.0448,0.02281 z m -2.8439,-0.169657 c -0.19521,-0.90504 -0.27575,0.761224 0,0 z m -7.48768,-0.01853 c 0.29893,-1.528579 -0.37165,0.437845 0,0 z m 2.11352,0.159922 c 0.13429,-0.459331 -0.37075,-0.204883 0,0 z m -1.19636,-0.18284 c -0.002,-0.480768 -0.2007,0.437671 0,0 z m 5.69733,0.04414 c 0.004,-0.250857 -0.13593,0.103951 0,0 z m 2.44926,-0.300769 -0.10822,0.156528 z m 9.4993,0.194485 -0.0218,0.06817 z m -14.519364,0.05706 0.02525,-0.27591 z m 4.467614,-0.295645 c -0.0204,-0.292637 -0.15639,0.222072 0,0 z m -3.645708,0.0028 -0.03227,0.01184 z M 96.78085,66.320702 c -0.18588,-0.326868 0.0388,0.455985 0,0 z m 3.86959,0.02708 c -0.0873,-0.441031 -0.0515,0.397428 0,0 z m 0.55612,-0.007 c 0.18491,-1.2275 -0.71345,-0.972859 0,0 z m 1.61133,0.02141 c -0.0151,-0.612719 -0.50237,-0.0639 0,0 z m -1.0509,-0.06336 -0.0249,-0.533461 z m -1.35531,-0.157566 c -0.053,-0.328514 -0.16281,0.227517 0,0 z m 3.02394,-0.0033 c -0.0102,-0.171039 -0.10626,0.15801 0,0 z m -4.587975,-0.09437 c -0.0115,-0.719237 -0.314565,0.115527 0,0 z m 0.22505,-0.126817 c 0.297347,-0.995576 -0.390557,0.257589 0,0 z m 4.202185,-0.08653 c -0.22989,-0.490607 -0.0613,0.725533 0,0 z m -0.34501,0.120841 c 0.32535,-1.847283 -0.88686,-0.669028 0,0 z m -1.33923,-0.03982 c 0.72231,-0.478738 -0.31981,-0.168106 0,0 z m 3.10194,-0.14845 c -0.13035,-0.629633 -0.14792,0.560613 0,0 z m -5.112112,0.05602 c 0.264341,-1.456274 -0.433262,-1.070398 0,0 z m 4.146602,-0.02012 c 0.24084,-0.71475 -0.32388,-0.88442 0,0 z m -5.28489,-0.135362 c -0.0856,-0.293935 -0.11027,0.411082 0,0 z m 2.44465,0.09904 c -0.0108,-0.239031 -0.2668,0.06767 0,0 z m 3.32163,-0.116082 c 0.22746,-0.338898 -0.36633,0.33847 0,0 z m -7.33623,-0.200554 c 0.53627,-1.247137 -0.39651,0.398314 0,0 z m 6.4076,0.03956 c -0.0595,-0.775877 -0.23292,0.269614 0,0 z m -4.540148,-0.0049 c -0.0096,-0.236262 -0.198072,0.180204 0,0 z m 2.153068,-0.09096 c 0.37688,-0.777144 -0.50558,0.178246 0,0 z m -2.035276,-0.01976 c 0.112309,-0.750837 -0.478094,-0.06842 0,0 z m 0.549455,0.01002 c 0.20099,-0.802047 -0.422562,-0.345093 0,0 z m 1.298801,-0.05293 c 0.0321,-0.404643 -0.21679,0.2522 0,0 z m 1.75749,-0.114117 c 0.26287,-0.191302 -0.26278,0.04084 0,0 z m 0.91762,-0.04288 c -0.11745,-0.250896 -0.0701,0.279485 0,0 z m -0.18897,0.0071 c -0.0327,-1.407275 -0.65211,-1.002716 0,0 z m -6.96351,-0.03993 c 0.23083,-0.579782 -0.35953,0.08981 0,0 z m 4.64076,-0.261108 c -0.0666,-0.616092 -0.11461,0.763206 0,0 z m 3.15915,0.0885 c -0.17728,0.09811 0.18665,0.135064 0,0 z m -3.57049,-0.09078 c -0.036,-0.334448 -0.1,0.303361 0,0 z m -2.42266,-0.219979 c 0.31895,-0.567918 0.0336,-1.254562 0,0 z m 1.383344,-0.04273 -0.03123,-0.272465 z m 0.679966,-0.182412 c -0.205827,-0.07104 0.0265,0.248201 0,0 z m 3.96138,0.02964 c -0.0318,-0.465549 -0.13586,0.26706 0,0 z m -4.96483,-0.0022 c 0.06974,-0.438981 -0.305108,0.259328 0,0 z m 1.97666,-0.0048 c -0.14202,-0.294288 -0.1307,0.166291 0,0 z m -0.31356,-0.322598 c -0.15364,-0.954223 -0.0398,0.907964 0,0 z m -1.336142,0.02005 c 0.247415,-0.7931 -0.510634,-0.272414 0,0 z m 2.887312,-0.110525 c -0.20471,-0.855274 -0.14384,0.325383 0,0 z m -1.95859,0.04154 c 0.27887,-1.429043 -0.22917,-0.639101 0,0 z m -0.714331,-0.08821 -0.0453,-0.04752 z m 3.609121,-0.113608 c 0.4664,-0.731046 -0.42081,-0.253791 0,0 z m 0.25304,-0.04969 c -0.005,-0.412222 -0.20217,0.223003 0,0 z m -0.52575,-0.265985 c -0.0788,-0.986487 -0.13319,0.882952 0,0 z m -3.425506,0.105607 c 0.07701,-0.625657 -0.300042,0.170913 0,0 z m 3.054186,-0.152303 c 0.21127,-0.360772 -0.35179,-0.475595 0,0 z m -5.22147,-0.18054 c -0.0245,-0.306684 -0.12593,0.232083 0,0 z M 90.45301,63.14245 c -0.11228,-0.210318 -0.0962,0.275406 0,0 z m 11.90501,-0.03935 c 0.366,-0.749508 -0.21821,-0.520138 0,0 z m -2.442309,-0.03423 c 0.06025,-0.376174 -0.286023,-0.01833 0,0 z m 0.393699,-0.166419 -0.0623,-0.0062 z m -0.0759,-0.06691 c 0.43999,-1.20702 -0.431979,0.0926 0,0 z M 96.5553,62.62685 c -0.0307,-0.48362 -0.0888,0.35371 0,0 z m 5.36768,0.0089 c 0.10554,-0.578845 -0.34605,0.06617 0,0 z m 0.88881,-0.183222 c -0.15972,-0.197493 -0.009,0.390905 0,0 z m -3.848557,-0.189745 -0.05241,-0.124846 z m 2.673397,-0.328839 c 0.25239,-1.634316 -0.42913,0.379038 0,0 z m 0.73373,-0.230666 c -0.1942,-0.613106 -0.0423,0.682302 0,0 z m -4.08408,-0.493173 c 0.44063,-0.928914 -0.44403,0.473643 0,0 z m 0.957007,-0.111012 c -0.335197,-0.73951 -0.04094,0.767928 0,0 z M 101.24985,60.6818 c -0.24375,-1.181488 -0.009,1.249783 0,0 z m -0.83934,0.07364 -0.16862,0.385098 z m 0.34687,-0.334758 -0.0739,0.06956 z M 99.255725,60.13065 c -0.115731,-0.605783 -0.08942,0.412774 0,0 z m 0.713915,-0.03377 c 0.32932,-0.550442 -0.341738,-0.04904 0,0 z m 1.23799,-0.0067 0.005,-0.175646 z m -1.594393,-0.384188 c -0.0086,-1.022507 -0.247916,0.438209 0,0 z m 1.408013,-0.06093 c 0.24344,-0.745509 -0.22278,-0.234827 0,0 z m -0.59337,-0.460629 c -0.066,-0.382952 -0.0396,0.486626 0,0 z m -0.621456,-0.173424 c -0.121556,-0.619394 -0.04894,0.63642 0,0 z m -2.385194,-0.433449 -0.0618,0.0926 z m 1.17742,0.05212 c -0.0282,-0.150431 -0.0562,0.19563 0,0 z m 0.0539,-0.201951 -0.03306,0.04592 z m -0.78085,-0.07637 c 0.13905,-0.445943 -0.19912,0.296893 0,0 z m 0.918027,-0.382751 c 0.01439,-0.866099 -0.229437,0.270036 0,0 z M 97.51866,57.504799 c 0.13157,-0.7367 -0.34993,0.52711 0,0 z m 1.168255,-0.07816 c 0.08827,-0.524971 -0.152535,0.229819 0,0 z m 3.611615,-0.03652 c -0.0675,-0.261163 -0.0786,0.321572 0,0 z m 0.20911,0.05308 c 0.0987,-0.415715 -0.18035,0.06148 0,0 z m -2.933601,-0.138278 -0.03733,0.05976 z m 3.661061,-0.376635 c -0.10536,-0.471166 -0.12428,0.470261 0,0 z m -5.27482,-0.01966 c 1.242475,-1.61032 -1.14961,0.185033 0,0 z m 3.80774,-0.09219 -0.0398,-0.0128 z m -0.41954,-0.123494 c -0.2601,-0.601481 -0.0474,0.456737 0,0 z m -1.368489,0.01305 c 0.03177,-0.489895 -0.296802,0.216187 0,0 z m 2.449989,-0.06045 c 0.008,-0.161242 -0.1733,0.134872 0,0 z M 99.14477,56.51976 c 0.24569,-0.480092 -0.254549,0.05942 0,0 z m 0.525842,-0.203325 c 0.230913,-0.859517 -0.259259,-0.718354 0,0 z m 0.569308,-0.105085 c 0.38158,-0.816127 -0.5377,0.204533 0,0 z m -2.91113,-0.102015 -0.0156,0.218709 z m 3.01694,0.08953 -0.0195,0.02171 z m -2.74309,-0.01533 c 0.12017,-0.312535 -0.2207,-0.03397 0,0 z m 1.619044,-0.535504 c -0.06843,-0.253267 -0.01534,0.309673 0,0 z m 0.233271,-0.09818 c 0.134991,-0.647414 -0.191833,0.449849 0,0 z M 98.60791,55.26789 c -0.14673,-0.595441 -0.10681,0.636036 0,0 z m -0.57096,-0.01646 c -0.17474,-0.338933 0.1228,0.684431 0,0 z m 1.336843,-0.05951 c -0.09992,-0.144301 -0.0031,0.243554 0,0 z m -1.866213,-0.05158 -0.003,0.08324 z m 2.128264,-0.183371 c 0.307791,-1.135566 -0.72456,-1.492773 0,0 z M 97.99928,54.71061 c 0.16991,-0.830051 -0.36259,0.136114 0,0 z M 99.912515,54.619 c 0.531485,-1.315246 -0.399318,0.159172 0,0 z m 0.241055,-0.212727 c -0.0674,-0.365791 -0.0727,0.247578 0,0 z M 81.27258,111.40463 c -0.24024,-0.39651 0.4301,0.0261 0,0 z m 34.10998,-7.27472 c 0.71756,-0.99817 1.22772,-0.92844 0,0 z m 16.29583,-0.58131 c -0.74811,-0.29562 0.59451,-0.30098 0,0 z m -59.34215,-0.75519 c 0.046,-0.31657 0.17829,0.11232 0,0 z m 39.95292,-1.31943 c -0.0113,-0.23152 0.10445,0.11914 0,0 z M 70.68799,97.735123 c -0.22599,-0.34157 0.29792,-0.10798 0,0 z m 5.03341,-3.682045 c -0.18221,-0.410206 0.70963,0.336643 0,0 z m 7.16044,-0.526407 c 0.23056,-0.2372 0.11372,0.189479 0,0 z m 44.63154,-0.489445 c -0.0433,-0.268993 0.25362,-0.03244 0,0 z M 81.37402,90.801499 c -0.73109,-1.179496 0.52259,-0.609361 0,0 z M 80.9873,89.784686 c -0.22649,-0.792374 0.43374,-0.02214 0,0 z m -0.22321,-0.360277 c -0.37364,-0.758802 0.39475,-0.32326 0,0 z m -4.3697,-2.688815 c 0.0254,-0.463048 0.43857,0.206659 0,0 z m -0.84824,-0.07005 c -0.24623,-0.480155 0.69877,0.0538 0,0 z m 54.77593,-2.110189 c -0.31785,-1.023368 1.31162,0.290375 0,0 z m -5.31533,-1.031487 c -0.32661,-0.446518 0.43192,0.0092 0,0 z m -56.48511,-1.28856 c -0.44426,-0.587308 1.34451,0.258173 0,0 z M 79.7493,71.73314 c -1.02403,-0.461247 1.53381,0.05119 0,0 z m 4.67663,-1.743572 c -0.28527,-0.286916 0.46822,-0.459281 0,0 z m 29.16373,-3.358438 c -0.38862,-0.50713 0.2393,-0.188383 0,0 z M 83.68085,62.080569 c -0.27277,-0.791674 0.46053,0.185882 0,0 z m 16.69444,-11.015746 c -1.510918,-1.288407 1.81696,-0.521498 0,0 z m -8.80356,-5.733256 c 0.21194,-0.848781 0.30235,0.131131 0,0 z"
         id="path1" />
      <rect
         style="fill:#ff0d0d;fill-opacity:0;stroke:#924429;stroke-width:0.994478;stroke-linecap:round;stroke-linejoin:round;stroke-dasharray:none;stroke-dashoffset:0;stroke-opacity:1"
         id="rect1"
         width="99.005524"
         height="94.794319"
         x="49.808273"
         y="37.35466" />
      <path
         style="fill:#ff0d0d;fill-opacity:0;stroke:#ff0000;stroke-width:0.994478;stroke-linecap:round;stroke-linejoin:round;stroke-dasharray:none;stroke-dashoffset:0;stroke-opacity:1"
         d="m 73.84016,49.065816 -12.92432,42.504014 9.78771,2.728379 -9.52493,31.324471 12.50458,3.48574 3.30458,-10.86773 29.01779,8.08888 5.41601,-17.8115 22.66168,6.31706 6.9865,-22.976447 -14.46955,-4.033467 8.34831,-27.454958 -18.30115,-5.101545 3.6323,-11.94549 -15.84219,-4.416102 -2.56131,8.423371 -19.34811,-5.393394 -2.5295,8.318733 -6.01077,-1.675536 z"
         id="path3" />
      <use
         x="0"
         y="0"
         xlink:href="#path1"
         id="use1"
         style="fill:#000000" />
      <use
         x="0"
         y="0"
         xlink:href="#rect1"
         id="use2" />
      <text
         xml:space="preserve"
         transform="matrix(0.26338245,0,0,0.52573182,45.099281,-37.082604)"
         id="text8"
         style="font-weight:bold;font-size:24px;font-family:'Gurmukhi Sangam MN';-inkscape-font-specification:'Gurmukhi Sangam MN Bold';white-space:pre;shape-inside:url(#rect9);display:inline;fill:#ffffff;stroke:#1c0000;stroke-opacity:1"><tspan
           x="90.494141"
           y="291.80078"
           id="tspan2">MAXIME
</tspan></text>
    </g>
  </g>
</svg>
